{"glyphs":{"0":{"ha":550,"x_min":25,"x_max":551,"o":"m 225 -18 q 113 10 160 -17 q 46 96 67 38 q 39 250 25 154 l 88 592 q 176 772 104 714 q 347 831 249 831 q 497 772 443 831 q 535 592 551 714 l 486 251 q 435 94 472 154 q 344 8 399 35 q 225 -18 290 -18 m 236 63 q 306 94 275 63 q 344 185 336 125 l 406 626 q 394 719 415 688 q 332 750 372 750 q 264 719 294 750 q 224 626 233 688 l 163 185 q 176 94 154 125 q 236 63 197 63 z "},"1":{"ha":368,"x_min":71,"x_max":365,"o":"m 115 0 l 207 651 l 71 651 l 81 728 l 132 728 q 201 753 175 732 q 250 821 226 774 l 365 821 l 249 0 l 115 0 z "},"2":{"ha":533,"x_min":-4,"x_max":543,"o":"m -4 0 q 7 81 1 42 q 18 163 13 121 q 53 278 29 236 q 121 349 78 321 q 225 406 164 376 q 299 445 264 422 q 360 503 335 468 q 390 586 385 538 l 393 607 q 386 695 401 661 q 322 729 371 729 q 251 695 278 729 q 214 593 224 661 l 206 532 l 72 532 l 86 628 q 165 776 101 728 q 338 825 229 825 q 468 801 422 825 q 528 728 514 778 q 532 601 543 679 q 500 489 522 538 q 441 405 478 440 q 350 342 404 369 q 276 306 311 324 q 217 264 242 288 q 178 204 192 240 q 160 159 168 182 q 147 110 153 136 l 467 110 l 451 0 l -4 0 z "},"3":{"ha":539,"x_min":10,"x_max":547,"o":"m 217 -10 q 90 15 138 -10 q 26 86 43 40 q 17 193 10 132 l 31 283 l 164 283 l 156 225 q 164 123 147 158 q 229 86 181 88 q 301 118 274 86 q 338 203 329 150 l 349 282 q 324 358 356 333 q 232 383 293 382 l 160 383 l 171 461 l 243 461 q 299 469 274 461 q 343 494 324 478 q 372 528 363 510 q 385 567 382 546 l 392 621 q 383 697 399 665 q 319 729 367 729 q 245 694 269 729 q 213 599 221 658 l 207 560 l 72 560 l 82 631 q 158 775 96 725 q 333 825 219 825 q 501 778 454 825 q 533 642 547 732 l 526 586 q 474 472 517 515 q 367 418 432 429 q 463 367 433 411 q 482 251 493 322 l 474 193 q 436 82 465 128 q 354 13 407 36 q 217 -10 301 -10 z "},"4":{"ha":524,"x_min":-11,"x_max":492,"o":"m 240 0 l 264 163 l -11 163 l 4 268 l 363 821 l 489 821 l 410 253 l 492 253 l 479 163 l 396 163 l 372 0 l 240 0 m 110 253 l 276 253 l 322 586 l 110 253 z "},"5":{"ha":546,"x_min":15,"x_max":549,"o":"m 225 -11 q 96 6 144 -11 q 31 72 47 24 q 28 208 15 119 l 35 269 l 168 269 l 163 219 q 169 115 151 144 q 239 86 188 86 q 313 119 288 86 q 349 224 339 153 l 367 351 q 367 412 371 385 q 347 455 364 439 q 292 471 329 471 q 226 449 254 471 q 186 392 197 428 l 56 392 l 115 821 l 549 821 l 535 724 l 233 724 l 201 496 q 258 541 222 522 q 354 560 294 560 q 483 521 446 560 q 507 383 521 482 l 482 208 q 437 74 471 121 q 350 8 403 26 q 225 -11 297 -11 z "},"6":{"ha":550,"x_min":22,"x_max":550,"o":"m 224 -14 q 103 12 149 -14 q 40 88 57 38 q 32 206 22 138 l 92 628 q 174 777 106 726 q 344 828 242 828 q 499 781 449 828 q 535 632 550 733 l 526 576 l 394 576 l 404 647 q 394 721 413 699 q 333 743 375 743 q 262 716 290 743 q 226 644 233 689 l 200 451 q 268 501 226 483 q 354 518 310 518 q 472 477 428 518 q 506 360 515 436 l 482 192 q 440 84 472 131 q 354 12 408 38 q 224 -14 300 -14 m 238 67 q 308 92 278 67 q 346 172 338 118 l 369 339 q 351 410 376 389 q 288 432 325 431 q 222 410 250 432 q 186 353 193 389 l 161 172 q 174 94 153 119 q 238 67 196 68 z "},"7":{"ha":440,"x_min":6,"x_max":479,"o":"m 6 0 l 333 725 l 68 725 l 81 821 l 479 821 l 465 722 l 139 0 l 6 0 z "},"8":{"ha":540,"x_min":15,"x_max":542,"o":"m 222 -11 q 97 14 144 -11 q 33 85 50 39 q 24 194 15 132 l 31 244 q 50 321 38 286 q 88 381 63 356 q 135 413 106 399 q 210 431 165 426 q 148 444 168 433 q 110 474 128 456 q 88 535 90 497 q 90 614 85 572 l 94 644 q 129 744 103 704 q 207 805 156 785 q 339 825 258 825 q 466 805 421 825 q 526 744 511 785 q 533 644 542 704 l 529 614 q 504 527 522 565 q 453 465 486 489 q 369 431 421 442 q 440 408 415 426 q 476 363 465 390 q 486 306 486 336 q 482 243 486 275 l 475 193 q 439 91 468 138 q 357 17 410 44 q 222 -11 304 -11 m 231 67 q 303 94 275 67 q 338 165 331 121 l 351 274 q 339 345 358 319 q 275 372 319 371 q 202 343 229 372 q 168 274 175 314 l 153 165 q 166 95 147 122 q 231 67 185 68 m 288 475 q 355 503 325 475 q 392 582 385 532 l 400 643 q 392 719 407 688 q 328 751 376 751 q 255 719 279 751 q 224 644 231 686 l 215 583 q 231 503 208 531 q 288 475 253 475 z "},"9":{"ha":549,"x_min":17,"x_max":543,"o":"m 221 -15 q 67 32 117 -15 q 31 181 17 79 l 40 247 l 172 247 l 161 165 q 172 92 153 115 q 232 69 192 69 q 303 97 275 69 q 339 168 332 124 l 368 369 q 299 319 340 336 q 213 303 257 303 q 127 323 164 303 q 74 385 90 343 q 67 494 58 428 l 83 621 q 125 729 93 683 q 212 801 157 775 q 342 826 267 826 q 463 801 417 826 q 526 726 508 775 q 533 607 543 676 l 474 185 q 392 35 460 86 q 221 -15 324 -15 m 279 388 q 344 410 315 388 q 381 468 374 432 l 406 640 q 392 719 413 694 q 328 746 371 744 q 258 720 288 746 q 219 640 228 694 l 197 481 q 216 410 190 432 q 279 388 242 389 z "},"\r":{"ha":833,"x_min":0,"x_max":0,"o":""}," ":{"ha":240,"x_min":0,"x_max":0,"o":""}," ":{"ha":240,"x_min":0,"x_max":0,"o":""},"A":{"ha":533,"x_min":-39,"x_max":465,"o":"m -39 0 l 238 821 l 424 821 l 465 0 l 317 0 l 310 167 l 158 167 l 103 0 l -39 0 m 169 235 l 315 235 l 308 692 l 169 235 z "},"А":{"ha":533,"x_min":-39,"x_max":465,"o":"m -39 0 l 238 821 l 424 821 l 465 0 l 317 0 l 310 167 l 158 167 l 103 0 l -39 0 m 169 235 l 315 235 l 308 692 l 169 235 z "},"Æ":{"ha":771,"x_min":-44,"x_max":772,"o":"m -44 0 l 331 821 l 772 821 l 758 726 l 507 726 l 475 478 l 697 478 l 682 374 l 463 374 l 426 92 l 686 92 l 671 0 l 268 0 l 292 167 l 172 167 l 97 0 l -44 0 m 192 235 l 308 235 l 381 667 l 386 692 l 378 668 l 192 235 z "},"Á":{"ha":533,"x_min":-39,"x_max":500,"o":"m -39 0 l 238 821 l 424 821 l 465 0 l 317 0 l 310 167 l 158 167 l 103 0 l -39 0 m 169 235 l 315 235 l 308 692 l 169 235 m 249 881 l 375 1006 l 499 1006 l 325 881 l 249 881 z "},"Ă":{"ha":533,"x_min":-39,"x_max":510,"o":"m -39 0 l 238 821 l 424 821 l 465 0 l 317 0 l 310 167 l 158 167 l 103 0 l -39 0 m 169 235 l 315 235 l 308 692 l 169 235 m 339 874 q 267 887 294 874 q 228 921 240 900 q 212 965 215 942 q 211 1007 208 988 l 283 1007 q 301 955 282 972 q 350 938 321 938 q 405 954 381 938 q 436 1007 429 971 l 510 1007 q 485 943 504 974 q 430 893 465 913 q 339 874 394 874 z "},"Ắ":{"ha":533,"x_min":-39,"x_max":486,"o":"m -39 0 l 238 821 l 424 821 l 465 0 l 317 0 l 310 167 l 158 167 l 103 0 l -39 0 m 169 235 l 315 235 l 308 692 l 169 235 m 339 874 q 269 891 290 874 q 242 931 247 908 q 240 975 238 954 l 311 975 q 320 945 308 956 q 349 935 332 935 q 381 944 367 935 q 399 975 396 954 l 471 975 q 433 903 465 933 q 339 874 401 874 m 299 1001 l 361 1101 l 486 1101 l 381 1001 l 299 1001 z "},"Ặ":{"ha":533,"x_min":-39,"x_max":510,"o":"m -39 0 l 238 821 l 424 821 l 465 0 l 317 0 l 310 167 l 158 167 l 103 0 l -39 0 m 169 235 l 315 235 l 308 692 l 169 235 m 203 -168 q 162 -151 179 -168 q 144 -111 144 -135 q 162 -72 144 -87 q 203 -57 179 -57 q 244 -72 228 -57 q 261 -111 261 -87 q 244 -151 261 -135 q 203 -168 228 -168 m 339 874 q 267 887 294 874 q 228 921 240 900 q 212 965 215 942 q 211 1007 208 988 l 283 1007 q 301 955 282 972 q 350 938 321 938 q 405 954 381 938 q 436 1007 429 971 l 510 1007 q 485 943 504 974 q 430 893 465 913 q 339 874 394 874 z "},"Ằ":{"ha":533,"x_min":-39,"x_max":471,"o":"m -39 0 l 238 821 l 424 821 l 465 0 l 317 0 l 310 167 l 158 167 l 103 0 l -39 0 m 169 235 l 315 235 l 308 692 l 169 235 m 339 874 q 269 891 290 874 q 242 931 247 908 q 239 975 238 954 l 310 975 q 320 945 308 956 q 349 935 332 935 q 381 944 367 935 q 399 975 396 954 l 471 975 q 433 903 465 933 q 339 874 401 874 m 328 1001 l 243 1101 l 367 1101 l 410 1001 l 328 1001 z "},"Ẳ":{"ha":533,"x_min":-39,"x_max":471,"o":"m -39 0 l 238 821 l 424 821 l 465 0 l 317 0 l 310 167 l 158 167 l 103 0 l -39 0 m 169 235 l 315 235 l 308 692 l 169 235 m 339 874 q 269 891 290 874 q 242 931 247 908 q 240 975 238 954 l 311 975 q 320 945 308 956 q 349 935 332 935 q 381 944 367 935 q 399 975 396 954 l 471 975 q 433 903 465 933 q 339 874 401 874 m 324 990 l 326 1013 q 339 1033 329 1026 q 358 1044 349 1039 q 368 1061 368 1049 l 371 1069 q 369 1083 371 1078 q 358 1089 368 1089 q 343 1068 346 1089 l 286 1078 q 372 1135 297 1135 q 430 1117 413 1135 q 447 1067 447 1099 l 447 1063 q 435 1034 443 1042 q 419 1024 428 1026 q 403 1019 410 1022 q 396 1006 397 1017 l 394 990 l 324 990 z "},"Ẵ":{"ha":533,"x_min":-39,"x_max":490,"o":"m -39 0 l 238 821 l 424 821 l 465 0 l 317 0 l 310 167 l 158 167 l 103 0 l -39 0 m 169 235 l 315 235 l 308 692 l 169 235 m 339 874 q 269 891 290 874 q 242 931 247 908 q 239 975 238 954 l 310 975 q 320 945 308 956 q 349 935 332 935 q 381 944 367 935 q 399 975 396 954 l 471 975 q 433 903 465 933 q 339 874 401 874 m 406 1000 q 377 1006 390 1000 q 351 1021 364 1013 q 333 1032 343 1026 q 310 1038 324 1038 q 288 1026 296 1038 q 276 1001 281 1015 l 240 1001 q 268 1069 247 1043 q 319 1096 289 1096 q 349 1090 335 1096 q 374 1078 363 1085 q 395 1067 385 1071 q 415 1063 406 1063 q 438 1072 429 1063 q 449 1093 446 1082 l 489 1093 q 456 1024 482 1049 q 406 1000 431 1000 z "},"Ǎ":{"ha":533,"x_min":-39,"x_max":529,"o":"m -39 0 l 238 821 l 424 821 l 465 0 l 317 0 l 310 167 l 158 167 l 103 0 l -39 0 m 169 235 l 315 235 l 308 692 l 169 235 m 301 875 l 192 1008 l 278 1008 l 351 935 l 446 1008 l 529 1008 l 379 875 l 301 875 z "},"Â":{"ha":533,"x_min":-39,"x_max":511,"o":"m -39 0 l 238 821 l 424 821 l 465 0 l 317 0 l 310 167 l 158 167 l 103 0 l -39 0 m 169 235 l 315 235 l 308 692 l 169 235 m 174 875 l 322 1008 l 400 1008 l 511 876 l 428 876 l 353 949 l 258 875 l 174 875 z "},"Ấ":{"ha":533,"x_min":-39,"x_max":653,"o":"m -39 0 l 238 821 l 424 821 l 465 0 l 317 0 l 310 167 l 158 167 l 103 0 l -39 0 m 169 235 l 315 235 l 308 692 l 169 235 m 211 869 l 321 976 l 392 976 l 471 869 l 394 869 l 350 921 l 290 869 l 211 869 m 465 933 l 529 1033 l 653 1033 l 547 933 l 465 933 z "},"Ậ":{"ha":533,"x_min":-39,"x_max":511,"o":"m -39 0 l 238 821 l 424 821 l 465 0 l 317 0 l 310 167 l 158 167 l 103 0 l -39 0 m 169 235 l 315 235 l 308 692 l 169 235 m 203 -168 q 162 -151 179 -168 q 144 -111 144 -135 q 162 -72 144 -87 q 203 -57 179 -57 q 244 -72 228 -57 q 261 -111 261 -87 q 244 -151 261 -135 q 203 -168 228 -168 m 174 875 l 322 1008 l 400 1008 l 511 876 l 428 876 l 353 949 l 258 875 l 174 875 z "},"Ầ":{"ha":533,"x_min":-39,"x_max":576,"o":"m -39 0 l 238 821 l 424 821 l 465 0 l 317 0 l 310 167 l 158 167 l 103 0 l -39 0 m 169 235 l 315 235 l 308 692 l 169 235 m 211 869 l 321 976 l 392 976 l 471 869 l 394 869 l 350 921 l 290 869 l 211 869 m 494 933 l 411 1033 l 535 1033 l 576 933 l 494 933 z "},"Ẩ":{"ha":533,"x_min":-39,"x_max":614,"o":"m -39 0 l 238 821 l 424 821 l 465 0 l 317 0 l 310 167 l 158 167 l 103 0 l -39 0 m 169 235 l 315 235 l 308 692 l 169 235 m 211 869 l 321 976 l 392 976 l 471 869 l 394 869 l 350 921 l 290 869 l 211 869 m 490 922 l 494 944 q 506 965 497 958 q 525 976 515 971 q 536 992 535 981 l 538 1003 q 538 1015 539 1008 q 526 1022 536 1022 q 510 1001 514 1022 l 453 1010 q 481 1053 460 1039 q 539 1067 501 1067 q 597 1049 579 1067 q 610 1000 614 1032 l 610 994 q 600 965 607 974 q 585 955 593 957 q 570 951 576 953 q 563 938 564 949 l 561 922 l 490 922 z "},"Ẫ":{"ha":533,"x_min":-39,"x_max":489,"o":"m -39 0 l 238 821 l 424 821 l 465 0 l 317 0 l 310 167 l 158 167 l 103 0 l -39 0 m 169 235 l 315 235 l 308 692 l 169 235 m 211 869 l 321 976 l 392 976 l 471 869 l 394 869 l 350 921 l 290 869 l 211 869 m 404 997 q 376 1003 389 997 q 351 1018 364 1010 q 331 1028 342 1024 q 308 1033 321 1033 q 288 1024 296 1033 q 276 999 281 1014 l 240 999 q 267 1068 246 1043 q 318 1093 289 1093 q 347 1088 333 1093 q 372 1075 360 1082 q 394 1065 385 1069 q 414 1060 404 1060 q 436 1068 428 1060 q 449 1089 444 1076 l 489 1089 q 469 1040 483 1060 q 438 1008 456 1019 q 404 997 419 997 z "},"Ä":{"ha":533,"x_min":-39,"x_max":486,"o":"m -39 0 l 238 821 l 424 821 l 465 0 l 317 0 l 310 167 l 158 167 l 103 0 l -39 0 m 169 235 l 315 235 l 308 692 l 169 235 m 274 888 q 232 904 249 888 q 215 944 215 921 q 232 983 215 968 q 274 999 249 999 q 315 983 299 999 q 331 944 331 968 q 315 904 331 921 q 274 888 299 888 m 428 888 q 387 904 404 888 q 369 944 369 921 q 387 983 369 968 q 428 999 404 999 q 469 983 453 999 q 486 944 486 968 q 469 904 486 921 q 428 888 453 888 z "},"Ạ":{"ha":533,"x_min":-39,"x_max":465,"o":"m -39 0 l 238 821 l 424 821 l 465 0 l 317 0 l 310 167 l 158 167 l 103 0 l -39 0 m 169 235 l 315 235 l 308 692 l 169 235 m 203 -168 q 162 -151 179 -168 q 144 -111 144 -135 q 162 -72 144 -87 q 203 -57 179 -57 q 244 -72 228 -57 q 261 -111 261 -87 q 244 -151 261 -135 q 203 -168 228 -168 z "},"À":{"ha":533,"x_min":-39,"x_max":465,"o":"m -39 0 l 238 821 l 424 821 l 465 0 l 317 0 l 310 167 l 158 167 l 103 0 l -39 0 m 169 235 l 315 235 l 308 692 l 169 235 m 328 881 l 181 1001 l 306 1001 l 413 881 l 328 881 z "},"Ả":{"ha":533,"x_min":-39,"x_max":465,"o":"m -39 0 l 238 821 l 424 821 l 465 0 l 317 0 l 310 167 l 158 167 l 103 0 l -39 0 m 169 235 l 315 235 l 308 692 l 169 235 m 306 857 l 308 888 q 326 916 311 908 q 356 931 342 924 q 371 957 369 939 l 374 968 q 370 992 375 982 q 349 1003 365 1003 q 315 972 324 1003 l 256 982 q 291 1035 265 1017 q 361 1053 317 1053 q 433 1030 411 1053 q 449 964 454 1007 l 447 960 q 434 919 444 931 q 411 904 424 908 q 389 896 399 900 q 378 879 379 892 l 376 857 l 306 857 z "},"Ā":{"ha":533,"x_min":-39,"x_max":492,"o":"m -39 0 l 238 821 l 424 821 l 465 0 l 317 0 l 310 167 l 158 167 l 103 0 l -39 0 m 169 235 l 315 235 l 308 692 l 169 235 m 208 901 l 218 968 l 493 968 l 483 901 l 208 901 z "},"Ą":{"ha":533,"x_min":-39,"x_max":465,"o":"m -39 0 l 238 821 l 424 821 l 465 0 l 317 0 l 310 167 l 158 167 l 103 0 l -39 0 m 169 235 l 315 235 l 308 692 l 169 235 m 369 -196 q 296 -170 322 -196 q 274 -110 269 -144 q 315 -39 281 -71 q 393 1 349 -7 l 449 0 q 388 -40 410 -14 q 363 -92 367 -67 q 375 -132 360 -118 q 408 -146 390 -146 q 428 -143 419 -146 q 440 -139 438 -140 l 453 -175 q 424 -188 443 -181 q 369 -196 404 -196 z "},"Å":{"ha":533,"x_min":-39,"x_max":478,"o":"m -39 0 l 238 821 l 424 821 l 465 0 l 317 0 l 310 167 l 158 167 l 103 0 l -39 0 m 169 235 l 315 235 l 308 692 l 169 235 m 339 858 q 260 890 289 858 q 239 967 232 922 q 282 1046 244 1014 q 369 1078 319 1078 q 449 1046 421 1078 q 471 967 478 1014 q 426 890 465 922 q 339 858 386 858 m 347 914 q 391 929 372 914 q 413 967 410 944 q 401 1008 415 993 q 363 1024 388 1024 q 318 1008 336 1024 q 297 967 300 993 q 308 929 294 944 q 347 914 321 914 z "},"Ã":{"ha":533,"x_min":-39,"x_max":511,"o":"m -39 0 l 238 821 l 424 821 l 465 0 l 317 0 l 310 167 l 158 167 l 103 0 l -39 0 m 169 235 l 315 235 l 308 692 l 169 235 m 404 886 q 369 893 385 886 q 338 913 354 900 q 311 928 325 921 q 281 936 297 936 q 250 924 263 936 q 232 888 238 911 l 189 888 q 224 967 197 936 q 290 999 251 999 q 328 991 311 999 q 361 972 344 983 q 388 958 375 964 q 415 951 400 951 q 447 963 435 951 q 465 996 458 975 l 510 996 q 470 915 501 943 q 404 886 439 886 z "},"B":{"ha":567,"x_min":21,"x_max":561,"o":"m 21 0 l 136 821 l 413 821 q 524 786 488 821 q 551 683 561 751 l 539 588 q 518 520 533 550 q 481 471 503 490 q 434 446 460 453 q 389 438 408 439 l 388 438 q 436 432 413 438 q 476 410 460 426 q 503 360 494 390 q 506 285 513 329 l 490 171 q 453 65 481 101 q 382 14 425 28 q 282 0 339 0 l 21 0 m 164 71 l 263 71 q 306 79 288 71 q 338 111 325 88 q 357 179 351 135 l 372 283 q 359 360 382 342 q 297 379 336 379 l 207 379 l 164 71 m 219 465 l 308 465 q 374 490 349 465 q 408 572 400 515 l 421 660 q 410 726 428 706 q 363 747 393 747 l 258 747 l 219 465 z "},"Б":{"ha":538,"x_min":21,"x_max":528,"o":"m 21 0 l 138 821 l 528 821 l 514 726 l 254 726 l 238 606 l 367 606 q 451 590 417 606 q 499 538 485 574 q 504 438 513 501 l 472 211 q 445 105 463 146 q 402 41 428 64 q 342 9 376 18 q 263 0 307 0 l 21 0 m 244 71 q 296 83 278 71 q 324 119 314 96 q 336 174 333 143 l 371 422 q 374 474 376 451 q 356 510 371 497 q 306 524 342 524 l 225 524 l 163 71 l 244 71 z "},"C":{"ha":554,"x_min":26,"x_max":554,"o":"m 231 -17 q 117 -1 165 -17 q 48 62 69 14 q 39 206 26 110 l 103 649 q 147 763 113 724 q 233 818 181 803 q 351 833 286 833 q 465 817 418 833 q 533 762 511 801 q 544 649 554 722 l 522 488 l 389 488 l 413 653 q 410 716 418 696 q 383 743 401 736 q 340 750 365 750 q 293 743 314 750 q 259 716 272 736 q 239 653 246 696 l 171 160 q 173 97 165 118 q 199 69 181 76 q 243 63 218 63 q 288 69 268 63 q 323 97 308 76 q 343 160 338 118 l 364 307 l 496 307 l 482 207 q 435 61 468 108 q 350 -1 401 14 q 231 -17 299 -17 z "},"Ć":{"ha":554,"x_min":26,"x_max":554,"o":"m 231 -17 q 117 -1 165 -17 q 48 62 69 14 q 39 206 26 110 l 103 649 q 147 763 113 724 q 233 818 181 803 q 351 833 286 833 q 465 817 418 833 q 533 762 511 801 q 544 649 554 722 l 522 488 l 389 488 l 413 653 q 410 716 418 696 q 383 743 401 736 q 340 750 365 750 q 293 743 314 750 q 259 716 272 736 q 239 653 246 696 l 171 160 q 173 97 165 118 q 199 69 181 76 q 243 63 218 63 q 288 69 268 63 q 323 97 308 76 q 343 160 338 118 l 364 307 l 496 307 l 482 207 q 435 61 468 108 q 350 -1 401 14 q 231 -17 299 -17 m 258 881 l 385 1006 l 508 1006 l 335 881 l 258 881 z "},"Č":{"ha":554,"x_min":26,"x_max":554,"o":"m 231 -17 q 117 -1 165 -17 q 48 62 69 14 q 39 206 26 110 l 103 649 q 147 763 113 724 q 233 818 181 803 q 351 833 286 833 q 465 817 418 833 q 533 762 511 801 q 544 649 554 722 l 522 488 l 389 488 l 413 653 q 410 716 418 696 q 383 743 401 736 q 340 750 365 750 q 293 743 314 750 q 259 716 272 736 q 239 653 246 696 l 171 160 q 173 97 165 118 q 199 69 181 76 q 243 63 218 63 q 288 69 268 63 q 323 97 308 76 q 343 160 338 118 l 364 307 l 496 307 l 482 207 q 435 61 468 108 q 350 -1 401 14 q 231 -17 299 -17 m 311 875 l 201 1008 l 288 1008 l 361 935 l 456 1008 l 539 1008 l 389 875 l 311 875 z "},"Ç":{"ha":554,"x_min":26,"x_max":554,"o":"m 231 -17 q 117 -1 165 -17 q 48 62 69 14 q 39 206 26 110 l 103 649 q 147 763 113 724 q 233 818 181 803 q 351 833 286 833 q 465 817 418 833 q 533 762 511 801 q 544 649 554 722 l 522 488 l 389 488 l 413 653 q 410 716 418 696 q 383 743 401 736 q 340 750 365 750 q 293 743 314 750 q 259 716 272 736 q 239 653 246 696 l 171 160 q 173 97 165 118 q 199 69 181 76 q 243 63 218 63 q 288 69 268 63 q 323 97 308 76 q 343 160 338 118 l 364 307 l 496 307 l 482 207 q 435 61 468 108 q 350 -1 401 14 q 231 -17 299 -17 m 190 -211 q 146 -202 165 -211 q 117 -187 126 -193 l 142 -144 q 164 -156 149 -150 q 192 -162 179 -162 q 230 -151 217 -162 q 244 -124 243 -140 q 214 -90 250 -90 q 196 -94 204 -90 q 181 -101 188 -97 l 147 -81 l 201 0 l 254 0 l 207 -67 l 200 -64 q 223 -54 210 -57 q 251 -51 236 -51 q 306 -74 289 -51 q 319 -124 322 -97 q 280 -186 314 -161 q 190 -211 246 -211 z "},"Ċ":{"ha":554,"x_min":26,"x_max":554,"o":"m 231 -17 q 117 -1 165 -17 q 48 62 69 14 q 39 206 26 110 l 103 649 q 147 763 113 724 q 233 818 181 803 q 351 833 286 833 q 465 817 418 833 q 533 762 511 801 q 544 649 554 722 l 522 488 l 389 488 l 413 653 q 410 716 418 696 q 383 743 401 736 q 340 750 365 750 q 293 743 314 750 q 259 716 272 736 q 239 653 246 696 l 171 160 q 173 97 165 118 q 199 69 181 76 q 243 63 218 63 q 288 69 268 63 q 323 97 308 76 q 343 160 338 118 l 364 307 l 496 307 l 482 207 q 435 61 468 108 q 350 -1 401 14 q 231 -17 299 -17 m 375 881 q 326 901 347 881 q 306 949 306 921 q 326 997 306 978 q 376 1017 347 1017 q 426 997 406 1017 q 447 949 447 978 q 427 901 449 921 q 375 881 406 881 z "},"Ч":{"ha":539,"x_min":42,"x_max":536,"o":"m 286 0 l 319 228 q 263 200 301 214 q 185 186 225 186 q 84 209 115 186 q 47 274 53 232 q 49 371 42 315 l 113 821 l 243 821 l 179 371 q 186 301 174 325 q 244 276 199 276 q 301 287 281 276 q 329 303 321 297 l 403 821 l 536 821 l 419 0 l 286 0 z "},"D":{"ha":571,"x_min":21,"x_max":565,"o":"m 21 0 l 138 821 l 410 821 q 501 804 465 821 q 551 753 536 788 q 557 663 565 718 l 489 176 q 451 69 481 108 q 377 15 422 31 q 275 0 332 0 l 21 0 m 169 71 l 265 71 q 324 91 300 71 q 356 167 347 111 l 422 647 q 412 724 431 703 q 358 744 393 744 l 263 744 l 169 71 z "},"Ď":{"ha":571,"x_min":21,"x_max":565,"o":"m 21 0 l 138 821 l 410 821 q 501 804 465 821 q 551 753 536 788 q 557 663 565 718 l 489 176 q 451 69 481 108 q 377 15 422 31 q 275 0 332 0 l 21 0 m 169 71 l 265 71 q 324 91 300 71 q 356 167 347 111 l 422 647 q 412 724 431 703 q 358 744 393 744 l 263 744 l 169 71 m 319 875 l 210 1008 l 296 1008 l 369 935 l 464 1008 l 547 1008 l 397 875 l 319 875 z "},"Đ":{"ha":614,"x_min":14,"x_max":594,"o":"m 33 0 l 150 821 l 438 821 q 528 804 493 821 q 579 753 564 788 q 585 663 594 718 l 518 176 q 479 69 508 108 q 406 15 450 31 q 303 0 361 0 l 33 0 m 14 363 l 25 442 l 299 442 l 288 363 l 14 363 m 182 71 l 283 71 q 351 91 326 71 q 383 167 375 111 l 451 647 q 440 724 458 703 q 378 744 421 744 l 275 744 l 182 71 z "},"Д":{"ha":790,"x_min":-43,"x_max":724,"o":"m -43 -154 l -8 85 l 64 85 q 117 117 92 88 q 156 203 143 147 q 185 324 169 258 q 217 458 201 389 q 248 593 233 526 q 274 718 263 660 q 294 821 286 776 l 694 821 l 592 85 l 724 85 l 689 -154 l 578 -154 l 597 -24 l 86 -24 l 68 -154 l -43 -154 m 233 85 l 460 85 l 549 726 l 406 726 l 296 218 q 272 142 286 182 q 233 85 258 103 z "},"Δ":{"ha":756,"x_min":15,"x_max":678,"o":"m 15 0 l 343 813 l 481 813 l 678 0 l 15 0 m 185 103 l 525 103 l 386 651 l 185 103 z "},"Ђ":{"ha":633,"x_min":68,"x_max":604,"o":"m 101 0 l 204 726 l 68 726 l 81 821 l 488 821 l 474 726 l 338 726 l 307 515 q 363 560 324 539 q 458 581 403 581 q 546 564 513 581 q 592 510 579 547 q 596 411 604 472 l 571 231 q 539 105 560 151 q 490 35 518 58 q 426 6 461 13 q 350 0 392 0 q 322 3 338 0 q 297 10 306 7 l 307 72 q 320 71 313 71 q 335 71 328 71 q 403 101 379 71 q 435 196 426 132 l 463 401 q 456 474 469 450 q 392 499 443 499 q 330 481 353 499 q 297 444 307 464 l 235 0 l 101 0 z "},"Ѕ":{"ha":535,"x_min":13,"x_max":538,"o":"m 228 -10 q 100 11 150 -10 q 31 85 50 32 q 26 233 13 138 l 33 281 l 169 281 l 161 222 q 160 132 154 164 q 184 88 165 100 q 231 76 203 76 q 295 103 267 76 q 335 206 324 131 q 329 289 343 261 q 283 334 315 317 q 197 374 250 351 q 124 422 153 394 q 85 493 96 450 q 82 600 74 536 q 122 727 94 678 q 201 799 150 776 q 333 822 251 822 q 488 774 439 822 q 525 635 538 726 l 511 539 q 446 539 479 539 q 379 539 413 539 l 388 596 q 381 688 397 660 q 321 717 365 717 q 251 690 275 717 q 219 604 228 663 q 226 531 213 558 q 267 488 239 504 q 333 457 296 472 q 427 408 392 433 q 475 342 463 383 q 476 224 488 300 q 428 85 464 136 q 340 13 392 35 q 228 -10 289 -10 z "},"Џ":{"ha":574,"x_min":21,"x_max":571,"o":"m 176 -137 l 194 0 l 21 0 l 136 821 l 275 821 l 174 94 l 332 94 l 433 821 l 571 821 l 456 0 l 281 0 l 263 -137 l 176 -137 z "},"E":{"ha":469,"x_min":21,"x_max":507,"o":"m 21 0 l 138 821 l 507 821 l 492 726 l 261 726 l 226 478 l 418 478 l 403 374 l 211 374 l 174 92 l 404 92 l 390 0 l 21 0 z "},"É":{"ha":469,"x_min":21,"x_max":507,"o":"m 21 0 l 138 821 l 507 821 l 492 726 l 261 726 l 226 478 l 418 478 l 403 374 l 211 374 l 174 92 l 404 92 l 390 0 l 21 0 m 233 881 l 360 1006 l 483 1006 l 310 881 l 233 881 z "},"Ě":{"ha":469,"x_min":21,"x_max":514,"o":"m 21 0 l 138 821 l 507 821 l 492 726 l 261 726 l 226 478 l 418 478 l 403 374 l 211 374 l 174 92 l 404 92 l 390 0 l 21 0 m 285 875 l 175 1008 l 261 1008 l 335 935 l 429 1008 l 513 1008 l 363 875 l 285 875 z "},"Ê":{"ha":469,"x_min":21,"x_max":507,"o":"m 21 0 l 138 821 l 507 821 l 492 726 l 261 726 l 226 478 l 418 478 l 403 374 l 211 374 l 174 92 l 404 92 l 390 0 l 21 0 m 158 875 l 307 1008 l 385 1008 l 496 876 l 413 876 l 338 949 l 243 875 l 158 875 z "},"Ế":{"ha":469,"x_min":21,"x_max":638,"o":"m 21 0 l 138 821 l 507 821 l 492 726 l 261 726 l 226 478 l 418 478 l 403 374 l 211 374 l 174 92 l 404 92 l 390 0 l 21 0 m 196 869 l 306 976 l 376 976 l 456 869 l 379 869 l 335 921 l 275 869 l 196 869 m 450 933 l 514 1033 l 638 1033 l 532 933 l 450 933 z "},"Ệ":{"ha":469,"x_min":21,"x_max":507,"o":"m 21 0 l 138 821 l 507 821 l 492 726 l 261 726 l 226 478 l 418 478 l 403 374 l 211 374 l 174 92 l 404 92 l 390 0 l 21 0 m 171 -168 q 130 -151 147 -168 q 113 -111 113 -135 q 130 -72 113 -87 q 171 -57 147 -57 q 213 -72 196 -57 q 229 -111 229 -87 q 213 -151 229 -135 q 171 -168 196 -168 m 158 875 l 307 1008 l 385 1008 l 496 876 l 413 876 l 338 949 l 243 875 l 158 875 z "},"Ề":{"ha":469,"x_min":21,"x_max":561,"o":"m 21 0 l 138 821 l 507 821 l 492 726 l 261 726 l 226 478 l 418 478 l 403 374 l 211 374 l 174 92 l 404 92 l 390 0 l 21 0 m 196 869 l 306 976 l 376 976 l 456 869 l 379 869 l 335 921 l 275 869 l 196 869 m 479 933 l 396 1033 l 519 1033 l 561 933 l 479 933 z "},"Ể":{"ha":469,"x_min":21,"x_max":599,"o":"m 21 0 l 138 821 l 507 821 l 492 726 l 261 726 l 226 478 l 418 478 l 403 374 l 211 374 l 174 92 l 404 92 l 390 0 l 21 0 m 196 869 l 306 976 l 376 976 l 456 869 l 379 869 l 335 921 l 275 869 l 196 869 m 475 922 l 479 944 q 491 965 482 958 q 510 976 500 971 q 521 992 519 981 l 522 1003 q 522 1015 524 1008 q 511 1022 521 1022 q 494 1001 499 1022 l 438 1010 q 465 1053 444 1039 q 524 1067 486 1067 q 581 1049 564 1067 q 594 1000 599 1032 l 594 994 q 585 965 592 974 q 569 955 578 957 q 555 951 561 953 q 547 938 549 949 l 546 922 l 475 922 z "},"Ễ":{"ha":469,"x_min":21,"x_max":507,"o":"m 21 0 l 138 821 l 507 821 l 492 726 l 261 726 l 226 478 l 418 478 l 403 374 l 211 374 l 174 92 l 404 92 l 390 0 l 21 0 m 196 869 l 306 976 l 376 976 l 456 869 l 379 869 l 335 921 l 275 869 l 196 869 m 389 997 q 361 1003 374 997 q 336 1018 349 1010 q 316 1028 326 1024 q 293 1033 306 1033 q 273 1024 281 1033 q 261 999 265 1014 l 225 999 q 252 1068 231 1043 q 303 1093 274 1093 q 331 1088 318 1093 q 357 1075 344 1082 q 379 1065 369 1069 q 399 1060 389 1060 q 421 1068 413 1060 q 433 1089 429 1076 l 474 1089 q 454 1040 468 1060 q 422 1008 440 1019 q 389 997 404 997 z "},"Ë":{"ha":469,"x_min":21,"x_max":507,"o":"m 21 0 l 138 821 l 507 821 l 492 726 l 261 726 l 226 478 l 418 478 l 403 374 l 211 374 l 174 92 l 404 92 l 390 0 l 21 0 m 258 888 q 217 904 233 888 q 200 944 200 921 q 217 983 200 968 q 258 999 233 999 q 299 983 283 999 q 315 944 315 968 q 299 904 315 921 q 258 888 283 888 m 413 888 q 372 904 389 888 q 354 944 354 921 q 372 983 354 968 q 413 999 389 999 q 454 983 438 999 q 471 944 471 968 q 454 904 471 921 q 413 888 438 888 z "},"Ė":{"ha":469,"x_min":21,"x_max":507,"o":"m 21 0 l 138 821 l 507 821 l 492 726 l 261 726 l 226 478 l 418 478 l 403 374 l 211 374 l 174 92 l 404 92 l 390 0 l 21 0 m 349 881 q 300 901 321 881 q 279 949 279 921 q 300 997 279 978 q 350 1017 321 1017 q 400 997 379 1017 q 421 949 421 978 q 401 901 422 921 q 349 881 379 881 z "},"Ẹ":{"ha":469,"x_min":21,"x_max":507,"o":"m 21 0 l 138 821 l 507 821 l 492 726 l 261 726 l 226 478 l 418 478 l 403 374 l 211 374 l 174 92 l 404 92 l 390 0 l 21 0 m 171 -168 q 130 -151 147 -168 q 113 -111 113 -135 q 130 -72 113 -87 q 171 -57 147 -57 q 213 -72 196 -57 q 229 -111 229 -87 q 213 -151 229 -135 q 171 -168 196 -168 z "},"Ф":{"ha":711,"x_min":24,"x_max":706,"o":"m 238 -29 l 256 94 l 214 94 q 69 136 115 94 q 38 278 24 178 l 76 553 q 138 675 88 632 q 283 718 188 718 l 343 718 l 358 821 l 489 821 l 474 718 l 532 718 q 666 677 626 718 q 694 550 706 636 l 656 279 q 583 134 642 174 q 426 94 525 94 l 388 94 l 369 -29 l 238 -29 m 243 165 l 265 165 l 333 642 l 311 642 q 242 617 268 642 q 207 538 215 593 l 169 269 q 181 190 161 214 q 243 165 200 165 m 415 165 q 487 188 460 165 q 521 269 514 210 l 558 536 q 547 619 568 596 q 482 642 526 642 l 464 642 l 396 165 l 415 165 z "},"È":{"ha":469,"x_min":21,"x_max":507,"o":"m 21 0 l 138 821 l 507 821 l 492 726 l 261 726 l 226 478 l 418 478 l 403 374 l 211 374 l 174 92 l 404 92 l 390 0 l 21 0 m 313 881 l 165 1001 l 290 1001 l 397 881 l 313 881 z "},"Ẻ":{"ha":469,"x_min":21,"x_max":507,"o":"m 21 0 l 138 821 l 507 821 l 492 726 l 261 726 l 226 478 l 418 478 l 403 374 l 211 374 l 174 92 l 404 92 l 390 0 l 21 0 m 289 857 l 292 888 q 310 916 294 908 q 339 931 325 924 q 354 957 353 939 l 357 968 q 353 992 358 982 q 332 1003 349 1003 q 299 972 307 1003 l 239 982 q 274 1035 249 1017 q 344 1053 300 1053 q 416 1030 394 1053 q 432 964 438 1007 l 431 960 q 417 919 428 931 q 394 904 407 908 q 372 896 382 900 q 361 879 363 892 l 360 857 l 289 857 z "},"Л":{"ha":618,"x_min":-42,"x_max":615,"o":"m -42 0 l -31 69 q 20 99 -4 69 q 56 175 44 128 l 192 821 l 615 821 l 499 0 l 365 0 l 468 726 l 308 726 l 183 139 q 171 94 178 118 q 150 49 164 69 q 110 15 136 28 q 42 0 85 1 l -42 0 z "},"М":{"ha":742,"x_min":21,"x_max":740,"o":"m 21 0 l 138 821 l 301 821 l 356 238 l 578 821 l 740 821 l 624 0 l 506 0 l 594 633 l 368 0 l 276 0 l 228 633 l 139 0 l 21 0 z "},"Ē":{"ha":469,"x_min":21,"x_max":507,"o":"m 21 0 l 138 821 l 507 821 l 492 726 l 261 726 l 226 478 l 418 478 l 403 374 l 211 374 l 174 92 l 404 92 l 390 0 l 21 0 m 192 901 l 201 968 l 476 968 l 467 901 l 192 901 z "},"Н":{"ha":581,"x_min":21,"x_max":578,"o":"m 21 0 l 138 821 l 269 821 l 221 476 l 396 476 l 446 821 l 578 821 l 461 0 l 329 0 l 382 376 l 207 376 l 153 0 l 21 0 z "},"Ŋ":{"ha":578,"x_min":21,"x_max":575,"o":"m 249 -251 q 219 -251 238 -251 q 188 -250 200 -251 l 200 -157 l 243 -158 q 304 -143 286 -158 q 329 -82 322 -128 l 342 3 l 214 524 l 139 0 l 21 0 l 138 821 l 253 821 l 379 268 l 457 821 l 575 821 l 450 -56 q 419 -174 440 -132 q 357 -234 397 -217 q 249 -251 317 -251 z "},"Ę":{"ha":469,"x_min":21,"x_max":507,"o":"m 21 0 l 138 821 l 507 821 l 492 726 l 261 726 l 226 478 l 418 478 l 403 374 l 211 374 l 174 92 l 404 92 l 390 0 l 21 0 m 299 -182 q 225 -156 251 -182 q 203 -96 199 -131 q 244 -25 210 -57 q 322 15 278 7 l 378 14 q 317 -26 339 0 q 292 -78 296 -53 q 304 -118 289 -104 q 338 -132 319 -132 q 358 -129 349 -132 q 369 -125 367 -126 l 382 -161 q 353 -174 372 -167 q 299 -182 333 -182 z "},"Р":{"ha":542,"x_min":21,"x_max":567,"o":"m 21 0 l 138 821 l 415 821 q 530 786 493 821 q 557 683 567 751 l 538 538 q 509 440 529 485 q 449 367 489 394 q 339 339 408 339 l 207 339 l 160 0 l 21 0 m 218 414 l 303 414 q 371 447 344 414 q 407 553 397 479 l 417 626 q 412 719 426 692 q 367 747 397 747 l 264 747 l 218 414 z "},"Э":{"ha":556,"x_min":19,"x_max":550,"o":"m 222 -17 q 108 -1 156 -17 q 40 61 61 14 q 32 207 19 108 l 42 268 l 175 268 l 160 160 q 163 99 154 119 q 190 71 171 78 q 233 64 208 64 q 279 71 260 64 q 313 99 299 78 q 333 160 328 119 l 361 358 l 165 358 l 178 449 l 374 449 l 401 650 q 400 711 408 690 q 374 739 392 732 q 329 746 356 746 q 284 740 304 746 q 249 713 264 733 q 229 653 235 693 l 211 522 l 78 522 l 94 647 q 138 761 106 721 q 223 817 171 801 q 340 833 275 833 q 456 817 407 833 q 527 762 504 801 q 539 647 550 722 l 478 207 q 428 62 464 110 q 341 -1 393 14 q 222 -17 289 -17 z "},"С":{"ha":554,"x_min":26,"x_max":554,"o":"m 231 -17 q 117 -1 165 -17 q 48 62 69 14 q 39 206 26 110 l 103 649 q 147 763 113 724 q 233 818 181 803 q 351 833 286 833 q 465 817 418 833 q 533 762 511 801 q 544 649 554 722 l 522 488 l 389 488 l 413 653 q 410 716 418 696 q 383 743 401 736 q 340 750 365 750 q 293 743 314 750 q 259 716 272 736 q 239 653 246 696 l 171 160 q 173 97 165 118 q 199 69 181 76 q 243 63 218 63 q 288 69 268 63 q 323 97 308 76 q 343 160 338 118 l 364 307 l 496 307 l 482 207 q 435 61 468 108 q 350 -1 401 14 q 231 -17 299 -17 z "},"Ð":{"ha":614,"x_min":14,"x_max":594,"o":"m 33 0 l 150 821 l 438 821 q 528 804 493 821 q 579 753 564 788 q 585 663 594 718 l 518 176 q 479 69 508 108 q 406 15 450 31 q 303 0 361 0 l 33 0 m 14 363 l 25 442 l 299 442 l 288 363 l 14 363 m 182 71 l 283 71 q 351 91 326 71 q 383 167 375 111 l 451 647 q 440 724 458 703 q 378 744 421 744 l 275 744 l 182 71 z "},"Ẽ":{"ha":469,"x_min":21,"x_max":507,"o":"m 21 0 l 138 821 l 507 821 l 492 726 l 261 726 l 226 478 l 418 478 l 403 374 l 211 374 l 174 92 l 404 92 l 390 0 l 21 0 m 389 886 q 354 893 369 886 q 322 913 339 900 q 296 928 310 921 q 265 936 282 936 q 235 924 247 936 q 217 888 222 911 l 174 888 q 209 967 182 936 q 275 999 236 999 q 313 991 296 999 q 346 972 329 983 q 372 958 360 964 q 400 951 385 951 q 431 963 419 951 q 450 996 443 975 l 494 996 q 455 915 486 943 q 389 886 424 886 z "},"F":{"ha":461,"x_min":21,"x_max":507,"o":"m 21 0 l 138 821 l 507 821 l 492 726 l 261 726 l 226 478 l 418 478 l 403 374 l 211 374 l 160 0 l 21 0 z "},"G":{"ha":556,"x_min":25,"x_max":554,"o":"m 190 -15 q 103 -1 143 -15 q 44 58 64 14 q 36 189 25 101 l 101 647 q 144 762 111 722 q 230 816 178 801 q 347 831 282 831 q 460 815 413 831 q 531 760 508 800 q 543 647 554 721 l 528 536 l 399 536 l 415 653 q 413 715 421 694 q 385 743 404 736 q 339 750 365 750 q 290 743 311 750 q 254 715 268 736 q 233 653 240 694 l 165 160 q 167 97 160 118 q 195 69 175 76 q 242 63 215 63 q 310 87 282 63 q 346 160 339 111 l 369 326 l 288 326 l 297 403 l 508 403 l 453 0 l 353 0 l 357 69 q 347 58 351 64 q 339 47 343 51 q 283 3 318 22 q 190 -15 247 -15 z "},"Ğ":{"ha":556,"x_min":25,"x_max":554,"o":"m 190 -15 q 103 -1 143 -15 q 44 58 64 14 q 36 189 25 101 l 101 647 q 144 762 111 722 q 230 816 178 801 q 347 831 282 831 q 460 815 413 831 q 531 760 508 800 q 543 647 554 721 l 528 536 l 399 536 l 415 653 q 413 715 421 694 q 385 743 404 736 q 339 750 365 750 q 290 743 311 750 q 254 715 268 736 q 233 653 240 694 l 165 160 q 167 97 160 118 q 195 69 175 76 q 242 63 215 63 q 310 87 282 63 q 346 160 339 111 l 369 326 l 288 326 l 297 403 l 508 403 l 453 0 l 353 0 l 357 69 q 347 58 351 64 q 339 47 343 51 q 283 3 318 22 q 190 -15 247 -15 m 350 874 q 278 887 306 874 q 239 921 251 900 q 223 965 226 942 q 222 1007 219 988 l 294 1007 q 313 955 293 972 q 361 938 332 938 q 416 954 392 938 q 447 1007 440 971 l 521 1007 q 496 943 515 974 q 441 893 476 913 q 350 874 406 874 z "},"Ģ":{"ha":556,"x_min":25,"x_max":554,"o":"m 190 -15 q 103 -1 143 -15 q 44 58 64 14 q 36 189 25 101 l 101 647 q 144 762 111 722 q 230 816 178 801 q 347 831 282 831 q 460 815 413 831 q 531 760 508 800 q 543 647 554 721 l 528 536 l 399 536 l 415 653 q 413 715 421 694 q 385 743 404 736 q 339 750 365 750 q 290 743 311 750 q 254 715 268 736 q 233 653 240 694 l 165 160 q 167 97 160 118 q 195 69 175 76 q 242 63 215 63 q 310 87 282 63 q 346 160 339 111 l 369 326 l 288 326 l 297 403 l 508 403 l 453 0 l 353 0 l 357 69 q 347 58 351 64 q 339 47 343 51 q 283 3 318 22 q 190 -15 247 -15 m 128 -244 q 168 -188 154 -212 q 182 -151 182 -164 q 176 -135 183 -142 q 163 -119 169 -129 q 157 -94 156 -110 q 176 -62 158 -78 q 219 -47 194 -47 q 263 -62 247 -47 q 275 -100 278 -76 q 259 -144 274 -118 q 224 -197 244 -171 q 182 -244 203 -224 l 128 -244 z "},"Ġ":{"ha":556,"x_min":25,"x_max":554,"o":"m 190 -15 q 103 -1 143 -15 q 44 58 64 14 q 36 189 25 101 l 101 647 q 144 762 111 722 q 230 816 178 801 q 347 831 282 831 q 460 815 413 831 q 531 760 508 800 q 543 647 554 721 l 528 536 l 399 536 l 415 653 q 413 715 421 694 q 385 743 404 736 q 339 750 365 750 q 290 743 311 750 q 254 715 268 736 q 233 653 240 694 l 165 160 q 167 97 160 118 q 195 69 175 76 q 242 63 215 63 q 310 87 282 63 q 346 160 339 111 l 369 326 l 288 326 l 297 403 l 508 403 l 453 0 l 353 0 l 357 69 q 347 58 351 64 q 339 47 343 51 q 283 3 318 22 q 190 -15 247 -15 m 376 881 q 328 901 349 881 q 307 949 307 921 q 328 997 307 978 q 378 1017 349 1017 q 428 997 407 1017 q 449 949 449 978 q 428 901 450 921 q 376 881 407 881 z "},"Г":{"ha":469,"x_min":21,"x_max":508,"o":"m 21 0 l 138 821 l 508 821 l 494 726 l 261 726 l 160 0 l 21 0 z "},"ẞ":{"ha":1094,"x_min":25,"x_max":1068,"o":"m 740 -10 q 625 11 671 -10 q 560 85 579 32 q 556 233 542 138 q 558 258 556 239 q 563 281 561 276 l 700 281 q 696 251 699 271 q 692 222 693 232 q 690 132 683 164 q 713 88 696 100 q 756 76 731 76 q 825 103 796 76 q 864 206 854 131 q 859 289 872 261 q 813 334 846 317 q 728 374 779 351 q 654 422 683 394 q 615 493 625 450 q 613 600 604 536 q 651 727 624 678 q 731 799 679 776 q 864 822 782 822 q 1019 774 969 822 q 1054 635 1068 726 l 1042 539 q 976 539 1008 539 q 910 539 943 539 l 918 596 q 912 688 928 660 q 850 717 896 717 q 781 690 804 717 q 749 604 758 663 q 758 527 742 554 q 802 485 774 500 q 864 457 831 469 q 958 408 922 433 q 1005 342 993 383 q 1006 224 1017 300 q 915 42 988 93 q 740 -10 843 -10 m 222 -10 q 108 11 153 -10 q 44 85 63 32 q 38 233 25 138 q 41 258 39 239 q 44 281 43 276 l 183 281 q 179 251 182 271 q 175 222 176 232 q 172 132 167 164 q 196 88 178 100 q 239 76 214 76 q 308 103 279 76 q 347 206 336 131 q 342 289 356 261 q 295 334 328 317 q 211 374 263 351 q 137 422 165 394 q 97 493 108 450 q 94 600 86 536 q 134 727 106 678 q 213 799 163 776 q 346 822 264 822 q 501 774 451 822 q 538 635 551 726 l 525 539 q 458 539 490 539 q 392 539 425 539 l 400 596 q 394 688 410 660 q 333 717 378 717 q 263 690 286 717 q 232 604 240 663 q 240 527 225 554 q 284 485 256 500 q 346 457 313 469 q 440 408 404 433 q 488 342 475 383 q 489 224 500 300 q 399 42 471 93 q 222 -10 326 -10 z "},"Ѓ":{"ha":469,"x_min":21,"x_max":508,"o":"m 21 0 l 138 821 l 508 821 l 494 726 l 261 726 l 160 0 l 21 0 m 240 881 l 367 1006 l 490 1006 l 317 881 l 240 881 z "},"H":{"ha":581,"x_min":21,"x_max":578,"o":"m 21 0 l 138 821 l 269 821 l 221 476 l 396 476 l 446 821 l 578 821 l 461 0 l 329 0 l 382 376 l 207 376 l 153 0 l 21 0 z "},"Х":{"ha":485,"x_min":-32,"x_max":533,"o":"m -32 0 l 153 421 l 93 821 l 225 821 l 265 519 l 394 821 l 533 821 l 354 419 l 414 0 l 281 0 l 236 301 l 108 0 l -32 0 z "},"Ъ":{"ha":564,"x_min":33,"x_max":526,"o":"m 33 0 l 136 726 l 54 726 l 68 821 l 282 821 l 251 606 l 379 606 q 463 590 429 606 q 512 538 497 574 q 517 438 526 501 l 485 211 q 458 105 475 146 q 415 41 442 64 q 354 9 389 18 q 276 0 319 0 l 33 0 m 175 71 l 258 71 q 310 85 292 71 q 338 132 328 100 q 356 215 349 164 q 369 311 361 258 q 382 407 376 364 q 387 468 388 443 q 372 508 386 493 q 319 524 357 524 l 239 524 q 208 297 224 411 q 175 71 192 182 z "},"Ħ":{"ha":579,"x_min":21,"x_max":599,"o":"m 36 653 l 51 715 l 599 715 l 583 653 l 36 653 m 21 0 l 138 821 l 269 821 l 221 476 l 396 476 l 446 821 l 578 821 l 461 0 l 329 0 l 382 376 l 207 376 l 153 0 l 21 0 z "},"I":{"ha":272,"x_min":21,"x_max":269,"o":"m 21 0 l 138 821 l 269 821 l 153 0 l 21 0 z "},"І":{"ha":272,"x_min":21,"x_max":269,"o":"m 21 0 l 138 821 l 269 821 l 153 0 l 21 0 z "},"Я":{"ha":574,"x_min":-26,"x_max":569,"o":"m 456 0 l 318 0 l 368 361 l 300 361 q 267 349 282 361 q 242 318 253 338 q 224 274 232 299 l 119 0 l -26 0 l 93 283 q 141 365 117 339 q 213 396 165 392 l 214 396 q 108 442 140 400 q 86 553 76 485 l 106 683 q 161 786 114 751 q 286 821 208 821 l 569 821 l 456 0 m 381 454 l 422 747 l 317 747 q 263 727 286 747 q 233 660 239 707 l 218 556 q 230 477 210 500 q 292 454 250 454 l 381 454 z "},"Í":{"ha":272,"x_min":21,"x_max":369,"o":"m 21 0 l 138 821 l 269 821 l 153 0 l 21 0 m 118 881 l 244 1006 l 368 1006 l 194 881 l 118 881 z "},"Ǐ":{"ha":272,"x_min":21,"x_max":399,"o":"m 21 0 l 138 821 l 269 821 l 153 0 l 21 0 m 171 875 l 61 1008 l 147 1008 l 221 935 l 315 1008 l 399 1008 l 249 875 l 171 875 z "},"Î":{"ha":272,"x_min":21,"x_max":381,"o":"m 21 0 l 138 821 l 269 821 l 153 0 l 21 0 m 43 875 l 192 1008 l 269 1008 l 381 876 l 297 876 l 222 949 l 128 875 l 43 875 z "},"Ï":{"ha":272,"x_min":21,"x_max":356,"o":"m 21 0 l 138 821 l 269 821 l 153 0 l 21 0 m 143 888 q 101 904 118 888 q 85 944 85 921 q 101 983 85 968 q 143 999 118 999 q 184 983 168 999 q 200 944 200 968 q 184 904 200 921 q 143 888 168 888 m 297 888 q 256 904 274 888 q 239 944 239 921 q 256 983 239 968 q 297 999 274 999 q 339 983 322 999 q 356 944 356 968 q 339 904 356 921 q 297 888 322 888 z "},"İ":{"ha":272,"x_min":21,"x_max":307,"o":"m 21 0 l 138 821 l 269 821 l 153 0 l 21 0 m 235 881 q 186 901 207 881 q 165 949 165 921 q 186 997 165 978 q 236 1017 207 1017 q 286 997 265 1017 q 307 949 307 978 q 287 901 308 921 q 235 881 265 881 z "},"Ị":{"ha":272,"x_min":14,"x_max":269,"o":"m 21 0 l 138 821 l 269 821 l 153 0 l 21 0 m 72 -168 q 31 -151 49 -168 q 14 -111 14 -135 q 31 -72 14 -87 q 72 -57 49 -57 q 114 -72 97 -57 q 131 -111 131 -87 q 114 -151 131 -135 q 72 -168 97 -168 z "},"Е":{"ha":469,"x_min":21,"x_max":507,"o":"m 21 0 l 138 821 l 507 821 l 492 726 l 261 726 l 226 478 l 418 478 l 403 374 l 211 374 l 174 92 l 404 92 l 390 0 l 21 0 z "},"Ѐ":{"ha":469,"x_min":21,"x_max":507,"o":"m 21 0 l 138 821 l 507 821 l 492 726 l 261 726 l 226 478 l 418 478 l 403 374 l 211 374 l 174 92 l 404 92 l 390 0 l 21 0 m 314 881 l 167 1001 l 292 1001 l 399 881 l 314 881 z "},"Ì":{"ha":272,"x_min":21,"x_max":283,"o":"m 21 0 l 138 821 l 269 821 l 153 0 l 21 0 m 197 881 l 50 1001 l 175 1001 l 282 881 l 197 881 z "},"Ỉ":{"ha":272,"x_min":21,"x_max":324,"o":"m 21 0 l 138 821 l 269 821 l 153 0 l 21 0 m 175 857 l 178 888 q 196 916 181 908 q 225 931 211 924 q 240 957 239 939 l 243 968 q 240 992 244 982 q 218 1003 235 1003 q 185 972 193 1003 l 125 982 q 160 1035 135 1017 q 231 1053 186 1053 q 302 1030 281 1053 q 318 964 324 1007 l 317 960 q 303 919 314 931 q 281 904 293 908 q 258 896 268 900 q 247 879 249 892 l 246 857 l 175 857 z "},"И":{"ha":579,"x_min":21,"x_max":576,"o":"m 21 0 l 138 821 l 256 821 l 176 267 l 460 821 l 576 821 l 460 0 l 342 0 l 417 524 l 139 0 l 21 0 z "},"Ѝ":{"ha":579,"x_min":21,"x_max":576,"o":"m 21 0 l 138 821 l 256 821 l 176 267 l 460 821 l 576 821 l 460 0 l 342 0 l 417 524 l 139 0 l 21 0 m 358 881 l 211 1001 l 336 1001 l 443 881 l 358 881 z "},"Й":{"ha":579,"x_min":21,"x_max":576,"o":"m 21 0 l 138 821 l 256 821 l 176 267 l 460 821 l 576 821 l 460 0 l 342 0 l 417 524 l 139 0 l 21 0 m 369 874 q 298 887 325 874 q 258 921 271 900 q 242 965 246 942 q 242 1007 239 988 l 314 1007 q 332 955 313 972 q 381 938 351 938 q 435 954 411 938 q 467 1007 460 971 l 540 1007 q 515 943 535 974 q 460 893 496 913 q 369 874 425 874 z "},"Ī":{"ha":272,"x_min":21,"x_max":361,"o":"m 21 0 l 138 821 l 269 821 l 153 0 l 21 0 m 78 901 l 88 968 l 363 968 l 353 901 l 78 901 z "},"Ё":{"ha":469,"x_min":21,"x_max":507,"o":"m 21 0 l 138 821 l 507 821 l 492 726 l 261 726 l 226 478 l 418 478 l 403 374 l 211 374 l 174 92 l 404 92 l 390 0 l 21 0 m 260 888 q 218 904 235 888 q 201 944 201 921 q 218 983 201 968 q 260 999 235 999 q 301 983 285 999 q 317 944 317 968 q 301 904 317 921 q 260 888 285 888 m 414 888 q 373 904 390 888 q 356 944 356 921 q 373 983 356 968 q 414 999 390 999 q 456 983 439 999 q 472 944 472 968 q 456 904 472 921 q 414 888 439 888 z "},"Į":{"ha":272,"x_min":-39,"x_max":269,"o":"m 21 0 l 138 821 l 269 821 l 153 0 l 21 0 m 61 -196 q -12 -170 14 -196 q -35 -110 -39 -144 q 6 -39 -28 -71 q 85 1 40 -7 l 140 0 q 80 -40 101 -14 q 54 -92 58 -67 q 67 -132 51 -118 q 100 -146 82 -146 q 120 -143 111 -146 q 132 -139 129 -140 l 144 -175 q 115 -188 135 -181 q 61 -196 96 -196 z "},"Ĩ":{"ha":272,"x_min":21,"x_max":381,"o":"m 21 0 l 138 821 l 269 821 l 153 0 l 21 0 m 274 886 q 239 893 254 886 q 207 913 224 900 q 181 928 194 921 q 150 936 167 936 q 119 924 132 936 q 101 888 107 911 l 58 888 q 94 967 67 936 q 160 999 121 999 q 197 991 181 999 q 231 972 214 983 q 257 958 244 964 q 285 951 269 951 q 316 963 304 951 q 335 996 328 975 l 379 996 q 340 915 371 943 q 274 886 308 886 z "},"Ю":{"ha":850,"x_min":21,"x_max":844,"o":"m 519 -17 q 406 -1 454 -17 q 335 62 357 14 q 326 207 314 110 l 350 376 l 207 376 l 154 0 l 21 0 l 136 821 l 269 821 l 222 476 l 365 476 l 389 647 q 434 763 400 722 q 521 818 468 803 q 640 833 574 833 q 753 817 707 833 q 822 762 800 801 q 833 647 844 722 l 772 208 q 724 62 758 110 q 638 -1 690 14 q 519 -17 586 -17 m 532 63 q 577 69 557 63 q 612 97 597 76 q 631 157 626 117 l 701 656 q 698 716 707 696 q 671 743 689 736 q 628 750 653 750 q 583 743 603 750 q 549 716 563 736 q 528 656 535 696 l 458 157 q 461 97 453 117 q 488 69 469 76 q 532 63 507 63 z "},"J":{"ha":321,"x_min":-44,"x_max":322,"o":"m 18 -1 q -13 -1 6 -1 q -44 0 -32 -1 l -31 93 l 13 92 q 72 107 54 92 q 97 168 90 122 l 189 821 l 322 821 l 233 194 q 201 76 224 119 q 134 16 178 33 q 18 -1 90 -1 z "},"Ј":{"ha":321,"x_min":-44,"x_max":322,"o":"m 18 -1 q -13 -1 6 -1 q -44 0 -32 -1 l -31 93 l 13 92 q 72 107 54 92 q 97 168 90 122 l 189 821 l 322 821 l 233 194 q 201 76 224 119 q 134 16 178 33 q 18 -1 90 -1 z "},"K":{"ha":551,"x_min":21,"x_max":599,"o":"m 343 0 l 225 426 l 456 821 l 599 821 l 357 426 l 489 0 l 343 0 m 21 0 l 138 821 l 269 821 l 153 0 l 21 0 z "},"К":{"ha":578,"x_min":21,"x_max":626,"o":"m 21 0 l 138 821 l 269 821 l 219 458 l 271 458 l 483 821 l 626 821 l 388 426 l 515 0 l 368 0 l 264 368 l 206 368 l 153 0 l 21 0 z "},"Ķ":{"ha":551,"x_min":21,"x_max":599,"o":"m 343 0 l 225 426 l 456 821 l 599 821 l 357 426 l 489 0 l 343 0 m 21 0 l 138 821 l 269 821 l 153 0 l 21 0 m 146 -244 q 186 -188 172 -212 q 200 -151 200 -164 q 194 -135 201 -142 q 181 -119 188 -129 q 175 -94 174 -110 q 194 -62 176 -78 q 238 -47 213 -47 q 281 -62 265 -47 q 293 -100 296 -76 q 277 -144 292 -118 q 242 -197 263 -171 q 200 -244 221 -224 l 146 -244 z "},"Ќ":{"ha":578,"x_min":21,"x_max":626,"o":"m 21 0 l 138 821 l 269 821 l 219 458 l 271 458 l 483 821 l 626 821 l 388 426 l 515 0 l 368 0 l 264 368 l 206 368 l 153 0 l 21 0 m 294 881 l 421 1006 l 544 1006 l 371 881 l 294 881 z "},"L":{"ha":414,"x_min":21,"x_max":368,"o":"m 21 0 l 138 821 l 268 821 l 167 92 l 368 92 l 356 0 l 21 0 z "},"Ĺ":{"ha":414,"x_min":21,"x_max":413,"o":"m 21 0 l 138 821 l 268 821 l 167 92 l 368 92 l 356 0 l 21 0 m 163 881 l 289 1006 l 413 1006 l 239 881 l 163 881 z "},"Ľ":{"ha":469,"x_min":21,"x_max":519,"o":"m 21 0 l 138 821 l 268 821 l 167 92 l 368 92 l 356 0 l 21 0 m 381 646 l 438 840 l 519 840 l 428 646 l 381 646 z "},"Ļ":{"ha":414,"x_min":21,"x_max":368,"o":"m 21 0 l 138 821 l 268 821 l 167 92 l 368 92 l 356 0 l 21 0 m 83 -244 q 124 -188 110 -212 q 138 -151 138 -164 q 132 -135 139 -142 q 118 -119 125 -129 q 113 -94 111 -110 q 132 -62 114 -78 q 175 -47 150 -47 q 218 -62 203 -47 q 231 -100 233 -76 q 215 -144 229 -118 q 179 -197 200 -171 q 138 -244 158 -224 l 83 -244 z "},"Љ":{"ha":896,"x_min":-42,"x_max":857,"o":"m -42 0 l -31 69 q 20 99 -4 69 q 56 175 44 128 l 192 821 l 615 821 l 499 0 l 365 0 l 468 726 l 308 726 l 183 139 q 171 94 178 118 q 150 49 164 69 q 110 15 136 28 q 42 0 85 1 l -42 0 m 510 71 l 593 71 q 644 85 626 71 q 673 132 663 100 q 690 215 683 164 q 702 311 694 258 q 715 408 710 364 q 720 468 721 443 q 704 508 719 493 q 654 524 689 524 l 572 524 q 541 297 557 411 q 510 71 525 182 m 365 0 l 482 819 l 613 819 l 582 606 l 710 606 q 794 590 760 606 q 842 538 828 574 q 847 438 857 501 l 815 211 q 790 105 807 146 q 747 41 772 64 q 686 9 721 18 q 607 0 651 0 l 365 0 z "},"Ł":{"ha":503,"x_min":13,"x_max":413,"o":"m 65 0 l 99 231 l 13 194 l 22 257 l 107 293 l 181 817 l 313 817 l 246 350 l 369 404 l 361 343 l 238 289 l 210 92 l 413 92 l 399 0 l 65 0 z "},"M":{"ha":742,"x_min":21,"x_max":740,"o":"m 21 0 l 138 821 l 301 821 l 356 238 l 578 821 l 740 821 l 624 0 l 506 0 l 594 633 l 368 0 l 276 0 l 228 633 l 139 0 l 21 0 z "},"N":{"ha":578,"x_min":21,"x_max":575,"o":"m 21 0 l 138 821 l 253 821 l 379 268 l 457 821 l 575 821 l 458 0 l 342 0 l 214 524 l 139 0 l 21 0 z "},"Ń":{"ha":578,"x_min":21,"x_max":575,"o":"m 21 0 l 138 821 l 253 821 l 379 268 l 457 821 l 575 821 l 458 0 l 342 0 l 214 524 l 139 0 l 21 0 m 271 881 l 397 1006 l 521 1006 l 347 881 l 271 881 z "},"Ň":{"ha":578,"x_min":21,"x_max":575,"o":"m 21 0 l 138 821 l 253 821 l 379 268 l 457 821 l 575 821 l 458 0 l 342 0 l 214 524 l 139 0 l 21 0 m 322 875 l 213 1008 l 299 1008 l 372 935 l 467 1008 l 550 1008 l 400 875 l 322 875 z "},"Ņ":{"ha":578,"x_min":21,"x_max":575,"o":"m 21 0 l 138 821 l 253 821 l 379 268 l 457 821 l 575 821 l 458 0 l 342 0 l 214 524 l 139 0 l 21 0 m 139 -244 q 179 -188 165 -212 q 193 -151 193 -164 q 188 -135 194 -142 q 174 -119 181 -129 q 168 -94 167 -110 q 188 -62 169 -78 q 231 -47 206 -47 q 274 -62 258 -47 q 286 -100 289 -76 q 270 -144 285 -118 q 235 -197 256 -171 q 193 -244 214 -224 l 139 -244 z "},"Њ":{"ha":849,"x_min":21,"x_max":825,"o":"m 21 0 l 138 821 l 269 821 l 221 475 l 397 475 l 447 821 l 581 821 l 550 606 l 676 606 q 762 590 728 606 q 810 538 796 574 q 815 438 825 501 l 783 211 q 756 105 774 146 q 713 41 739 64 q 653 9 688 18 q 574 0 618 0 l 331 0 l 383 376 l 207 376 l 153 0 l 21 0 m 474 71 l 557 71 q 608 85 590 71 q 636 131 626 100 q 653 213 646 163 l 676 386 q 683 463 683 433 q 669 508 683 493 q 618 524 654 524 l 536 524 l 474 71 z "},"Ñ":{"ha":578,"x_min":21,"x_max":575,"o":"m 21 0 l 138 821 l 253 821 l 379 268 l 457 821 l 575 821 l 458 0 l 342 0 l 214 524 l 139 0 l 21 0 m 428 900 q 393 907 408 900 q 361 926 378 914 q 335 942 349 935 q 304 950 321 950 q 274 938 286 950 q 256 901 261 925 l 213 901 q 248 981 221 950 q 314 1013 275 1013 q 351 1005 335 1013 q 385 986 368 997 q 411 972 399 978 q 439 965 424 965 q 470 977 458 965 q 489 1010 482 989 l 533 1010 q 494 928 525 957 q 428 900 463 900 z "},"O":{"ha":567,"x_min":26,"x_max":563,"o":"m 231 -17 q 117 -1 165 -17 q 47 62 68 14 q 39 206 26 110 l 103 649 q 147 763 113 724 q 233 818 181 803 q 351 833 286 833 q 467 817 418 833 q 539 762 515 801 q 551 649 563 722 l 490 207 q 440 61 476 108 q 351 -1 404 14 q 231 -17 299 -17 m 243 63 q 291 69 268 63 q 329 97 314 76 q 350 160 344 118 l 419 653 q 415 715 425 694 q 385 743 406 736 q 340 750 365 750 q 292 743 314 750 q 253 715 269 736 q 232 653 238 694 l 164 160 q 168 97 158 118 q 198 69 178 76 q 243 63 218 63 z "},"О":{"ha":567,"x_min":26,"x_max":563,"o":"m 231 -17 q 117 -1 165 -17 q 47 62 68 14 q 39 206 26 110 l 103 649 q 147 763 113 724 q 233 818 181 803 q 351 833 286 833 q 467 817 418 833 q 539 762 515 801 q 551 649 563 722 l 490 207 q 440 61 476 108 q 351 -1 404 14 q 231 -17 299 -17 m 243 63 q 291 69 268 63 q 329 97 314 76 q 350 160 344 118 l 419 653 q 415 715 425 694 q 385 743 406 736 q 340 750 365 750 q 292 743 314 750 q 253 715 269 736 q 232 653 238 694 l 164 160 q 168 97 158 118 q 198 69 178 76 q 243 63 218 63 z "},"Œ":{"ha":785,"x_min":26,"x_max":821,"o":"m 228 -17 q 115 -1 163 -17 q 47 62 68 14 q 39 206 26 110 l 101 649 q 146 763 113 724 q 231 818 179 803 q 349 833 283 833 q 453 817 408 833 q 519 762 499 801 q 529 649 540 722 l 467 207 q 421 61 454 108 q 338 -1 388 14 q 228 -17 289 -17 m 239 63 q 287 70 265 63 q 323 99 308 78 q 343 160 338 119 l 413 653 q 409 713 418 692 q 381 742 400 735 q 335 750 363 750 q 288 742 310 750 q 252 713 267 735 q 232 653 238 692 l 164 160 q 167 99 158 119 q 194 70 175 78 q 239 63 213 63 m 322 0 l 438 821 l 821 821 l 807 726 l 556 726 l 521 478 l 732 478 l 717 374 l 506 374 l 465 92 l 718 92 l 706 0 l 322 0 z "},"Ó":{"ha":567,"x_min":26,"x_max":563,"o":"m 231 -17 q 117 -1 165 -17 q 47 62 68 14 q 39 206 26 110 l 103 649 q 147 763 113 724 q 233 818 181 803 q 351 833 286 833 q 467 817 418 833 q 539 762 515 801 q 551 649 563 722 l 490 207 q 440 61 476 108 q 351 -1 404 14 q 231 -17 299 -17 m 243 63 q 291 69 268 63 q 329 97 314 76 q 350 160 344 118 l 419 653 q 415 715 425 694 q 385 743 406 736 q 340 750 365 750 q 292 743 314 750 q 253 715 269 736 q 232 653 238 694 l 164 160 q 168 97 158 118 q 198 69 178 76 q 243 63 218 63 m 267 881 l 393 1006 l 517 1006 l 343 881 l 267 881 z "},"Ǒ":{"ha":567,"x_min":26,"x_max":563,"o":"m 231 -17 q 117 -1 165 -17 q 47 62 68 14 q 39 206 26 110 l 103 649 q 147 763 113 724 q 233 818 181 803 q 351 833 286 833 q 467 817 418 833 q 539 762 515 801 q 551 649 563 722 l 490 207 q 440 61 476 108 q 351 -1 404 14 q 231 -17 299 -17 m 243 63 q 291 69 268 63 q 329 97 314 76 q 350 160 344 118 l 419 653 q 415 715 425 694 q 385 743 406 736 q 340 750 365 750 q 292 743 314 750 q 253 715 269 736 q 232 653 238 694 l 164 160 q 168 97 158 118 q 198 69 178 76 q 243 63 218 63 m 318 875 l 208 1008 l 294 1008 l 368 935 l 463 1008 l 546 1008 l 396 875 l 318 875 z "},"Ô":{"ha":567,"x_min":26,"x_max":563,"o":"m 231 -17 q 117 -1 165 -17 q 47 62 68 14 q 39 206 26 110 l 103 649 q 147 763 113 724 q 233 818 181 803 q 351 833 286 833 q 467 817 418 833 q 539 762 515 801 q 551 649 563 722 l 490 207 q 440 61 476 108 q 351 -1 404 14 q 231 -17 299 -17 m 243 63 q 291 69 268 63 q 329 97 314 76 q 350 160 344 118 l 419 653 q 415 715 425 694 q 385 743 406 736 q 340 750 365 750 q 292 743 314 750 q 253 715 269 736 q 232 653 238 694 l 164 160 q 168 97 158 118 q 198 69 178 76 q 243 63 218 63 m 190 875 l 339 1008 l 417 1008 l 528 876 l 444 876 l 369 949 l 275 875 l 190 875 z "},"Ố":{"ha":567,"x_min":26,"x_max":669,"o":"m 231 -17 q 117 -1 165 -17 q 47 62 68 14 q 39 206 26 110 l 103 649 q 147 763 113 724 q 233 818 181 803 q 351 833 286 833 q 467 817 418 833 q 539 762 515 801 q 551 649 563 722 l 490 207 q 440 61 476 108 q 351 -1 404 14 q 231 -17 299 -17 m 243 63 q 291 69 268 63 q 329 97 314 76 q 350 160 344 118 l 419 653 q 415 715 425 694 q 385 743 406 736 q 340 750 365 750 q 292 743 314 750 q 253 715 269 736 q 232 653 238 694 l 164 160 q 168 97 158 118 q 198 69 178 76 q 243 63 218 63 m 228 869 l 338 976 l 408 976 l 488 869 l 411 869 l 367 921 l 307 869 l 228 869 m 482 933 l 546 1033 l 669 1033 l 564 933 l 482 933 z "},"Ộ":{"ha":567,"x_min":26,"x_max":563,"o":"m 231 -17 q 117 -1 165 -17 q 47 62 68 14 q 39 206 26 110 l 103 649 q 147 763 113 724 q 233 818 181 803 q 351 833 286 833 q 467 817 418 833 q 539 762 515 801 q 551 649 563 722 l 490 207 q 440 61 476 108 q 351 -1 404 14 q 231 -17 299 -17 m 243 63 q 291 69 268 63 q 329 97 314 76 q 350 160 344 118 l 419 653 q 415 715 425 694 q 385 743 406 736 q 340 750 365 750 q 292 743 314 750 q 253 715 269 736 q 232 653 238 694 l 164 160 q 168 97 158 118 q 198 69 178 76 q 243 63 218 63 m 219 -168 q 178 -151 196 -168 q 161 -111 161 -135 q 178 -72 161 -87 q 219 -57 196 -57 q 261 -72 244 -57 q 278 -111 278 -87 q 261 -151 278 -135 q 219 -168 244 -168 m 190 875 l 339 1008 l 417 1008 l 528 876 l 444 876 l 369 949 l 275 875 l 190 875 z "},"Ồ":{"ha":567,"x_min":26,"x_max":593,"o":"m 231 -17 q 117 -1 165 -17 q 47 62 68 14 q 39 206 26 110 l 103 649 q 147 763 113 724 q 233 818 181 803 q 351 833 286 833 q 467 817 418 833 q 539 762 515 801 q 551 649 563 722 l 490 207 q 440 61 476 108 q 351 -1 404 14 q 231 -17 299 -17 m 243 63 q 291 69 268 63 q 329 97 314 76 q 350 160 344 118 l 419 653 q 415 715 425 694 q 385 743 406 736 q 340 750 365 750 q 292 743 314 750 q 253 715 269 736 q 232 653 238 694 l 164 160 q 168 97 158 118 q 198 69 178 76 q 243 63 218 63 m 228 869 l 338 976 l 408 976 l 488 869 l 411 869 l 367 921 l 307 869 l 228 869 m 511 933 l 428 1033 l 551 1033 l 593 933 l 511 933 z "},"Ổ":{"ha":567,"x_min":26,"x_max":632,"o":"m 231 -17 q 117 -1 165 -17 q 47 62 68 14 q 39 206 26 110 l 103 649 q 147 763 113 724 q 233 818 181 803 q 351 833 286 833 q 467 817 418 833 q 539 762 515 801 q 551 649 563 722 l 490 207 q 440 61 476 108 q 351 -1 404 14 q 231 -17 299 -17 m 243 63 q 291 69 268 63 q 329 97 314 76 q 350 160 344 118 l 419 653 q 415 715 425 694 q 385 743 406 736 q 340 750 365 750 q 292 743 314 750 q 253 715 269 736 q 232 653 238 694 l 164 160 q 168 97 158 118 q 198 69 178 76 q 243 63 218 63 m 228 869 l 338 976 l 408 976 l 488 869 l 411 869 l 367 921 l 307 869 l 228 869 m 507 922 l 511 944 q 523 965 514 958 q 542 976 532 971 q 553 992 551 981 l 554 1003 q 554 1015 556 1008 q 543 1022 553 1022 q 526 1001 531 1022 l 469 1010 q 497 1053 476 1039 q 556 1067 518 1067 q 613 1049 596 1067 q 626 1000 631 1032 l 626 994 q 617 965 624 974 q 601 955 610 957 q 587 951 593 953 q 579 938 581 949 l 578 922 l 507 922 z "},"Ỗ":{"ha":567,"x_min":26,"x_max":563,"o":"m 231 -17 q 117 -1 165 -17 q 47 62 68 14 q 39 206 26 110 l 103 649 q 147 763 113 724 q 233 818 181 803 q 351 833 286 833 q 467 817 418 833 q 539 762 515 801 q 551 649 563 722 l 490 207 q 440 61 476 108 q 351 -1 404 14 q 231 -17 299 -17 m 243 63 q 291 69 268 63 q 329 97 314 76 q 350 160 344 118 l 419 653 q 415 715 425 694 q 385 743 406 736 q 340 750 365 750 q 292 743 314 750 q 253 715 269 736 q 232 653 238 694 l 164 160 q 168 97 158 118 q 198 69 178 76 q 243 63 218 63 m 228 869 l 338 976 l 408 976 l 488 869 l 411 869 l 367 921 l 307 869 l 228 869 m 421 997 q 393 1003 406 997 q 368 1018 381 1010 q 348 1028 358 1024 q 325 1033 338 1033 q 305 1024 313 1033 q 293 999 297 1014 l 257 999 q 284 1068 263 1043 q 335 1093 306 1093 q 363 1088 350 1093 q 389 1075 376 1082 q 411 1065 401 1069 q 431 1060 421 1060 q 453 1068 444 1060 q 465 1089 461 1076 l 506 1089 q 486 1040 500 1060 q 454 1008 472 1019 q 421 997 436 997 z "},"Ö":{"ha":567,"x_min":26,"x_max":563,"o":"m 231 -17 q 117 -1 165 -17 q 47 62 68 14 q 39 206 26 110 l 103 649 q 147 763 113 724 q 233 818 181 803 q 351 833 286 833 q 467 817 418 833 q 539 762 515 801 q 551 649 563 722 l 490 207 q 440 61 476 108 q 351 -1 404 14 q 231 -17 299 -17 m 243 63 q 291 69 268 63 q 329 97 314 76 q 350 160 344 118 l 419 653 q 415 715 425 694 q 385 743 406 736 q 340 750 365 750 q 292 743 314 750 q 253 715 269 736 q 232 653 238 694 l 164 160 q 168 97 158 118 q 198 69 178 76 q 243 63 218 63 m 290 888 q 249 904 265 888 q 232 944 232 921 q 249 983 232 968 q 290 999 265 999 q 331 983 315 999 q 347 944 347 968 q 331 904 347 921 q 290 888 315 888 m 444 888 q 403 904 421 888 q 386 944 386 921 q 403 983 386 968 q 444 999 421 999 q 486 983 469 999 q 503 944 503 968 q 486 904 503 921 q 444 888 469 888 z "},"Ọ":{"ha":567,"x_min":26,"x_max":563,"o":"m 231 -17 q 117 -1 165 -17 q 47 62 68 14 q 39 206 26 110 l 103 649 q 147 763 113 724 q 233 818 181 803 q 351 833 286 833 q 467 817 418 833 q 539 762 515 801 q 551 649 563 722 l 490 207 q 440 61 476 108 q 351 -1 404 14 q 231 -17 299 -17 m 243 63 q 291 69 268 63 q 329 97 314 76 q 350 160 344 118 l 419 653 q 415 715 425 694 q 385 743 406 736 q 340 750 365 750 q 292 743 314 750 q 253 715 269 736 q 232 653 238 694 l 164 160 q 168 97 158 118 q 198 69 178 76 q 243 63 218 63 m 219 -168 q 178 -151 196 -168 q 161 -111 161 -135 q 178 -72 161 -87 q 219 -57 196 -57 q 261 -72 244 -57 q 278 -111 278 -87 q 261 -151 278 -135 q 219 -168 244 -168 z "},"Ò":{"ha":567,"x_min":26,"x_max":563,"o":"m 231 -17 q 117 -1 165 -17 q 47 62 68 14 q 39 206 26 110 l 103 649 q 147 763 113 724 q 233 818 181 803 q 351 833 286 833 q 467 817 418 833 q 539 762 515 801 q 551 649 563 722 l 490 207 q 440 61 476 108 q 351 -1 404 14 q 231 -17 299 -17 m 243 63 q 291 69 268 63 q 329 97 314 76 q 350 160 344 118 l 419 653 q 415 715 425 694 q 385 743 406 736 q 340 750 365 750 q 292 743 314 750 q 253 715 269 736 q 232 653 238 694 l 164 160 q 168 97 158 118 q 198 69 178 76 q 243 63 218 63 m 344 881 l 197 1001 l 322 1001 l 429 881 l 344 881 z "},"Ỏ":{"ha":567,"x_min":26,"x_max":563,"o":"m 231 -17 q 117 -1 165 -17 q 47 62 68 14 q 39 206 26 110 l 103 649 q 147 763 113 724 q 233 818 181 803 q 351 833 286 833 q 467 817 418 833 q 539 762 515 801 q 551 649 563 722 l 490 207 q 440 61 476 108 q 351 -1 404 14 q 231 -17 299 -17 m 243 63 q 291 69 268 63 q 329 97 314 76 q 350 160 344 118 l 419 653 q 415 715 425 694 q 385 743 406 736 q 340 750 365 750 q 292 743 314 750 q 253 715 269 736 q 232 653 238 694 l 164 160 q 168 97 158 118 q 198 69 178 76 q 243 63 218 63 m 322 857 l 325 888 q 343 916 328 908 q 372 931 358 924 q 388 957 386 939 l 390 968 q 387 992 392 982 q 365 1003 382 1003 q 332 972 340 1003 l 272 982 q 308 1035 282 1017 q 378 1053 333 1053 q 449 1030 428 1053 q 465 964 471 1007 l 464 960 q 451 919 461 931 q 428 904 440 908 q 406 896 415 900 q 394 879 396 892 l 393 857 l 322 857 z "},"Ơ":{"ha":567,"x_min":26,"x_max":607,"o":"m 231 -17 q 117 -1 165 -17 q 47 62 68 14 q 39 206 26 110 l 103 649 q 147 763 113 724 q 233 818 181 803 q 351 833 286 833 q 467 817 418 833 q 539 762 515 801 q 551 649 563 722 l 490 207 q 440 61 476 108 q 351 -1 404 14 q 231 -17 299 -17 m 243 63 q 291 69 268 63 q 329 97 314 76 q 350 160 344 118 l 419 653 q 415 715 425 694 q 385 743 406 736 q 340 750 365 750 q 292 743 314 750 q 253 715 269 736 q 232 653 238 694 l 164 160 q 168 97 158 118 q 198 69 178 76 q 243 63 218 63 m 418 761 l 424 821 l 444 821 q 518 885 508 821 l 521 908 l 608 908 l 606 888 q 549 791 596 821 q 418 761 501 761 z "},"Ớ":{"ha":567,"x_min":26,"x_max":607,"o":"m 231 -17 q 117 -1 165 -17 q 47 62 68 14 q 39 206 26 110 l 103 649 q 147 763 113 724 q 233 818 181 803 q 351 833 286 833 q 467 817 418 833 q 539 762 515 801 q 551 649 563 722 l 490 207 q 440 61 476 108 q 351 -1 404 14 q 231 -17 299 -17 m 243 63 q 291 69 268 63 q 329 97 314 76 q 350 160 344 118 l 419 653 q 415 715 425 694 q 385 743 406 736 q 340 750 365 750 q 292 743 314 750 q 253 715 269 736 q 232 653 238 694 l 164 160 q 168 97 158 118 q 198 69 178 76 q 243 63 218 63 m 418 761 l 424 821 l 444 821 q 518 885 508 821 l 521 908 l 608 908 l 606 888 q 549 791 596 821 q 418 761 501 761 m 267 881 l 393 1006 l 517 1006 l 343 881 l 267 881 z "},"Ợ":{"ha":567,"x_min":26,"x_max":607,"o":"m 231 -17 q 117 -1 165 -17 q 47 62 68 14 q 39 206 26 110 l 103 649 q 147 763 113 724 q 233 818 181 803 q 351 833 286 833 q 467 817 418 833 q 539 762 515 801 q 551 649 563 722 l 490 207 q 440 61 476 108 q 351 -1 404 14 q 231 -17 299 -17 m 243 63 q 291 69 268 63 q 329 97 314 76 q 350 160 344 118 l 419 653 q 415 715 425 694 q 385 743 406 736 q 340 750 365 750 q 292 743 314 750 q 253 715 269 736 q 232 653 238 694 l 164 160 q 168 97 158 118 q 198 69 178 76 q 243 63 218 63 m 418 761 l 424 821 l 444 821 q 518 885 508 821 l 521 908 l 608 908 l 606 888 q 549 791 596 821 q 418 761 501 761 m 219 -168 q 178 -151 196 -168 q 161 -111 161 -135 q 178 -72 161 -87 q 219 -57 196 -57 q 261 -72 244 -57 q 278 -111 278 -87 q 261 -151 278 -135 q 219 -168 244 -168 z "},"Ờ":{"ha":567,"x_min":26,"x_max":607,"o":"m 231 -17 q 117 -1 165 -17 q 47 62 68 14 q 39 206 26 110 l 103 649 q 147 763 113 724 q 233 818 181 803 q 351 833 286 833 q 467 817 418 833 q 539 762 515 801 q 551 649 563 722 l 490 207 q 440 61 476 108 q 351 -1 404 14 q 231 -17 299 -17 m 243 63 q 291 69 268 63 q 329 97 314 76 q 350 160 344 118 l 419 653 q 415 715 425 694 q 385 743 406 736 q 340 750 365 750 q 292 743 314 750 q 253 715 269 736 q 232 653 238 694 l 164 160 q 168 97 158 118 q 198 69 178 76 q 243 63 218 63 m 418 761 l 424 821 l 444 821 q 518 885 508 821 l 521 908 l 608 908 l 606 888 q 549 791 596 821 q 418 761 501 761 m 344 881 l 197 1001 l 322 1001 l 429 881 l 344 881 z "},"Ở":{"ha":567,"x_min":26,"x_max":607,"o":"m 231 -17 q 117 -1 165 -17 q 47 62 68 14 q 39 206 26 110 l 103 649 q 147 763 113 724 q 233 818 181 803 q 351 833 286 833 q 467 817 418 833 q 539 762 515 801 q 551 649 563 722 l 490 207 q 440 61 476 108 q 351 -1 404 14 q 231 -17 299 -17 m 243 63 q 291 69 268 63 q 329 97 314 76 q 350 160 344 118 l 419 653 q 415 715 425 694 q 385 743 406 736 q 340 750 365 750 q 292 743 314 750 q 253 715 269 736 q 232 653 238 694 l 164 160 q 168 97 158 118 q 198 69 178 76 q 243 63 218 63 m 418 761 l 424 821 l 444 821 q 518 885 508 821 l 521 908 l 608 908 l 606 888 q 549 791 596 821 q 418 761 501 761 m 322 857 l 325 888 q 343 916 328 908 q 372 931 358 924 q 388 957 386 939 l 390 968 q 387 992 392 982 q 365 1003 382 1003 q 332 972 340 1003 l 272 982 q 308 1035 282 1017 q 378 1053 333 1053 q 449 1030 428 1053 q 465 964 471 1007 l 464 960 q 451 919 461 931 q 428 904 440 908 q 406 896 415 900 q 394 879 396 892 l 393 857 l 322 857 z "},"Ỡ":{"ha":567,"x_min":26,"x_max":607,"o":"m 231 -17 q 117 -1 165 -17 q 47 62 68 14 q 39 206 26 110 l 103 649 q 147 763 113 724 q 233 818 181 803 q 351 833 286 833 q 467 817 418 833 q 539 762 515 801 q 551 649 563 722 l 490 207 q 440 61 476 108 q 351 -1 404 14 q 231 -17 299 -17 m 243 63 q 291 69 268 63 q 329 97 314 76 q 350 160 344 118 l 419 653 q 415 715 425 694 q 385 743 406 736 q 340 750 365 750 q 292 743 314 750 q 253 715 269 736 q 232 653 238 694 l 164 160 q 168 97 158 118 q 198 69 178 76 q 243 63 218 63 m 418 761 l 424 821 l 444 821 q 518 885 508 821 l 521 908 l 608 908 l 606 888 q 549 791 596 821 q 418 761 501 761 m 421 886 q 386 893 401 886 q 354 913 371 900 q 328 928 342 921 q 297 936 314 936 q 267 924 279 936 q 249 888 254 911 l 206 888 q 241 967 214 936 q 307 999 268 999 q 344 991 328 999 q 378 972 361 983 q 404 958 392 964 q 432 951 417 951 q 463 963 451 951 q 482 996 475 975 l 526 996 q 487 915 518 943 q 421 886 456 886 z "},"Ő":{"ha":567,"x_min":26,"x_max":563,"o":"m 231 -17 q 117 -1 165 -17 q 47 62 68 14 q 39 206 26 110 l 103 649 q 147 763 113 724 q 233 818 181 803 q 351 833 286 833 q 467 817 418 833 q 539 762 515 801 q 551 649 563 722 l 490 207 q 440 61 476 108 q 351 -1 404 14 q 231 -17 299 -17 m 243 63 q 291 69 268 63 q 329 97 314 76 q 350 160 344 118 l 419 653 q 415 715 425 694 q 385 743 406 736 q 340 750 365 750 q 292 743 314 750 q 253 715 269 736 q 232 653 238 694 l 164 160 q 168 97 158 118 q 198 69 178 76 q 243 63 218 63 m 275 874 l 319 1008 l 424 1008 l 328 874 l 275 874 m 393 874 l 453 1008 l 557 1008 l 453 874 l 393 874 z "},"Ō":{"ha":567,"x_min":26,"x_max":563,"o":"m 231 -17 q 117 -1 165 -17 q 47 62 68 14 q 39 206 26 110 l 103 649 q 147 763 113 724 q 233 818 181 803 q 351 833 286 833 q 467 817 418 833 q 539 762 515 801 q 551 649 563 722 l 490 207 q 440 61 476 108 q 351 -1 404 14 q 231 -17 299 -17 m 243 63 q 291 69 268 63 q 329 97 314 76 q 350 160 344 118 l 419 653 q 415 715 425 694 q 385 743 406 736 q 340 750 365 750 q 292 743 314 750 q 253 715 269 736 q 232 653 238 694 l 164 160 q 168 97 158 118 q 198 69 178 76 q 243 63 218 63 m 225 901 l 235 968 l 510 968 l 500 901 l 225 901 z "},"Ω":{"ha":833,"x_min":28,"x_max":789,"o":"m 28 0 l 40 100 l 260 94 l 238 108 q 147 206 182 154 q 99 316 113 258 q 92 433 86 374 q 120 574 96 510 q 190 685 144 638 q 303 758 235 732 q 465 785 372 785 q 622 758 560 785 q 722 683 685 731 q 774 574 760 636 q 783 442 789 513 q 754 319 778 378 q 691 208 731 260 q 593 108 651 156 l 568 94 l 789 100 l 778 0 l 450 0 l 461 76 q 549 158 514 117 q 606 241 585 199 q 638 327 628 283 q 653 415 649 371 q 640 561 658 497 q 575 663 621 625 q 453 700 529 700 q 327 663 378 700 q 248 559 276 625 q 214 407 219 493 q 216 326 211 368 q 237 240 221 283 q 284 155 253 196 q 364 76 315 114 l 354 0 l 28 0 z "},"Ø":{"ha":582,"x_min":-19,"x_max":588,"o":"m -19 -21 l 522 821 l 588 821 l 44 -21 l -19 -21 m 231 -17 q 117 -1 165 -17 q 48 62 69 14 q 39 206 26 110 l 101 649 q 146 763 111 724 q 233 818 181 803 q 351 833 286 833 q 465 817 418 833 q 533 762 511 801 q 544 649 554 722 l 482 207 q 435 61 468 108 q 350 -1 401 14 q 231 -17 299 -17 m 243 63 q 288 69 268 63 q 323 97 308 76 q 343 160 338 118 l 411 653 q 410 715 418 694 q 383 743 401 736 q 340 750 365 750 q 294 743 314 750 q 260 715 274 736 q 239 653 246 694 l 171 160 q 173 97 165 118 q 199 69 181 76 q 243 63 217 63 z "},"Õ":{"ha":567,"x_min":26,"x_max":563,"o":"m 231 -17 q 117 -1 165 -17 q 47 62 68 14 q 39 206 26 110 l 103 649 q 147 763 113 724 q 233 818 181 803 q 351 833 286 833 q 467 817 418 833 q 539 762 515 801 q 551 649 563 722 l 490 207 q 440 61 476 108 q 351 -1 404 14 q 231 -17 299 -17 m 243 63 q 291 69 268 63 q 329 97 314 76 q 350 160 344 118 l 419 653 q 415 715 425 694 q 385 743 406 736 q 340 750 365 750 q 292 743 314 750 q 253 715 269 736 q 232 653 238 694 l 164 160 q 168 97 158 118 q 198 69 178 76 q 243 63 218 63 m 421 886 q 386 893 401 886 q 354 913 371 900 q 328 928 342 921 q 297 936 314 936 q 267 924 279 936 q 249 888 254 911 l 206 888 q 241 967 214 936 q 307 999 268 999 q 344 991 328 999 q 378 972 361 983 q 404 958 392 964 q 432 951 417 951 q 463 963 451 951 q 482 996 475 975 l 526 996 q 487 915 518 943 q 421 886 456 886 z "},"P":{"ha":542,"x_min":21,"x_max":567,"o":"m 21 0 l 138 821 l 415 821 q 530 786 493 821 q 557 683 567 751 l 538 538 q 509 440 529 485 q 449 367 489 394 q 339 339 408 339 l 207 339 l 160 0 l 21 0 m 218 414 l 303 414 q 371 447 344 414 q 407 553 397 479 l 417 626 q 412 719 426 692 q 367 747 397 747 l 264 747 l 218 414 z "},"П":{"ha":578,"x_min":21,"x_max":575,"o":"m 21 0 l 138 821 l 575 821 l 458 0 l 319 0 l 422 726 l 263 726 l 160 0 l 21 0 z "},"Q":{"ha":567,"x_min":26,"x_max":561,"o":"m 339 -168 l 271 -11 q 251 -13 261 -12 q 229 -14 242 -14 q 117 1 165 -14 q 48 65 69 17 q 40 208 26 113 l 103 649 q 147 763 113 724 q 235 818 182 803 q 356 833 289 833 q 469 817 422 833 q 539 762 517 801 q 550 649 561 722 l 489 210 q 449 81 478 126 q 379 15 421 36 l 438 -115 l 339 -168 m 246 65 q 294 72 274 65 q 330 100 315 79 q 350 163 344 121 l 418 653 q 416 715 425 694 q 388 743 407 736 q 343 750 369 750 q 295 743 317 750 q 260 715 274 736 q 239 653 246 694 l 171 163 q 174 100 167 121 q 201 72 182 79 q 246 65 221 65 z "},"R":{"ha":579,"x_min":21,"x_max":574,"o":"m 21 0 l 138 821 l 421 821 q 536 786 499 821 q 563 683 574 751 l 544 553 q 492 442 536 485 q 375 396 449 400 l 375 396 q 438 365 421 392 q 463 283 454 339 l 501 0 l 356 0 l 331 274 q 323 318 328 299 q 308 349 318 338 q 279 361 297 361 l 210 361 l 158 0 l 21 0 m 222 454 l 311 454 q 381 477 356 454 q 414 556 407 500 l 429 660 q 418 727 436 707 q 369 747 400 747 l 264 747 l 222 454 z "},"Ŕ":{"ha":579,"x_min":21,"x_max":574,"o":"m 21 0 l 138 821 l 421 821 q 536 786 499 821 q 563 683 574 751 l 544 553 q 492 442 536 485 q 375 396 449 400 l 375 396 q 438 365 421 392 q 463 283 454 339 l 501 0 l 356 0 l 331 274 q 323 318 328 299 q 308 349 318 338 q 279 361 297 361 l 210 361 l 158 0 l 21 0 m 222 454 l 311 454 q 381 477 356 454 q 414 556 407 500 l 429 660 q 418 727 436 707 q 369 747 400 747 l 264 747 l 222 454 m 272 881 l 399 1006 l 522 1006 l 349 881 l 272 881 z "},"Ř":{"ha":579,"x_min":21,"x_max":574,"o":"m 21 0 l 138 821 l 421 821 q 536 786 499 821 q 563 683 574 751 l 544 553 q 492 442 536 485 q 375 396 449 400 l 375 396 q 438 365 421 392 q 463 283 454 339 l 501 0 l 356 0 l 331 274 q 323 318 328 299 q 308 349 318 338 q 279 361 297 361 l 210 361 l 158 0 l 21 0 m 222 454 l 311 454 q 381 477 356 454 q 414 556 407 500 l 429 660 q 418 727 436 707 q 369 747 400 747 l 264 747 l 222 454 m 324 875 l 214 1008 l 300 1008 l 374 935 l 468 1008 l 551 1008 l 401 875 l 324 875 z "},"Ŗ":{"ha":579,"x_min":21,"x_max":574,"o":"m 21 0 l 138 821 l 421 821 q 536 786 499 821 q 563 683 574 751 l 544 553 q 492 442 536 485 q 375 396 449 400 l 375 396 q 438 365 421 392 q 463 283 454 339 l 501 0 l 356 0 l 331 274 q 323 318 328 299 q 308 349 318 338 q 279 361 297 361 l 210 361 l 158 0 l 21 0 m 222 454 l 311 454 q 381 477 356 454 q 414 556 407 500 l 429 660 q 418 727 436 707 q 369 747 400 747 l 264 747 l 222 454 m 156 -244 q 196 -188 182 -212 q 210 -151 210 -164 q 204 -135 211 -142 q 190 -119 197 -129 q 185 -94 183 -110 q 204 -62 186 -78 q 247 -47 222 -47 q 290 -62 275 -47 q 303 -100 306 -76 q 287 -144 301 -118 q 251 -197 272 -171 q 210 -244 231 -224 l 156 -244 z "},"S":{"ha":535,"x_min":13,"x_max":538,"o":"m 228 -10 q 100 11 150 -10 q 31 85 50 32 q 26 233 13 138 l 33 281 l 169 281 l 161 222 q 160 132 154 164 q 184 88 165 100 q 231 76 203 76 q 295 103 267 76 q 335 206 324 131 q 329 289 343 261 q 283 334 315 317 q 197 374 250 351 q 124 422 153 394 q 85 493 96 450 q 82 600 74 536 q 122 727 94 678 q 201 799 150 776 q 333 822 251 822 q 488 774 439 822 q 525 635 538 726 l 511 539 q 446 539 479 539 q 379 539 413 539 l 388 596 q 381 688 397 660 q 321 717 365 717 q 251 690 275 717 q 219 604 228 663 q 226 531 213 558 q 267 488 239 504 q 333 457 296 472 q 427 408 392 433 q 475 342 463 383 q 476 224 488 300 q 428 85 464 136 q 340 13 392 35 q 228 -10 289 -10 z "},"Š":{"ha":535,"x_min":13,"x_max":543,"o":"m 228 -10 q 100 11 150 -10 q 31 85 50 32 q 26 233 13 138 l 33 281 l 169 281 l 161 222 q 160 132 154 164 q 184 88 165 100 q 231 76 203 76 q 295 103 267 76 q 335 206 324 131 q 329 289 343 261 q 283 334 315 317 q 197 374 250 351 q 124 422 153 394 q 85 493 96 450 q 82 600 74 536 q 122 727 94 678 q 201 799 150 776 q 333 822 251 822 q 488 774 439 822 q 525 635 538 726 l 511 539 q 446 539 479 539 q 379 539 413 539 l 388 596 q 381 688 397 660 q 321 717 365 717 q 251 690 275 717 q 219 604 228 663 q 226 531 213 558 q 267 488 239 504 q 333 457 296 472 q 427 408 392 433 q 475 342 463 383 q 476 224 488 300 q 428 85 464 136 q 340 13 392 35 q 228 -10 289 -10 m 315 875 l 206 1008 l 292 1008 l 365 935 l 460 1008 l 543 1008 l 393 875 l 315 875 z "},"Ş":{"ha":535,"x_min":13,"x_max":538,"o":"m 228 -10 q 100 11 150 -10 q 31 85 50 32 q 26 233 13 138 l 33 281 l 169 281 l 161 222 q 160 132 154 164 q 184 88 165 100 q 231 76 203 76 q 295 103 267 76 q 335 206 324 131 q 329 289 343 261 q 283 334 315 317 q 197 374 250 351 q 124 422 153 394 q 85 493 96 450 q 82 600 74 536 q 122 727 94 678 q 201 799 150 776 q 333 822 251 822 q 488 774 439 822 q 525 635 538 726 l 511 539 q 446 539 479 539 q 379 539 413 539 l 388 596 q 381 688 397 660 q 321 717 365 717 q 251 690 275 717 q 219 604 228 663 q 226 531 213 558 q 267 488 239 504 q 333 457 296 472 q 427 408 392 433 q 475 342 463 383 q 476 224 488 300 q 428 85 464 136 q 340 13 392 35 q 228 -10 289 -10 m 185 -211 q 140 -202 160 -211 q 111 -187 121 -193 l 136 -144 q 158 -156 143 -150 q 186 -162 174 -162 q 224 -151 211 -162 q 239 -124 238 -140 q 208 -90 244 -90 q 190 -94 199 -90 q 175 -101 182 -97 l 142 -81 l 196 0 l 249 0 l 201 -67 l 194 -64 q 217 -54 204 -57 q 246 -51 231 -51 q 300 -74 283 -51 q 314 -124 317 -97 q 274 -186 308 -161 q 185 -211 240 -211 z "},"Ș":{"ha":535,"x_min":13,"x_max":538,"o":"m 228 -10 q 100 11 150 -10 q 31 85 50 32 q 26 233 13 138 l 33 281 l 169 281 l 161 222 q 160 132 154 164 q 184 88 165 100 q 231 76 203 76 q 295 103 267 76 q 335 206 324 131 q 329 289 343 261 q 283 334 315 317 q 197 374 250 351 q 124 422 153 394 q 85 493 96 450 q 82 600 74 536 q 122 727 94 678 q 201 799 150 776 q 333 822 251 822 q 488 774 439 822 q 525 635 538 726 l 511 539 q 446 539 479 539 q 379 539 413 539 l 388 596 q 381 688 397 660 q 321 717 365 717 q 251 690 275 717 q 219 604 228 663 q 226 531 213 558 q 267 488 239 504 q 333 457 296 472 q 427 408 392 433 q 475 342 463 383 q 476 224 488 300 q 428 85 464 136 q 340 13 392 35 q 228 -10 289 -10 m 121 -244 q 161 -188 147 -212 q 175 -151 175 -164 q 169 -135 176 -142 q 156 -119 163 -129 q 150 -94 149 -110 q 169 -62 151 -78 q 213 -47 188 -47 q 256 -62 240 -47 q 268 -100 271 -76 q 252 -144 267 -118 q 217 -197 238 -171 q 175 -244 196 -224 l 121 -244 z "},"Ш":{"ha":881,"x_min":21,"x_max":878,"o":"m 21 0 l 138 821 l 276 821 l 174 94 l 336 94 l 439 821 l 576 821 l 474 94 l 636 94 l 739 821 l 878 821 l 761 0 l 21 0 z "},"Щ":{"ha":904,"x_min":1,"x_max":857,"o":"m 688 -122 l 704 0 l 1 0 l 117 821 l 256 821 l 153 94 l 315 94 l 418 821 l 556 821 l 454 94 l 617 94 l 718 821 l 857 821 l 750 63 l 819 63 l 794 -122 l 688 -122 z "},"Ь":{"ha":528,"x_min":13,"x_max":504,"o":"m 13 0 l 128 819 l 258 819 l 228 606 l 356 606 q 441 590 407 606 q 490 538 475 574 q 494 438 504 501 l 463 211 q 437 105 454 146 q 393 41 419 64 q 333 9 367 18 q 254 0 299 0 l 13 0 m 153 71 l 235 71 q 300 96 279 71 q 329 179 321 121 l 363 424 q 365 474 367 451 q 347 510 363 497 q 297 524 332 524 l 215 524 l 153 71 z "},"T":{"ha":426,"x_min":68,"x_max":479,"o":"m 96 0 l 199 726 l 68 726 l 82 821 l 479 821 l 464 726 l 332 726 l 229 0 l 96 0 z "},"Ŧ":{"ha":436,"x_min":68,"x_max":479,"o":"m 94 532 l 108 604 l 386 604 l 374 532 l 94 532 m 96 0 l 199 726 l 68 726 l 82 821 l 479 821 l 464 726 l 332 726 l 229 0 l 96 0 z "},"Ť":{"ha":426,"x_min":68,"x_max":479,"o":"m 96 0 l 199 726 l 68 726 l 82 821 l 479 821 l 464 726 l 332 726 l 229 0 l 96 0 m 246 875 l 136 1008 l 222 1008 l 296 935 l 390 1008 l 474 1008 l 324 875 l 246 875 z "},"Ţ":{"ha":426,"x_min":53,"x_max":479,"o":"m 96 0 l 199 726 l 68 726 l 82 821 l 479 821 l 464 726 l 332 726 l 229 0 l 96 0 m 126 -211 q 82 -202 101 -211 q 53 -187 63 -193 l 78 -144 q 100 -156 85 -150 q 128 -162 115 -162 q 166 -151 153 -162 q 181 -124 179 -140 q 150 -90 186 -90 q 132 -94 140 -90 q 117 -101 124 -97 l 83 -81 l 138 0 l 190 0 l 143 -67 l 136 -64 q 159 -54 146 -57 q 188 -51 172 -51 q 242 -74 225 -51 q 256 -124 258 -97 q 216 -186 250 -161 q 126 -211 182 -211 z "},"Ț":{"ha":426,"x_min":63,"x_max":479,"o":"m 96 0 l 199 726 l 68 726 l 82 821 l 479 821 l 464 726 l 332 726 l 229 0 l 96 0 m 63 -244 q 103 -188 89 -212 q 117 -151 117 -164 q 111 -135 118 -142 q 97 -119 104 -129 q 92 -94 90 -110 q 111 -62 93 -78 q 154 -47 129 -47 q 197 -62 182 -47 q 210 -100 213 -76 q 194 -144 208 -118 q 158 -197 179 -171 q 117 -244 138 -224 l 63 -244 z "},"Т":{"ha":426,"x_min":68,"x_max":479,"o":"m 96 0 l 199 726 l 68 726 l 82 821 l 479 821 l 464 726 l 332 726 l 229 0 l 96 0 z "},"Þ":{"ha":540,"x_min":-8,"x_max":517,"o":"m -8 0 l 108 821 l 249 821 l 226 674 l 365 674 q 480 638 443 674 q 507 535 517 603 l 488 389 q 459 292 479 336 q 399 219 439 247 q 290 190 358 190 l 157 190 l 131 0 l -8 0 m 168 265 l 254 265 q 322 298 296 265 q 357 404 347 331 l 368 478 q 363 572 378 544 q 317 600 349 600 l 215 600 l 168 265 z "},"Ц":{"ha":624,"x_min":21,"x_max":578,"o":"m 408 -122 l 425 0 l 21 0 l 136 821 l 275 821 l 174 94 l 338 94 l 439 821 l 578 821 l 472 64 l 542 64 l 515 -122 l 408 -122 z "},"Ћ":{"ha":624,"x_min":68,"x_max":592,"o":"m 101 0 l 204 726 l 68 726 l 82 821 l 489 821 l 475 726 l 338 726 l 313 547 q 365 584 328 567 q 449 601 401 601 q 548 578 517 601 q 585 514 579 556 q 583 417 592 472 l 525 0 l 393 0 l 453 417 q 453 467 457 446 q 435 500 450 489 q 389 511 421 511 q 331 496 353 511 q 300 464 308 481 l 235 0 l 101 0 z "},"U":{"ha":569,"x_min":35,"x_max":569,"o":"m 235 -17 q 149 -10 188 -17 q 83 18 110 -3 q 45 81 56 39 q 44 193 35 122 l 132 821 l 265 821 l 172 158 q 176 101 167 121 q 203 74 185 81 q 246 67 222 67 q 289 74 268 67 q 325 101 310 81 q 344 158 340 121 l 438 821 l 569 821 l 482 194 q 450 81 472 124 q 396 18 428 39 q 323 -10 364 -3 q 235 -17 282 -17 z "},"У":{"ha":497,"x_min":-18,"x_max":542,"o":"m 90 -17 q 29 -12 58 -17 q -18 -4 0 -8 l -8 67 q 13 63 0 64 q 39 61 25 61 q 81 67 60 61 q 114 97 103 74 q 129 128 122 111 q 135 168 136 144 l 83 821 l 219 821 l 239 268 l 239 268 l 417 821 l 542 821 l 314 190 q 224 31 274 78 q 90 -17 174 -17 z "},"Ú":{"ha":569,"x_min":35,"x_max":569,"o":"m 235 -17 q 149 -10 188 -17 q 83 18 110 -3 q 45 81 56 39 q 44 193 35 122 l 132 821 l 265 821 l 172 158 q 176 101 167 121 q 203 74 185 81 q 246 67 222 67 q 289 74 268 67 q 325 101 310 81 q 344 158 340 121 l 438 821 l 569 821 l 482 194 q 450 81 472 124 q 396 18 428 39 q 323 -10 364 -3 q 235 -17 282 -17 m 267 881 l 393 1006 l 517 1006 l 343 881 l 267 881 z "},"Ǔ":{"ha":569,"x_min":35,"x_max":569,"o":"m 235 -17 q 149 -10 188 -17 q 83 18 110 -3 q 45 81 56 39 q 44 193 35 122 l 132 821 l 265 821 l 172 158 q 176 101 167 121 q 203 74 185 81 q 246 67 222 67 q 289 74 268 67 q 325 101 310 81 q 344 158 340 121 l 438 821 l 569 821 l 482 194 q 450 81 472 124 q 396 18 428 39 q 323 -10 364 -3 q 235 -17 282 -17 m 318 875 l 208 1008 l 294 1008 l 368 935 l 463 1008 l 546 1008 l 396 875 l 318 875 z "},"Û":{"ha":569,"x_min":35,"x_max":569,"o":"m 235 -17 q 149 -10 188 -17 q 83 18 110 -3 q 45 81 56 39 q 44 193 35 122 l 132 821 l 265 821 l 172 158 q 176 101 167 121 q 203 74 185 81 q 246 67 222 67 q 289 74 268 67 q 325 101 310 81 q 344 158 340 121 l 438 821 l 569 821 l 482 194 q 450 81 472 124 q 396 18 428 39 q 323 -10 364 -3 q 235 -17 282 -17 m 190 875 l 339 1008 l 417 1008 l 528 876 l 444 876 l 369 949 l 275 875 l 190 875 z "},"Ü":{"ha":569,"x_min":35,"x_max":569,"o":"m 235 -17 q 149 -10 188 -17 q 83 18 110 -3 q 45 81 56 39 q 44 193 35 122 l 132 821 l 265 821 l 172 158 q 176 101 167 121 q 203 74 185 81 q 246 67 222 67 q 289 74 268 67 q 325 101 310 81 q 344 158 340 121 l 438 821 l 569 821 l 482 194 q 450 81 472 124 q 396 18 428 39 q 323 -10 364 -3 q 235 -17 282 -17 m 292 888 q 250 904 267 888 q 233 944 233 921 q 250 983 233 968 q 292 999 267 999 q 333 983 317 999 q 349 944 349 968 q 333 904 349 921 q 292 888 317 888 m 446 888 q 405 904 422 888 q 388 944 388 921 q 405 983 388 968 q 446 999 422 999 q 488 983 471 999 q 504 944 504 968 q 488 904 504 921 q 446 888 471 888 z "},"Ǘ":{"ha":569,"x_min":35,"x_max":569,"o":"m 235 -17 q 149 -10 188 -17 q 83 18 110 -3 q 45 81 56 39 q 44 193 35 122 l 132 821 l 265 821 l 172 158 q 176 101 167 121 q 203 74 185 81 q 246 67 222 67 q 289 74 268 67 q 325 101 310 81 q 344 158 340 121 l 438 821 l 569 821 l 482 194 q 450 81 472 124 q 396 18 428 39 q 323 -10 364 -3 q 235 -17 282 -17 m 292 888 q 250 904 267 888 q 233 944 233 921 q 250 983 233 968 q 292 999 267 999 q 333 983 317 999 q 349 944 349 968 q 333 904 349 921 q 292 888 317 888 m 446 888 q 405 904 422 888 q 388 944 388 921 q 405 983 388 968 q 446 999 422 999 q 488 983 471 999 q 504 944 504 968 q 488 904 504 921 q 446 888 471 888 m 294 1021 l 421 1146 l 544 1146 l 371 1021 l 294 1021 z "},"Ǚ":{"ha":569,"x_min":35,"x_max":575,"o":"m 235 -17 q 149 -10 188 -17 q 83 18 110 -3 q 45 81 56 39 q 44 193 35 122 l 132 821 l 265 821 l 172 158 q 176 101 167 121 q 203 74 185 81 q 246 67 222 67 q 289 74 268 67 q 325 101 310 81 q 344 158 340 121 l 438 821 l 569 821 l 482 194 q 450 81 472 124 q 396 18 428 39 q 323 -10 364 -3 q 235 -17 282 -17 m 292 888 q 250 904 267 888 q 233 944 233 921 q 250 983 233 968 q 292 999 267 999 q 333 983 317 999 q 349 944 349 968 q 333 904 349 921 q 292 888 317 888 m 446 888 q 405 904 422 888 q 388 944 388 921 q 405 983 388 968 q 446 999 422 999 q 488 983 471 999 q 504 944 504 968 q 488 904 504 921 q 446 888 471 888 m 346 1015 l 236 1149 l 322 1149 l 396 1075 l 490 1149 l 574 1149 l 424 1015 l 346 1015 z "},"Ǜ":{"ha":569,"x_min":35,"x_max":569,"o":"m 235 -17 q 149 -10 188 -17 q 83 18 110 -3 q 45 81 56 39 q 44 193 35 122 l 132 821 l 265 821 l 172 158 q 176 101 167 121 q 203 74 185 81 q 246 67 222 67 q 289 74 268 67 q 325 101 310 81 q 344 158 340 121 l 438 821 l 569 821 l 482 194 q 450 81 472 124 q 396 18 428 39 q 323 -10 364 -3 q 235 -17 282 -17 m 292 888 q 250 904 267 888 q 233 944 233 921 q 250 983 233 968 q 292 999 267 999 q 333 983 317 999 q 349 944 349 968 q 333 904 349 921 q 292 888 317 888 m 446 888 q 405 904 422 888 q 388 944 388 921 q 405 983 388 968 q 446 999 422 999 q 488 983 471 999 q 504 944 504 968 q 488 904 504 921 q 446 888 471 888 m 374 1021 l 226 1142 l 351 1142 l 458 1021 l 374 1021 z "},"Ǖ":{"ha":569,"x_min":35,"x_max":569,"o":"m 235 -17 q 149 -10 188 -17 q 83 18 110 -3 q 45 81 56 39 q 44 193 35 122 l 132 821 l 265 821 l 172 158 q 176 101 167 121 q 203 74 185 81 q 246 67 222 67 q 289 74 268 67 q 325 101 310 81 q 344 158 340 121 l 438 821 l 569 821 l 482 194 q 450 81 472 124 q 396 18 428 39 q 323 -10 364 -3 q 235 -17 282 -17 m 292 888 q 250 904 267 888 q 233 944 233 921 q 250 983 233 968 q 292 999 267 999 q 333 983 317 999 q 349 944 349 968 q 333 904 349 921 q 292 888 317 888 m 446 888 q 405 904 422 888 q 388 944 388 921 q 405 983 388 968 q 446 999 422 999 q 488 983 471 999 q 504 944 504 968 q 488 904 504 921 q 446 888 471 888 m 254 1040 l 264 1107 l 539 1107 l 529 1040 l 254 1040 z "},"Ụ":{"ha":569,"x_min":35,"x_max":569,"o":"m 235 -17 q 149 -10 188 -17 q 83 18 110 -3 q 45 81 56 39 q 44 193 35 122 l 132 821 l 265 821 l 172 158 q 176 101 167 121 q 203 74 185 81 q 246 67 222 67 q 289 74 268 67 q 325 101 310 81 q 344 158 340 121 l 438 821 l 569 821 l 482 194 q 450 81 472 124 q 396 18 428 39 q 323 -10 364 -3 q 235 -17 282 -17 m 219 -168 q 178 -151 196 -168 q 161 -111 161 -135 q 178 -72 161 -87 q 219 -57 196 -57 q 261 -72 244 -57 q 278 -111 278 -87 q 261 -151 278 -135 q 219 -168 244 -168 z "},"Ù":{"ha":569,"x_min":35,"x_max":569,"o":"m 235 -17 q 149 -10 188 -17 q 83 18 110 -3 q 45 81 56 39 q 44 193 35 122 l 132 821 l 265 821 l 172 158 q 176 101 167 121 q 203 74 185 81 q 246 67 222 67 q 289 74 268 67 q 325 101 310 81 q 344 158 340 121 l 438 821 l 569 821 l 482 194 q 450 81 472 124 q 396 18 428 39 q 323 -10 364 -3 q 235 -17 282 -17 m 346 881 l 199 1001 l 324 1001 l 431 881 l 346 881 z "},"Ủ":{"ha":569,"x_min":35,"x_max":569,"o":"m 235 -17 q 149 -10 188 -17 q 83 18 110 -3 q 45 81 56 39 q 44 193 35 122 l 132 821 l 265 821 l 172 158 q 176 101 167 121 q 203 74 185 81 q 246 67 222 67 q 289 74 268 67 q 325 101 310 81 q 344 158 340 121 l 438 821 l 569 821 l 482 194 q 450 81 472 124 q 396 18 428 39 q 323 -10 364 -3 q 235 -17 282 -17 m 322 857 l 325 888 q 343 916 328 908 q 372 931 358 924 q 388 957 386 939 l 390 968 q 387 992 392 982 q 365 1003 382 1003 q 332 972 340 1003 l 272 982 q 308 1035 282 1017 q 378 1053 333 1053 q 449 1030 428 1053 q 465 964 471 1007 l 464 960 q 451 919 461 931 q 428 904 440 908 q 406 896 415 900 q 394 879 396 892 l 393 857 l 322 857 z "},"Ư":{"ha":569,"x_min":35,"x_max":644,"o":"m 235 -17 q 149 -10 188 -17 q 83 18 110 -3 q 45 81 56 39 q 44 193 35 122 l 132 821 l 265 821 l 172 158 q 176 101 167 121 q 203 74 185 81 q 246 67 222 67 q 289 74 268 67 q 325 101 310 81 q 344 158 340 121 l 438 821 l 569 821 l 482 194 q 450 81 472 124 q 396 18 428 39 q 323 -10 364 -3 q 235 -17 282 -17 m 454 761 l 460 821 l 481 821 q 554 885 544 821 l 557 908 l 644 908 l 642 888 q 585 791 632 821 q 454 761 538 761 z "},"Ứ":{"ha":569,"x_min":35,"x_max":644,"o":"m 235 -17 q 149 -10 188 -17 q 83 18 110 -3 q 45 81 56 39 q 44 193 35 122 l 132 821 l 265 821 l 172 158 q 176 101 167 121 q 203 74 185 81 q 246 67 222 67 q 289 74 268 67 q 325 101 310 81 q 344 158 340 121 l 438 821 l 569 821 l 482 194 q 450 81 472 124 q 396 18 428 39 q 323 -10 364 -3 q 235 -17 282 -17 m 454 761 l 460 821 l 481 821 q 554 885 544 821 l 557 908 l 644 908 l 642 888 q 585 791 632 821 q 454 761 538 761 m 267 881 l 393 1006 l 517 1006 l 343 881 l 267 881 z "},"Ự":{"ha":569,"x_min":35,"x_max":644,"o":"m 235 -17 q 149 -10 188 -17 q 83 18 110 -3 q 45 81 56 39 q 44 193 35 122 l 132 821 l 265 821 l 172 158 q 176 101 167 121 q 203 74 185 81 q 246 67 222 67 q 289 74 268 67 q 325 101 310 81 q 344 158 340 121 l 438 821 l 569 821 l 482 194 q 450 81 472 124 q 396 18 428 39 q 323 -10 364 -3 q 235 -17 282 -17 m 454 761 l 460 821 l 481 821 q 554 885 544 821 l 557 908 l 644 908 l 642 888 q 585 791 632 821 q 454 761 538 761 m 219 -168 q 178 -151 196 -168 q 161 -111 161 -135 q 178 -72 161 -87 q 219 -57 196 -57 q 261 -72 244 -57 q 278 -111 278 -87 q 261 -151 278 -135 q 219 -168 244 -168 z "},"Ừ":{"ha":569,"x_min":35,"x_max":644,"o":"m 235 -17 q 149 -10 188 -17 q 83 18 110 -3 q 45 81 56 39 q 44 193 35 122 l 132 821 l 265 821 l 172 158 q 176 101 167 121 q 203 74 185 81 q 246 67 222 67 q 289 74 268 67 q 325 101 310 81 q 344 158 340 121 l 438 821 l 569 821 l 482 194 q 450 81 472 124 q 396 18 428 39 q 323 -10 364 -3 q 235 -17 282 -17 m 454 761 l 460 821 l 481 821 q 554 885 544 821 l 557 908 l 644 908 l 642 888 q 585 791 632 821 q 454 761 538 761 m 346 881 l 199 1001 l 324 1001 l 431 881 l 346 881 z "},"Ử":{"ha":569,"x_min":35,"x_max":644,"o":"m 235 -17 q 149 -10 188 -17 q 83 18 110 -3 q 45 81 56 39 q 44 193 35 122 l 132 821 l 265 821 l 172 158 q 176 101 167 121 q 203 74 185 81 q 246 67 222 67 q 289 74 268 67 q 325 101 310 81 q 344 158 340 121 l 438 821 l 569 821 l 482 194 q 450 81 472 124 q 396 18 428 39 q 323 -10 364 -3 q 235 -17 282 -17 m 454 761 l 460 821 l 481 821 q 554 885 544 821 l 557 908 l 644 908 l 642 888 q 585 791 632 821 q 454 761 538 761 m 322 857 l 325 888 q 343 916 328 908 q 372 931 358 924 q 388 957 386 939 l 390 968 q 387 992 392 982 q 365 1003 382 1003 q 332 972 340 1003 l 272 982 q 308 1035 282 1017 q 378 1053 333 1053 q 449 1030 428 1053 q 465 964 471 1007 l 464 960 q 451 919 461 931 q 428 904 440 908 q 406 896 415 900 q 394 879 396 892 l 393 857 l 322 857 z "},"Ữ":{"ha":569,"x_min":35,"x_max":644,"o":"m 235 -17 q 149 -10 188 -17 q 83 18 110 -3 q 45 81 56 39 q 44 193 35 122 l 132 821 l 265 821 l 172 158 q 176 101 167 121 q 203 74 185 81 q 246 67 222 67 q 289 74 268 67 q 325 101 310 81 q 344 158 340 121 l 438 821 l 569 821 l 482 194 q 450 81 472 124 q 396 18 428 39 q 323 -10 364 -3 q 235 -17 282 -17 m 454 761 l 460 821 l 481 821 q 554 885 544 821 l 557 908 l 644 908 l 642 888 q 585 791 632 821 q 454 761 538 761 m 422 886 q 388 893 403 886 q 356 913 372 900 q 329 928 343 921 q 299 936 315 936 q 268 924 281 936 q 250 888 256 911 l 207 888 q 242 967 215 936 q 308 999 269 999 q 346 991 329 999 q 379 972 363 983 q 406 958 393 964 q 433 951 418 951 q 465 963 453 951 q 483 996 476 975 l 528 996 q 488 915 519 943 q 422 886 457 886 z "},"Ű":{"ha":569,"x_min":35,"x_max":569,"o":"m 235 -17 q 149 -10 188 -17 q 83 18 110 -3 q 45 81 56 39 q 44 193 35 122 l 132 821 l 265 821 l 172 158 q 176 101 167 121 q 203 74 185 81 q 246 67 222 67 q 289 74 268 67 q 325 101 310 81 q 344 158 340 121 l 438 821 l 569 821 l 482 194 q 450 81 472 124 q 396 18 428 39 q 323 -10 364 -3 q 235 -17 282 -17 m 276 874 l 321 1008 l 425 1008 l 329 874 l 276 874 m 394 874 l 454 1008 l 558 1008 l 454 874 l 394 874 z "},"Ū":{"ha":569,"x_min":35,"x_max":569,"o":"m 235 -17 q 149 -10 188 -17 q 83 18 110 -3 q 45 81 56 39 q 44 193 35 122 l 132 821 l 265 821 l 172 158 q 176 101 167 121 q 203 74 185 81 q 246 67 222 67 q 289 74 268 67 q 325 101 310 81 q 344 158 340 121 l 438 821 l 569 821 l 482 194 q 450 81 472 124 q 396 18 428 39 q 323 -10 364 -3 q 235 -17 282 -17 m 225 901 l 235 968 l 510 968 l 500 901 l 225 901 z "},"Ų":{"ha":569,"x_min":35,"x_max":569,"o":"m 235 -17 q 149 -10 188 -17 q 83 18 110 -3 q 45 81 56 39 q 44 193 35 122 l 132 821 l 265 821 l 172 158 q 176 101 167 121 q 203 74 185 81 q 246 67 222 67 q 289 74 268 67 q 325 101 310 81 q 344 158 340 121 l 438 821 l 569 821 l 482 194 q 450 81 472 124 q 396 18 428 39 q 323 -10 364 -3 q 235 -17 282 -17 m 228 -196 q 154 -170 181 -196 q 132 -110 128 -144 q 173 -39 139 -71 q 251 1 207 -7 l 307 0 q 247 -40 268 -14 q 221 -92 225 -67 q 233 -132 218 -118 q 267 -146 249 -146 q 287 -143 278 -146 q 299 -139 296 -140 l 311 -175 q 282 -188 301 -181 q 228 -196 263 -196 z "},"Ů":{"ha":569,"x_min":35,"x_max":569,"o":"m 235 -17 q 149 -10 188 -17 q 83 18 110 -3 q 45 81 56 39 q 44 193 35 122 l 132 821 l 265 821 l 172 158 q 176 101 167 121 q 203 74 185 81 q 246 67 222 67 q 289 74 268 67 q 325 101 310 81 q 344 158 340 121 l 438 821 l 569 821 l 482 194 q 450 81 472 124 q 396 18 428 39 q 323 -10 364 -3 q 235 -17 282 -17 m 356 858 q 277 890 306 858 q 256 967 249 922 q 299 1046 261 1014 q 386 1078 336 1078 q 466 1046 438 1078 q 488 967 494 1014 q 442 890 482 922 q 356 858 403 858 m 364 914 q 408 929 389 914 q 429 967 426 944 q 418 1008 432 993 q 379 1024 404 1024 q 335 1008 353 1024 q 314 967 317 993 q 324 929 311 944 q 364 914 338 914 z "},"Ў":{"ha":497,"x_min":-18,"x_max":542,"o":"m 90 -17 q 29 -12 58 -17 q -18 -4 0 -8 l -8 67 q 13 63 0 64 q 39 61 25 61 q 81 67 60 61 q 114 97 103 74 q 129 128 122 111 q 135 168 136 144 l 83 821 l 219 821 l 239 268 l 239 268 l 417 821 l 542 821 l 314 190 q 224 31 274 78 q 90 -17 174 -17 m 318 874 q 247 887 274 874 q 207 921 219 900 q 191 965 194 942 q 190 1007 188 988 l 263 1007 q 281 955 261 972 q 329 938 300 938 q 384 954 360 938 q 415 1007 408 971 l 489 1007 q 464 943 483 974 q 409 893 444 913 q 318 874 374 874 z "},"Ũ":{"ha":569,"x_min":35,"x_max":569,"o":"m 235 -17 q 149 -10 188 -17 q 83 18 110 -3 q 45 81 56 39 q 44 193 35 122 l 132 821 l 265 821 l 172 158 q 176 101 167 121 q 203 74 185 81 q 246 67 222 67 q 289 74 268 67 q 325 101 310 81 q 344 158 340 121 l 438 821 l 569 821 l 482 194 q 450 81 472 124 q 396 18 428 39 q 323 -10 364 -3 q 235 -17 282 -17 m 422 886 q 388 893 403 886 q 356 913 372 900 q 329 928 343 921 q 299 936 315 936 q 268 924 281 936 q 250 888 256 911 l 207 888 q 242 967 215 936 q 308 999 269 999 q 346 991 329 999 q 379 972 363 983 q 406 958 393 964 q 433 951 418 951 q 465 963 453 951 q 483 996 476 975 l 528 996 q 488 915 519 943 q 422 886 457 886 z "},"V":{"ha":511,"x_min":89,"x_max":556,"o":"m 114 0 l 89 821 l 225 821 l 229 149 l 228 149 l 424 821 l 556 821 l 296 0 l 114 0 z "},"В":{"ha":567,"x_min":21,"x_max":561,"o":"m 21 0 l 136 821 l 413 821 q 524 786 488 821 q 551 683 561 751 l 539 588 q 518 520 533 550 q 481 471 503 490 q 434 446 460 453 q 389 438 408 439 l 388 438 q 436 432 413 438 q 476 410 460 426 q 503 360 494 390 q 506 285 513 329 l 490 171 q 453 65 481 101 q 382 14 425 28 q 282 0 339 0 l 21 0 m 164 71 l 263 71 q 306 79 288 71 q 338 111 325 88 q 357 179 351 135 l 372 283 q 359 360 382 342 q 297 379 336 379 l 207 379 l 164 71 m 219 465 l 308 465 q 374 490 349 465 q 408 572 400 515 l 421 660 q 410 726 428 706 q 363 747 393 747 l 258 747 l 219 465 z "},"W":{"ha":804,"x_min":89,"x_max":849,"o":"m 99 0 l 89 821 l 225 821 l 222 175 l 414 821 l 524 821 l 532 175 l 713 821 l 849 821 l 606 0 l 451 0 l 428 533 l 254 0 l 99 0 z "},"Ẃ":{"ha":804,"x_min":89,"x_max":849,"o":"m 99 0 l 89 821 l 225 821 l 222 175 l 414 821 l 524 821 l 532 175 l 713 821 l 849 821 l 606 0 l 451 0 l 428 533 l 254 0 l 99 0 m 385 881 l 511 1006 l 635 1006 l 461 881 l 385 881 z "},"Ŵ":{"ha":804,"x_min":89,"x_max":849,"o":"m 99 0 l 89 821 l 225 821 l 222 175 l 414 821 l 524 821 l 532 175 l 713 821 l 849 821 l 606 0 l 451 0 l 428 533 l 254 0 l 99 0 m 308 875 l 457 1008 l 535 1008 l 646 876 l 563 876 l 488 949 l 393 875 l 308 875 z "},"Ẅ":{"ha":804,"x_min":89,"x_max":849,"o":"m 99 0 l 89 821 l 225 821 l 222 175 l 414 821 l 524 821 l 532 175 l 713 821 l 849 821 l 606 0 l 451 0 l 428 533 l 254 0 l 99 0 m 410 888 q 368 904 385 888 q 351 944 351 921 q 368 983 351 968 q 410 999 385 999 q 451 983 435 999 q 467 944 467 968 q 451 904 467 921 q 410 888 435 888 m 564 888 q 523 904 540 888 q 506 944 506 921 q 523 983 506 968 q 564 999 540 999 q 606 983 589 999 q 622 944 622 968 q 606 904 622 921 q 564 888 589 888 z "},"Ẁ":{"ha":804,"x_min":89,"x_max":849,"o":"m 99 0 l 89 821 l 225 821 l 222 175 l 414 821 l 524 821 l 532 175 l 713 821 l 849 821 l 606 0 l 451 0 l 428 533 l 254 0 l 99 0 m 464 881 l 317 1001 l 442 1001 l 549 881 l 464 881 z "},"X":{"ha":485,"x_min":-32,"x_max":533,"o":"m -32 0 l 153 421 l 93 821 l 225 821 l 265 519 l 394 821 l 533 821 l 354 419 l 414 0 l 281 0 l 236 301 l 108 0 l -32 0 z "},"Y":{"ha":482,"x_min":83,"x_max":531,"o":"m 121 0 l 169 353 l 83 821 l 217 821 l 261 540 l 263 497 l 278 540 l 408 821 l 531 821 l 303 346 l 253 0 l 121 0 z "},"Ý":{"ha":482,"x_min":83,"x_max":531,"o":"m 121 0 l 169 353 l 83 821 l 217 821 l 261 540 l 263 497 l 278 540 l 408 821 l 531 821 l 303 346 l 253 0 l 121 0 m 222 881 l 349 1006 l 472 1006 l 299 881 l 222 881 z "},"Ѣ":{"ha":614,"x_min":68,"x_max":586,"o":"m 94 0 l 210 819 l 340 819 l 311 606 l 439 606 q 523 590 489 606 q 572 538 557 574 q 578 438 586 501 l 546 211 q 519 105 536 146 q 476 41 501 64 q 415 9 450 18 q 336 0 381 0 l 94 0 m 236 71 l 318 71 q 370 85 351 71 q 399 132 389 100 q 417 215 410 164 l 443 408 q 447 468 447 443 q 431 508 446 493 q 379 524 417 524 l 299 524 q 268 297 285 411 q 236 71 251 182 m 68 693 l 81 760 l 503 760 l 492 693 l 68 693 z "},"Ŷ":{"ha":482,"x_min":83,"x_max":531,"o":"m 121 0 l 169 353 l 83 821 l 217 821 l 261 540 l 263 497 l 278 540 l 408 821 l 531 821 l 303 346 l 253 0 l 121 0 m 147 875 l 296 1008 l 374 1008 l 485 876 l 401 876 l 326 949 l 232 875 l 147 875 z "},"Ÿ":{"ha":482,"x_min":83,"x_max":531,"o":"m 121 0 l 169 353 l 83 821 l 217 821 l 261 540 l 263 497 l 278 540 l 408 821 l 531 821 l 303 346 l 253 0 l 121 0 m 247 888 q 206 904 222 888 q 189 944 189 921 q 206 983 189 968 q 247 999 222 999 q 288 983 272 999 q 304 944 304 968 q 288 904 304 921 q 247 888 272 888 m 401 888 q 360 904 378 888 q 343 944 343 921 q 360 983 343 968 q 401 999 378 999 q 443 983 426 999 q 460 944 460 968 q 443 904 460 921 q 401 888 426 888 z "},"Ỵ":{"ha":482,"x_min":83,"x_max":531,"o":"m 121 0 l 169 353 l 83 821 l 217 821 l 261 540 l 263 497 l 278 540 l 408 821 l 531 821 l 303 346 l 253 0 l 121 0 m 176 -168 q 135 -151 153 -168 q 118 -111 118 -135 q 135 -72 118 -87 q 176 -57 153 -57 q 218 -72 201 -57 q 235 -111 235 -87 q 218 -151 235 -135 q 176 -168 201 -168 z "},"Ы":{"ha":781,"x_min":21,"x_max":778,"o":"m 21 0 l 136 819 l 267 819 l 238 606 l 365 606 q 451 590 417 606 q 499 538 485 574 q 504 438 513 501 l 472 211 q 445 105 463 146 q 402 41 428 64 q 342 9 376 18 q 263 0 307 0 l 21 0 m 163 71 l 246 71 q 297 85 279 71 q 326 132 315 100 q 342 215 336 164 q 356 311 349 258 q 369 408 364 364 q 374 468 375 443 q 358 508 372 493 q 306 524 343 524 l 225 524 q 194 297 211 411 q 163 71 178 182 m 529 0 l 646 821 l 778 821 l 661 0 l 529 0 z "},"Ỳ":{"ha":482,"x_min":83,"x_max":531,"o":"m 121 0 l 169 353 l 83 821 l 217 821 l 261 540 l 263 497 l 278 540 l 408 821 l 531 821 l 303 346 l 253 0 l 121 0 m 301 881 l 154 1001 l 279 1001 l 386 881 l 301 881 z "},"Ỷ":{"ha":482,"x_min":83,"x_max":531,"o":"m 121 0 l 169 353 l 83 821 l 217 821 l 261 540 l 263 497 l 278 540 l 408 821 l 531 821 l 303 346 l 253 0 l 121 0 m 279 857 l 282 888 q 300 916 285 908 q 329 931 315 924 q 344 957 343 939 l 347 968 q 344 992 349 982 q 322 1003 339 1003 q 289 972 297 1003 l 229 982 q 265 1035 239 1017 q 335 1053 290 1053 q 406 1030 385 1053 q 422 964 428 1007 l 421 960 q 408 919 418 931 q 385 904 397 908 q 363 896 372 900 q 351 879 353 892 l 350 857 l 279 857 z "},"Ї":{"ha":272,"x_min":21,"x_max":356,"o":"m 21 0 l 138 821 l 269 821 l 153 0 l 21 0 m 143 888 q 101 904 118 888 q 85 944 85 921 q 101 983 85 968 q 143 999 118 999 q 184 983 168 999 q 200 944 200 968 q 184 904 200 921 q 143 888 168 888 m 297 888 q 256 904 274 888 q 239 944 239 921 q 256 983 239 968 q 297 999 274 999 q 339 983 322 999 q 356 944 356 968 q 339 904 356 921 q 297 888 322 888 z "},"Ỹ":{"ha":482,"x_min":83,"x_max":531,"o":"m 121 0 l 169 353 l 83 821 l 217 821 l 261 540 l 263 497 l 278 540 l 408 821 l 531 821 l 303 346 l 253 0 l 121 0 m 378 886 q 343 893 358 886 q 311 913 328 900 q 285 928 299 921 q 254 936 271 936 q 224 924 236 936 q 206 888 211 911 l 163 888 q 198 967 171 936 q 264 999 225 999 q 301 991 285 999 q 335 972 318 983 q 361 958 349 964 q 389 951 374 951 q 420 963 408 951 q 439 996 432 975 l 483 996 q 444 915 475 943 q 378 886 413 886 z "},"Ѫ":{"ha":896,"x_min":-14,"x_max":936,"o":"m -14 0 l 115 328 q 149 393 129 364 q 199 441 169 422 q 269 460 228 460 l 349 461 l 76 729 l 90 821 l 936 821 l 922 729 l 576 461 l 661 460 q 725 440 701 458 q 761 392 749 421 q 776 329 774 363 l 811 0 l 664 0 l 642 311 q 635 356 639 333 q 622 396 631 378 q 594 422 613 414 l 528 422 l 468 0 l 329 0 l 389 422 l 321 422 q 276 379 293 410 q 246 315 258 349 l 133 0 l -14 0 m 468 506 l 767 729 l 231 729 l 468 506 z "},"Z":{"ha":400,"x_min":-33,"x_max":440,"o":"m -33 0 l -19 86 l 275 726 l 86 726 l 99 821 l 440 821 l 431 751 l 125 94 l 339 94 l 324 0 l -33 0 z "},"Ź":{"ha":400,"x_min":-33,"x_max":440,"o":"m -33 0 l -19 86 l 275 726 l 86 726 l 99 821 l 440 821 l 431 751 l 125 94 l 339 94 l 324 0 l -33 0 m 182 881 l 308 1006 l 432 1006 l 258 881 l 182 881 z "},"Ž":{"ha":400,"x_min":-33,"x_max":463,"o":"m -33 0 l -19 86 l 275 726 l 86 726 l 99 821 l 440 821 l 431 751 l 125 94 l 339 94 l 324 0 l -33 0 m 233 875 l 124 1008 l 210 1008 l 283 935 l 378 1008 l 461 1008 l 311 875 l 233 875 z "},"Ż":{"ha":400,"x_min":-33,"x_max":440,"o":"m -33 0 l -19 86 l 275 726 l 86 726 l 99 821 l 440 821 l 431 751 l 125 94 l 339 94 l 324 0 l -33 0 m 299 881 q 250 901 271 881 q 229 949 229 921 q 250 997 229 978 q 300 1017 271 1017 q 350 997 329 1017 q 371 949 371 978 q 351 901 372 921 q 299 881 329 881 z "},"З":{"ha":554,"x_min":17,"x_max":554,"o":"m 224 -10 q 97 15 144 -10 q 33 86 50 40 q 24 193 17 132 l 38 283 l 171 283 l 163 225 q 171 123 154 158 q 236 86 188 88 q 308 118 281 86 q 344 203 336 150 l 356 282 q 331 358 363 333 q 239 383 300 382 l 167 383 l 178 461 l 250 461 q 306 469 281 461 q 350 494 331 478 q 379 528 369 510 q 392 567 389 546 l 399 621 q 390 697 406 665 q 326 729 374 729 q 252 694 276 729 q 219 599 228 658 l 214 560 l 79 560 l 89 631 q 165 775 103 725 q 340 825 226 825 q 508 778 461 825 q 540 642 554 732 l 533 586 q 481 472 524 515 q 374 418 439 429 q 470 367 440 411 q 489 251 500 322 l 481 193 q 443 82 472 128 q 361 13 414 36 q 224 -10 308 -10 z "},"Ж":{"ha":846,"x_min":-39,"x_max":893,"o":"m -39 0 l 214 426 l 85 821 l 236 821 l 332 463 l 369 463 l 419 821 l 553 821 l 503 463 l 543 463 l 739 821 l 893 821 l 650 426 l 782 0 l 632 0 l 532 388 l 493 388 l 438 0 l 304 0 l 358 388 l 321 388 l 111 0 l -39 0 z "},"a":{"ha":517,"x_min":14,"x_max":508,"o":"m 163 -11 q 108 -6 138 -11 q 57 17 79 -1 q 24 74 35 35 q 24 183 14 114 l 79 539 q 117 645 89 611 q 181 688 146 679 q 249 697 217 697 q 329 681 297 697 q 371 635 361 664 l 378 688 l 508 688 l 411 0 l 306 0 l 319 96 q 290 48 308 72 q 240 6 271 24 q 163 -11 210 -11 m 204 67 q 245 79 228 67 q 274 113 263 92 q 294 156 286 133 q 306 199 301 179 q 313 229 311 218 l 361 574 q 352 590 358 579 q 331 610 346 600 q 288 619 317 619 q 236 603 253 619 q 213 558 219 586 q 200 493 206 529 l 150 160 q 150 110 146 129 q 163 83 154 92 q 183 70 172 74 q 204 67 194 67 z "},"а":{"ha":517,"x_min":14,"x_max":508,"o":"m 163 -11 q 108 -6 138 -11 q 57 17 79 -1 q 24 74 35 35 q 24 183 14 114 l 79 539 q 117 645 89 611 q 181 688 146 679 q 249 697 217 697 q 329 681 297 697 q 371 635 361 664 l 378 688 l 508 688 l 411 0 l 306 0 l 319 96 q 290 48 308 72 q 240 6 271 24 q 163 -11 210 -11 m 204 67 q 245 79 228 67 q 274 113 263 92 q 294 156 286 133 q 306 199 301 179 q 313 229 311 218 l 361 574 q 352 590 358 579 q 331 610 346 600 q 288 619 317 619 q 236 603 253 619 q 213 558 219 586 q 200 493 206 529 l 150 160 q 150 110 146 129 q 163 83 154 92 q 183 70 172 74 q 204 67 194 67 z "},"á":{"ha":517,"x_min":14,"x_max":508,"o":"m 163 -11 q 108 -6 138 -11 q 57 17 79 -1 q 24 74 35 35 q 24 183 14 114 l 79 539 q 117 645 89 611 q 181 688 146 679 q 249 697 217 697 q 329 681 297 697 q 371 635 361 664 l 378 688 l 508 688 l 411 0 l 306 0 l 319 96 q 290 48 308 72 q 240 6 271 24 q 163 -11 210 -11 m 204 67 q 245 79 228 67 q 274 113 263 92 q 294 156 286 133 q 306 199 301 179 q 313 229 311 218 l 361 574 q 352 590 358 579 q 331 610 346 600 q 288 619 317 619 q 236 603 253 619 q 213 558 219 586 q 200 493 206 529 l 150 160 q 150 110 146 129 q 163 83 154 92 q 183 70 172 74 q 204 67 194 67 m 257 760 l 346 894 l 474 894 l 339 760 l 257 760 z "},"ă":{"ha":517,"x_min":14,"x_max":508,"o":"m 163 -11 q 108 -6 138 -11 q 57 17 79 -1 q 24 74 35 35 q 24 183 14 114 l 79 539 q 117 645 89 611 q 181 688 146 679 q 249 697 217 697 q 329 681 297 697 q 371 635 361 664 l 378 688 l 508 688 l 411 0 l 306 0 l 319 96 q 290 48 308 72 q 240 6 271 24 q 163 -11 210 -11 m 204 67 q 245 79 228 67 q 274 113 263 92 q 294 156 286 133 q 306 199 301 179 q 313 229 311 218 l 361 574 q 352 590 358 579 q 331 610 346 600 q 288 619 317 619 q 236 603 253 619 q 213 558 219 586 q 200 493 206 529 l 150 160 q 150 110 146 129 q 163 83 154 92 q 183 70 172 74 q 204 67 194 67 m 322 760 q 251 773 278 760 q 211 807 224 786 q 195 851 199 828 q 194 893 192 874 l 267 893 q 285 841 265 858 q 333 824 304 824 q 388 840 364 824 q 419 893 413 857 l 493 893 q 468 829 488 860 q 413 779 449 799 q 322 760 378 760 z "},"ắ":{"ha":517,"x_min":14,"x_max":508,"o":"m 163 -11 q 108 -6 138 -11 q 57 17 79 -1 q 24 74 35 35 q 24 183 14 114 l 79 539 q 117 645 89 611 q 181 688 146 679 q 249 697 217 697 q 329 681 297 697 q 371 635 361 664 l 378 688 l 508 688 l 411 0 l 306 0 l 319 96 q 290 48 308 72 q 240 6 271 24 q 163 -11 210 -11 m 204 67 q 245 79 228 67 q 274 113 263 92 q 294 156 286 133 q 306 199 301 179 q 313 229 311 218 l 361 574 q 352 590 358 579 q 331 610 346 600 q 288 619 317 619 q 236 603 253 619 q 213 558 219 586 q 200 493 206 529 l 150 160 q 150 110 146 129 q 163 83 154 92 q 183 70 172 74 q 204 67 194 67 m 322 760 q 251 773 278 760 q 211 807 224 786 q 195 851 199 828 q 194 893 192 874 l 267 893 q 285 841 265 858 q 333 824 304 824 q 388 840 364 824 q 419 893 413 857 l 493 893 q 468 829 488 860 q 413 779 449 799 q 322 760 378 760 m 283 922 l 372 1057 l 500 1057 l 365 922 l 283 922 z "},"ặ":{"ha":517,"x_min":14,"x_max":508,"o":"m 163 -11 q 108 -6 138 -11 q 57 17 79 -1 q 24 74 35 35 q 24 183 14 114 l 79 539 q 117 645 89 611 q 181 688 146 679 q 249 697 217 697 q 329 681 297 697 q 371 635 361 664 l 378 688 l 508 688 l 411 0 l 306 0 l 319 96 q 290 48 308 72 q 240 6 271 24 q 163 -11 210 -11 m 204 67 q 245 79 228 67 q 274 113 263 92 q 294 156 286 133 q 306 199 301 179 q 313 229 311 218 l 361 574 q 352 590 358 579 q 331 610 346 600 q 288 619 317 619 q 236 603 253 619 q 213 558 219 586 q 200 493 206 529 l 150 160 q 150 110 146 129 q 163 83 154 92 q 183 70 172 74 q 204 67 194 67 m 194 -168 q 153 -151 171 -168 q 136 -111 136 -135 q 153 -72 136 -87 q 194 -57 171 -57 q 236 -72 219 -57 q 253 -111 253 -87 q 236 -151 253 -135 q 194 -168 219 -168 m 322 760 q 251 773 278 760 q 211 807 224 786 q 195 851 199 828 q 194 893 192 874 l 267 893 q 285 841 265 858 q 333 824 304 824 q 388 840 364 824 q 419 893 413 857 l 493 893 q 468 829 488 860 q 413 779 449 799 q 322 760 378 760 z "},"ằ":{"ha":517,"x_min":14,"x_max":508,"o":"m 163 -11 q 108 -6 138 -11 q 57 17 79 -1 q 24 74 35 35 q 24 183 14 114 l 79 539 q 117 645 89 611 q 181 688 146 679 q 249 697 217 697 q 329 681 297 697 q 371 635 361 664 l 378 688 l 508 688 l 411 0 l 306 0 l 319 96 q 290 48 308 72 q 240 6 271 24 q 163 -11 210 -11 m 204 67 q 245 79 228 67 q 274 113 263 92 q 294 156 286 133 q 306 199 301 179 q 313 229 311 218 l 361 574 q 352 590 358 579 q 331 610 346 600 q 288 619 317 619 q 236 603 253 619 q 213 558 219 586 q 200 493 206 529 l 150 160 q 150 110 146 129 q 163 83 154 92 q 183 70 172 74 q 204 67 194 67 m 322 760 q 251 773 278 760 q 211 807 224 786 q 195 851 199 828 q 194 893 192 874 l 267 893 q 285 841 265 858 q 333 824 304 824 q 388 840 364 824 q 419 893 413 857 l 493 893 q 468 829 488 860 q 413 779 449 799 q 322 760 378 760 m 326 922 l 219 1057 l 347 1057 l 408 922 l 326 922 z "},"ẳ":{"ha":517,"x_min":14,"x_max":508,"o":"m 163 -11 q 108 -6 138 -11 q 57 17 79 -1 q 24 74 35 35 q 24 183 14 114 l 79 539 q 117 645 89 611 q 181 688 146 679 q 249 697 217 697 q 329 681 297 697 q 371 635 361 664 l 378 688 l 508 688 l 411 0 l 306 0 l 319 96 q 290 48 308 72 q 240 6 271 24 q 163 -11 210 -11 m 204 67 q 245 79 228 67 q 274 113 263 92 q 294 156 286 133 q 306 199 301 179 q 313 229 311 218 l 361 574 q 352 590 358 579 q 331 610 346 600 q 288 619 317 619 q 236 603 253 619 q 213 558 219 586 q 200 493 206 529 l 150 160 q 150 110 146 129 q 163 83 154 92 q 183 70 172 74 q 204 67 194 67 m 322 760 q 251 773 278 760 q 211 807 224 786 q 195 851 199 828 q 194 893 192 874 l 267 893 q 285 841 265 858 q 333 824 304 824 q 388 840 364 824 q 419 893 413 857 l 493 893 q 468 829 488 860 q 413 779 449 799 q 322 760 378 760 m 308 910 l 311 940 q 329 969 314 961 q 358 984 344 976 q 374 1010 372 992 l 376 1021 q 373 1045 378 1035 q 351 1056 368 1056 q 318 1025 326 1056 l 258 1035 q 294 1088 268 1069 q 364 1106 319 1106 q 435 1083 414 1106 q 451 1017 457 1060 l 450 1013 q 437 972 447 983 q 414 957 426 961 q 392 949 401 953 q 381 932 382 944 l 379 910 l 308 910 z "},"ẵ":{"ha":517,"x_min":14,"x_max":519,"o":"m 163 -11 q 108 -6 138 -11 q 57 17 79 -1 q 24 74 35 35 q 24 183 14 114 l 79 539 q 117 645 89 611 q 181 688 146 679 q 249 697 217 697 q 329 681 297 697 q 371 635 361 664 l 378 688 l 508 688 l 411 0 l 306 0 l 319 96 q 290 48 308 72 q 240 6 271 24 q 163 -11 210 -11 m 204 67 q 245 79 228 67 q 274 113 263 92 q 294 156 286 133 q 306 199 301 179 q 313 229 311 218 l 361 574 q 352 590 358 579 q 331 610 346 600 q 288 619 317 619 q 236 603 253 619 q 213 558 219 586 q 200 493 206 529 l 150 160 q 150 110 146 129 q 163 83 154 92 q 183 70 172 74 q 204 67 194 67 m 322 760 q 251 773 278 760 q 211 807 224 786 q 195 851 199 828 q 194 893 192 874 l 267 893 q 285 841 265 858 q 333 824 304 824 q 388 840 364 824 q 419 893 413 857 l 493 893 q 468 829 488 860 q 413 779 449 799 q 322 760 378 760 m 413 929 q 378 936 393 929 q 346 956 363 943 q 319 972 333 964 q 289 979 306 979 q 258 967 271 979 q 240 931 246 954 l 197 931 q 233 1010 206 979 q 299 1042 260 1042 q 336 1034 319 1042 q 369 1015 353 1026 q 396 1001 383 1007 q 424 994 408 994 q 455 1006 443 994 q 474 1039 467 1018 l 518 1039 q 478 958 510 986 q 413 929 447 929 z "},"ǎ":{"ha":517,"x_min":14,"x_max":515,"o":"m 163 -11 q 108 -6 138 -11 q 57 17 79 -1 q 24 74 35 35 q 24 183 14 114 l 79 539 q 117 645 89 611 q 181 688 146 679 q 249 697 217 697 q 329 681 297 697 q 371 635 361 664 l 378 688 l 508 688 l 411 0 l 306 0 l 319 96 q 290 48 308 72 q 240 6 271 24 q 163 -11 210 -11 m 204 67 q 245 79 228 67 q 274 113 263 92 q 294 156 286 133 q 306 199 301 179 q 313 229 311 218 l 361 574 q 352 590 358 579 q 331 610 346 600 q 288 619 317 619 q 236 603 253 619 q 213 558 219 586 q 200 493 206 529 l 150 160 q 150 110 146 129 q 163 83 154 92 q 183 70 172 74 q 204 67 194 67 m 289 758 l 181 897 l 263 897 l 338 818 l 436 897 l 515 897 l 367 758 l 289 758 z "},"â":{"ha":517,"x_min":14,"x_max":508,"o":"m 163 -11 q 108 -6 138 -11 q 57 17 79 -1 q 24 74 35 35 q 24 183 14 114 l 79 539 q 117 645 89 611 q 181 688 146 679 q 249 697 217 697 q 329 681 297 697 q 371 635 361 664 l 378 688 l 508 688 l 411 0 l 306 0 l 319 96 q 290 48 308 72 q 240 6 271 24 q 163 -11 210 -11 m 204 67 q 245 79 228 67 q 274 113 263 92 q 294 156 286 133 q 306 199 301 179 q 313 229 311 218 l 361 574 q 352 590 358 579 q 331 610 346 600 q 288 619 317 619 q 236 603 253 619 q 213 558 219 586 q 200 493 206 529 l 150 160 q 150 110 146 129 q 163 83 154 92 q 183 70 172 74 q 204 67 194 67 m 157 758 l 306 897 l 382 897 l 492 758 l 413 758 l 336 839 l 239 758 l 157 758 z "},"ấ":{"ha":517,"x_min":14,"x_max":706,"o":"m 163 -11 q 108 -6 138 -11 q 57 17 79 -1 q 24 74 35 35 q 24 183 14 114 l 79 539 q 117 645 89 611 q 181 688 146 679 q 249 697 217 697 q 329 681 297 697 q 371 635 361 664 l 378 688 l 508 688 l 411 0 l 306 0 l 319 96 q 290 48 308 72 q 240 6 271 24 q 163 -11 210 -11 m 204 67 q 245 79 228 67 q 274 113 263 92 q 294 156 286 133 q 306 199 301 179 q 313 229 311 218 l 361 574 q 352 590 358 579 q 331 610 346 600 q 288 619 317 619 q 236 603 253 619 q 213 558 219 586 q 200 493 206 529 l 150 160 q 150 110 146 129 q 163 83 154 92 q 183 70 172 74 q 204 67 194 67 m 157 758 l 306 897 l 382 897 l 492 758 l 413 758 l 336 839 l 239 758 l 157 758 m 489 840 l 578 975 l 706 975 l 571 840 l 489 840 z "},"ậ":{"ha":517,"x_min":14,"x_max":508,"o":"m 163 -11 q 108 -6 138 -11 q 57 17 79 -1 q 24 74 35 35 q 24 183 14 114 l 79 539 q 117 645 89 611 q 181 688 146 679 q 249 697 217 697 q 329 681 297 697 q 371 635 361 664 l 378 688 l 508 688 l 411 0 l 306 0 l 319 96 q 290 48 308 72 q 240 6 271 24 q 163 -11 210 -11 m 204 67 q 245 79 228 67 q 274 113 263 92 q 294 156 286 133 q 306 199 301 179 q 313 229 311 218 l 361 574 q 352 590 358 579 q 331 610 346 600 q 288 619 317 619 q 236 603 253 619 q 213 558 219 586 q 200 493 206 529 l 150 160 q 150 110 146 129 q 163 83 154 92 q 183 70 172 74 q 204 67 194 67 m 194 -168 q 153 -151 171 -168 q 136 -111 136 -135 q 153 -72 136 -87 q 194 -57 171 -57 q 236 -72 219 -57 q 253 -111 253 -87 q 236 -151 253 -135 q 194 -168 219 -168 m 157 758 l 306 897 l 382 897 l 492 758 l 413 758 l 336 839 l 239 758 l 157 758 z "},"ầ":{"ha":517,"x_min":14,"x_max":614,"o":"m 163 -11 q 108 -6 138 -11 q 57 17 79 -1 q 24 74 35 35 q 24 183 14 114 l 79 539 q 117 645 89 611 q 181 688 146 679 q 249 697 217 697 q 329 681 297 697 q 371 635 361 664 l 378 688 l 508 688 l 411 0 l 306 0 l 319 96 q 290 48 308 72 q 240 6 271 24 q 163 -11 210 -11 m 204 67 q 245 79 228 67 q 274 113 263 92 q 294 156 286 133 q 306 199 301 179 q 313 229 311 218 l 361 574 q 352 590 358 579 q 331 610 346 600 q 288 619 317 619 q 236 603 253 619 q 213 558 219 586 q 200 493 206 529 l 150 160 q 150 110 146 129 q 163 83 154 92 q 183 70 172 74 q 204 67 194 67 m 157 758 l 306 897 l 382 897 l 492 758 l 413 758 l 336 839 l 239 758 l 157 758 m 532 840 l 425 975 l 553 975 l 614 840 l 532 840 z "},"ẩ":{"ha":517,"x_min":14,"x_max":663,"o":"m 163 -11 q 108 -6 138 -11 q 57 17 79 -1 q 24 74 35 35 q 24 183 14 114 l 79 539 q 117 645 89 611 q 181 688 146 679 q 249 697 217 697 q 329 681 297 697 q 371 635 361 664 l 378 688 l 508 688 l 411 0 l 306 0 l 319 96 q 290 48 308 72 q 240 6 271 24 q 163 -11 210 -11 m 204 67 q 245 79 228 67 q 274 113 263 92 q 294 156 286 133 q 306 199 301 179 q 313 229 311 218 l 361 574 q 352 590 358 579 q 331 610 346 600 q 288 619 317 619 q 236 603 253 619 q 213 558 219 586 q 200 493 206 529 l 150 160 q 150 110 146 129 q 163 83 154 92 q 183 70 172 74 q 204 67 194 67 m 157 758 l 306 897 l 382 897 l 492 758 l 413 758 l 336 839 l 239 758 l 157 758 m 515 828 l 518 858 q 536 887 521 879 q 565 902 551 894 q 581 928 579 910 l 583 939 q 580 963 585 953 q 558 974 575 974 q 525 943 533 974 l 465 953 q 501 1006 475 988 q 571 1024 526 1024 q 642 1001 621 1024 q 658 935 664 978 l 657 931 q 644 890 654 901 q 621 875 633 879 q 599 867 608 871 q 588 850 589 863 l 586 828 l 515 828 z "},"ẫ":{"ha":517,"x_min":14,"x_max":513,"o":"m 163 -11 q 108 -6 138 -11 q 57 17 79 -1 q 24 74 35 35 q 24 183 14 114 l 79 539 q 117 645 89 611 q 181 688 146 679 q 249 697 217 697 q 329 681 297 697 q 371 635 361 664 l 378 688 l 508 688 l 411 0 l 306 0 l 319 96 q 290 48 308 72 q 240 6 271 24 q 163 -11 210 -11 m 204 67 q 245 79 228 67 q 274 113 263 92 q 294 156 286 133 q 306 199 301 179 q 313 229 311 218 l 361 574 q 352 590 358 579 q 331 610 346 600 q 288 619 317 619 q 236 603 253 619 q 213 558 219 586 q 200 493 206 529 l 150 160 q 150 110 146 129 q 163 83 154 92 q 183 70 172 74 q 204 67 194 67 m 157 758 l 306 897 l 382 897 l 492 758 l 413 758 l 336 839 l 239 758 l 157 758 m 407 929 q 372 936 388 929 q 340 956 357 943 q 314 972 328 964 q 283 979 300 979 q 253 967 265 979 q 235 931 240 954 l 192 931 q 227 1010 200 979 q 293 1042 254 1042 q 331 1034 314 1042 q 364 1015 347 1026 q 390 1001 378 1007 q 418 994 403 994 q 449 1006 438 994 q 468 1039 461 1018 l 513 1039 q 473 958 504 986 q 407 929 442 929 z "},"´":{"ha":200,"x_min":60,"x_max":276,"o":"m 60 760 l 149 894 l 276 894 l 142 760 l 60 760 z "},"́":{"ha":0,"x_min":60,"x_max":276,"o":"m 60 760 l 149 894 l 276 894 l 142 760 l 60 760 z "},"ä":{"ha":517,"x_min":14,"x_max":508,"o":"m 163 -11 q 108 -6 138 -11 q 57 17 79 -1 q 24 74 35 35 q 24 183 14 114 l 79 539 q 117 645 89 611 q 181 688 146 679 q 249 697 217 697 q 329 681 297 697 q 371 635 361 664 l 378 688 l 508 688 l 411 0 l 306 0 l 319 96 q 290 48 308 72 q 240 6 271 24 q 163 -11 210 -11 m 204 67 q 245 79 228 67 q 274 113 263 92 q 294 156 286 133 q 306 199 301 179 q 313 229 311 218 l 361 574 q 352 590 358 579 q 331 610 346 600 q 288 619 317 619 q 236 603 253 619 q 213 558 219 586 q 200 493 206 529 l 150 160 q 150 110 146 129 q 163 83 154 92 q 183 70 172 74 q 204 67 194 67 m 257 769 q 215 786 232 769 q 199 826 199 803 q 215 865 199 850 q 257 881 232 881 q 298 865 282 881 q 314 826 314 850 q 298 786 314 803 q 257 769 282 769 m 411 769 q 370 786 388 769 q 353 826 353 803 q 370 865 353 850 q 411 881 388 881 q 453 865 436 881 q 469 826 469 850 q 453 786 469 803 q 411 769 436 769 z "},"ạ":{"ha":517,"x_min":14,"x_max":508,"o":"m 163 -11 q 108 -6 138 -11 q 57 17 79 -1 q 24 74 35 35 q 24 183 14 114 l 79 539 q 117 645 89 611 q 181 688 146 679 q 249 697 217 697 q 329 681 297 697 q 371 635 361 664 l 378 688 l 508 688 l 411 0 l 306 0 l 319 96 q 290 48 308 72 q 240 6 271 24 q 163 -11 210 -11 m 204 67 q 245 79 228 67 q 274 113 263 92 q 294 156 286 133 q 306 199 301 179 q 313 229 311 218 l 361 574 q 352 590 358 579 q 331 610 346 600 q 288 619 317 619 q 236 603 253 619 q 213 558 219 586 q 200 493 206 529 l 150 160 q 150 110 146 129 q 163 83 154 92 q 183 70 172 74 q 204 67 194 67 m 194 -168 q 153 -151 171 -168 q 136 -111 136 -135 q 153 -72 136 -87 q 194 -57 171 -57 q 236 -72 219 -57 q 253 -111 253 -87 q 236 -151 253 -135 q 194 -168 219 -168 z "},"æ":{"ha":776,"x_min":11,"x_max":783,"o":"m 138 -7 q 97 -4 119 -7 q 53 12 74 -1 q 22 55 32 25 q 19 139 11 85 l 29 222 q 88 329 40 290 q 204 396 135 368 q 285 433 254 417 q 333 469 317 449 q 354 521 350 489 l 360 563 q 356 603 364 589 q 331 623 347 617 q 296 629 315 629 q 232 601 250 629 q 206 513 214 574 l 197 454 l 78 454 l 89 525 q 116 616 96 576 q 181 678 136 656 q 307 701 225 701 q 417 682 381 701 q 462 628 453 663 q 464 547 471 593 l 393 38 l 325 114 q 242 19 293 46 q 138 -7 192 -7 m 204 79 q 276 112 251 79 q 310 206 300 144 l 338 399 q 296 367 322 381 q 240 338 269 353 q 185 293 206 315 q 158 233 164 271 l 149 169 q 151 112 144 132 q 173 85 158 92 q 204 79 188 79 m 489 -3 q 406 3 442 -3 q 350 30 371 10 q 323 91 329 50 q 326 201 317 132 l 372 526 q 437 655 383 610 q 589 700 490 700 q 738 663 693 700 q 768 526 783 625 l 743 343 l 463 343 l 435 150 q 441 81 428 99 q 497 63 454 63 q 544 70 526 63 q 572 99 561 78 q 586 154 582 119 l 599 250 l 729 250 l 724 207 q 695 95 714 138 q 648 32 676 53 q 580 4 619 11 q 489 -3 540 -3 m 471 404 l 621 404 l 640 540 q 634 608 647 588 q 576 629 621 629 q 515 608 533 629 q 490 540 496 588 l 471 404 z "},"à":{"ha":517,"x_min":14,"x_max":508,"o":"m 163 -11 q 108 -6 138 -11 q 57 17 79 -1 q 24 74 35 35 q 24 183 14 114 l 79 539 q 117 645 89 611 q 181 688 146 679 q 249 697 217 697 q 329 681 297 697 q 371 635 361 664 l 378 688 l 508 688 l 411 0 l 306 0 l 319 96 q 290 48 308 72 q 240 6 271 24 q 163 -11 210 -11 m 204 67 q 245 79 228 67 q 274 113 263 92 q 294 156 286 133 q 306 199 301 179 q 313 229 311 218 l 361 574 q 352 590 358 579 q 331 610 346 600 q 288 619 317 619 q 236 603 253 619 q 213 558 219 586 q 200 493 206 529 l 150 160 q 150 110 146 129 q 163 83 154 92 q 183 70 172 74 q 204 67 194 67 m 301 760 l 194 894 l 322 894 l 383 760 l 301 760 z "},"ả":{"ha":517,"x_min":14,"x_max":508,"o":"m 163 -11 q 108 -6 138 -11 q 57 17 79 -1 q 24 74 35 35 q 24 183 14 114 l 79 539 q 117 645 89 611 q 181 688 146 679 q 249 697 217 697 q 329 681 297 697 q 371 635 361 664 l 378 688 l 508 688 l 411 0 l 306 0 l 319 96 q 290 48 308 72 q 240 6 271 24 q 163 -11 210 -11 m 204 67 q 245 79 228 67 q 274 113 263 92 q 294 156 286 133 q 306 199 301 179 q 313 229 311 218 l 361 574 q 352 590 358 579 q 331 610 346 600 q 288 619 317 619 q 236 603 253 619 q 213 558 219 586 q 200 493 206 529 l 150 160 q 150 110 146 129 q 163 83 154 92 q 183 70 172 74 q 204 67 194 67 m 283 747 l 286 778 q 304 806 289 799 q 333 822 319 814 q 349 847 347 829 l 351 858 q 348 883 353 872 q 326 893 343 893 q 293 863 301 893 l 233 872 q 269 925 243 907 q 339 943 294 943 q 410 920 389 943 q 426 854 432 897 l 425 850 q 412 810 422 821 q 389 794 401 799 q 367 786 376 790 q 356 769 357 782 l 354 747 l 283 747 z "},"ā":{"ha":517,"x_min":14,"x_max":508,"o":"m 163 -11 q 108 -6 138 -11 q 57 17 79 -1 q 24 74 35 35 q 24 183 14 114 l 79 539 q 117 645 89 611 q 181 688 146 679 q 249 697 217 697 q 329 681 297 697 q 371 635 361 664 l 378 688 l 508 688 l 411 0 l 306 0 l 319 96 q 290 48 308 72 q 240 6 271 24 q 163 -11 210 -11 m 204 67 q 245 79 228 67 q 274 113 263 92 q 294 156 286 133 q 306 199 301 179 q 313 229 311 218 l 361 574 q 352 590 358 579 q 331 610 346 600 q 288 619 317 619 q 236 603 253 619 q 213 558 219 586 q 200 493 206 529 l 150 160 q 150 110 146 129 q 163 83 154 92 q 183 70 172 74 q 204 67 194 67 m 185 782 l 194 849 l 469 849 l 460 782 l 185 782 z "},"&":{"ha":653,"x_min":19,"x_max":615,"o":"m 211 -7 q 93 22 136 -7 q 35 101 50 50 q 29 222 19 153 q 76 346 40 294 q 175 413 113 397 q 157 469 164 435 q 158 549 150 504 q 220 664 172 622 q 356 706 268 706 q 438 699 399 706 q 504 686 476 693 q 543 674 532 679 l 528 576 q 501 584 525 578 q 444 597 478 590 q 374 603 410 603 q 314 587 338 603 q 281 547 290 571 q 273 495 271 522 q 288 443 275 468 q 307 408 293 431 q 338 362 321 386 q 369 317 354 338 q 390 288 383 297 l 411 421 l 615 421 l 603 338 l 488 338 q 479 284 483 306 q 472 247 475 263 q 464 213 469 231 q 524 155 493 182 q 572 117 554 128 l 557 -3 q 489 29 531 -1 q 407 100 447 60 q 353 35 385 58 q 285 2 321 11 q 211 -7 249 -7 m 229 83 q 301 106 272 83 q 342 164 331 128 q 269 258 304 211 q 211 340 233 306 q 162 306 182 331 q 136 233 142 282 q 150 122 124 160 q 229 83 176 83 z "},"ą":{"ha":517,"x_min":14,"x_max":508,"o":"m 163 -11 q 108 -6 138 -11 q 57 17 79 -1 q 24 74 35 35 q 24 183 14 114 l 79 539 q 117 645 89 611 q 181 688 146 679 q 249 697 217 697 q 329 681 297 697 q 371 635 361 664 l 378 688 l 508 688 l 411 0 l 306 0 l 319 96 q 290 48 308 72 q 240 6 271 24 q 163 -11 210 -11 m 204 67 q 245 79 228 67 q 274 113 263 92 q 294 156 286 133 q 306 199 301 179 q 313 229 311 218 l 361 574 q 352 590 358 579 q 331 610 346 600 q 288 619 317 619 q 236 603 253 619 q 213 558 219 586 q 200 493 206 529 l 150 160 q 150 110 146 129 q 163 83 154 92 q 183 70 172 74 q 204 67 194 67 m 326 -196 q 253 -170 279 -196 q 231 -110 226 -144 q 272 -39 238 -71 q 350 1 306 -7 l 406 0 q 345 -40 367 -14 q 319 -92 324 -67 q 332 -132 317 -118 q 365 -146 347 -146 q 385 -143 376 -146 q 397 -139 394 -140 l 410 -175 q 381 -188 400 -181 q 326 -196 361 -196 z "},"≈":{"ha":707,"x_min":24,"x_max":683,"o":"m 497 435 q 408 451 450 436 q 325 481 367 465 q 232 499 283 497 q 167 479 193 500 q 135 433 140 458 l 64 433 q 99 513 74 479 q 165 565 125 546 q 250 583 204 585 q 338 568 297 582 q 419 540 378 554 q 507 524 460 526 q 575 541 551 522 q 604 582 599 560 l 683 582 q 642 488 674 521 q 573 444 611 454 q 497 435 535 433 m 456 142 q 368 158 410 143 q 284 189 326 174 q 190 206 242 204 q 126 187 153 207 q 94 140 99 167 l 24 140 q 58 220 32 186 q 124 274 85 254 q 208 292 163 293 q 297 276 256 290 q 378 247 338 261 q 467 232 419 233 q 535 249 511 231 q 564 290 558 268 l 643 290 q 601 196 632 229 q 532 151 571 163 q 456 142 493 140 z "},"å":{"ha":517,"x_min":14,"x_max":508,"o":"m 163 -11 q 108 -6 138 -11 q 57 17 79 -1 q 24 74 35 35 q 24 183 14 114 l 79 539 q 117 645 89 611 q 181 688 146 679 q 249 697 217 697 q 329 681 297 697 q 371 635 361 664 l 378 688 l 508 688 l 411 0 l 306 0 l 319 96 q 290 48 308 72 q 240 6 271 24 q 163 -11 210 -11 m 204 67 q 245 79 228 67 q 274 113 263 92 q 294 156 286 133 q 306 199 301 179 q 313 229 311 218 l 361 574 q 352 590 358 579 q 331 610 346 600 q 288 619 317 619 q 236 603 253 619 q 213 558 219 586 q 200 493 206 529 l 150 160 q 150 110 146 129 q 163 83 154 92 q 183 70 172 74 q 204 67 194 67 m 322 753 q 244 785 272 753 q 222 861 215 817 q 265 940 228 908 q 353 972 303 972 q 433 940 404 972 q 454 861 461 908 q 409 785 449 817 q 322 753 369 753 m 331 808 q 374 824 356 808 q 396 861 393 839 q 385 903 399 888 q 346 918 371 918 q 301 903 319 918 q 281 861 283 888 q 291 824 278 839 q 331 808 304 808 z "},"^":{"ha":569,"x_min":35,"x_max":494,"o":"m 35 688 l 272 961 l 338 961 l 494 688 l 386 688 l 290 857 l 147 688 l 35 688 z "},"~":{"ha":707,"x_min":44,"x_max":663,"o":"m 475 706 q 388 722 429 707 q 305 753 347 738 q 211 769 263 768 q 147 751 172 771 q 115 706 121 731 l 44 706 q 79 785 53 750 q 144 838 106 819 q 229 856 183 857 q 317 841 276 856 q 398 812 357 826 q 488 796 439 797 q 556 813 532 794 q 583 854 579 832 l 663 854 q 622 760 651 793 q 552 717 592 728 q 475 706 513 706 z "},"*":{"ha":789,"x_min":60,"x_max":706,"o":"m 206 128 l 113 204 l 342 411 l 60 451 l 126 588 l 363 451 l 357 736 l 490 736 l 407 451 l 683 585 l 706 458 l 417 411 l 589 206 l 472 131 l 376 383 l 206 128 z "},"@":{"ha":974,"x_min":28,"x_max":950,"o":"m 411 -93 q 160 -42 246 -93 q 51 108 75 10 q 47 349 28 207 q 199 698 79 574 q 544 824 318 822 q 767 783 672 825 q 906 649 861 740 q 929 411 950 558 q 883 240 917 313 q 801 129 850 168 q 694 90 753 90 q 637 103 661 90 q 597 136 613 115 q 573 183 581 157 q 568 239 565 210 l 597 233 q 517 144 564 171 q 411 118 471 118 q 310 150 346 118 q 286 263 275 182 q 308 331 292 301 q 363 383 324 360 q 479 426 403 407 q 540 449 515 435 q 572 475 564 464 q 584 494 581 483 q 589 515 588 504 q 578 565 593 549 q 521 581 564 581 q 453 562 475 581 q 425 503 431 543 l 419 461 l 328 461 l 335 507 q 360 583 342 553 q 417 626 378 613 q 529 640 457 640 q 638 624 601 640 q 686 576 675 608 q 690 494 697 544 l 656 253 q 667 170 649 194 q 718 146 685 146 q 773 169 746 146 q 822 249 800 193 q 857 397 844 304 q 846 593 874 510 q 744 722 818 676 q 546 768 671 768 q 335 728 422 768 q 195 595 249 688 q 119 346 142 503 q 119 153 103 228 q 177 38 135 78 q 284 -19 219 -3 q 429 -36 349 -35 q 502 -32 457 -36 q 599 -20 547 -28 q 696 -1 650 -12 q 768 22 742 10 l 760 -33 q 681 -59 732 -44 q 560 -83 629 -74 q 411 -93 492 -93 m 451 189 q 510 204 486 189 q 547 240 533 219 q 563 279 560 261 l 579 401 q 530 389 557 397 q 479 369 503 381 q 427 344 447 357 q 396 313 407 331 q 382 268 385 296 q 390 208 376 228 q 451 189 404 189 z "},"ã":{"ha":517,"x_min":14,"x_max":508,"o":"m 163 -11 q 108 -6 138 -11 q 57 17 79 -1 q 24 74 35 35 q 24 183 14 114 l 79 539 q 117 645 89 611 q 181 688 146 679 q 249 697 217 697 q 329 681 297 697 q 371 635 361 664 l 378 688 l 508 688 l 411 0 l 306 0 l 319 96 q 290 48 308 72 q 240 6 271 24 q 163 -11 210 -11 m 204 67 q 245 79 228 67 q 274 113 263 92 q 294 156 286 133 q 306 199 301 179 q 313 229 311 218 l 361 574 q 352 590 358 579 q 331 610 346 600 q 288 619 317 619 q 236 603 253 619 q 213 558 219 586 q 200 493 206 529 l 150 160 q 150 110 146 129 q 163 83 154 92 q 183 70 172 74 q 204 67 194 67 m 388 767 q 353 774 368 767 q 321 793 338 781 q 294 809 308 801 q 264 817 281 817 q 233 804 246 817 q 215 768 221 792 l 172 768 q 208 848 181 817 q 274 879 235 879 q 311 872 294 879 q 344 853 328 864 q 371 838 358 844 q 399 832 383 832 q 430 844 418 832 q 449 876 442 856 l 493 876 q 453 795 485 824 q 388 767 422 767 z "},"b":{"ha":519,"x_min":11,"x_max":506,"o":"m 244 -10 q 153 14 181 -10 q 117 63 125 38 l 104 0 l 11 0 l 135 875 l 265 875 l 232 642 q 280 683 249 664 q 365 701 311 701 q 435 691 407 701 q 479 660 463 681 q 501 607 496 639 q 500 532 506 575 l 453 194 q 428 98 444 138 q 388 35 413 58 q 328 1 364 13 q 244 -10 293 -10 m 229 81 q 285 95 268 81 q 310 134 303 110 q 319 185 317 158 l 367 517 q 370 556 369 538 q 367 588 371 574 q 348 609 363 601 q 306 617 333 617 q 254 605 272 617 q 228 574 236 593 q 217 528 221 554 l 171 203 q 167 159 168 181 q 169 119 165 138 q 187 91 172 101 q 229 81 201 81 z "},"\\":{"ha":750,"x_min":121,"x_max":560,"o":"m 465 -62 l 121 875 l 217 875 l 560 -62 l 465 -62 z "},"|":{"ha":368,"x_min":42,"x_max":326,"o":"m 42 -335 l 213 875 l 326 875 l 156 -335 l 42 -335 z "},"б":{"ha":514,"x_min":14,"x_max":499,"o":"m 201 -10 q 93 7 136 -10 q 32 63 50 24 q 24 169 14 103 l 92 664 q 123 777 101 733 q 181 842 144 821 q 275 864 218 864 q 326 866 297 864 q 383 872 354 868 q 436 881 411 876 q 478 891 461 886 q 499 901 494 896 q 495 874 497 888 q 490 846 493 861 q 460 808 489 826 q 375 788 432 789 l 356 788 q 284 776 311 788 q 244 741 257 765 q 224 678 231 717 l 213 600 q 262 643 229 624 q 350 663 294 663 q 434 647 400 663 q 483 594 468 631 q 488 493 497 558 l 447 203 q 420 97 438 138 q 374 32 403 56 q 302 -1 344 8 q 201 -10 260 -10 m 217 67 q 272 80 253 67 q 299 117 290 93 q 313 169 308 140 l 356 481 q 358 532 361 510 q 341 567 356 554 q 292 579 326 579 q 244 572 263 579 q 217 551 226 564 q 203 522 207 538 q 196 492 199 507 l 153 169 q 150 117 147 140 q 168 80 153 93 q 217 67 183 67 z "},"{":{"ha":449,"x_min":43,"x_max":446,"o":"m 290 -189 q 138 -158 193 -186 q 63 -87 83 -131 q 50 6 43 -44 q 77 88 57 53 q 121 151 97 124 q 163 206 144 179 q 186 263 181 232 q 176 308 189 289 q 138 338 163 326 q 81 350 114 349 l 86 389 q 143 402 115 390 q 191 435 171 414 q 214 485 211 457 q 207 537 218 511 q 181 590 196 563 q 156 651 165 618 q 151 726 146 685 q 189 823 158 781 q 282 892 219 865 q 446 924 344 918 l 436 850 q 370 835 400 844 q 319 801 340 825 q 292 726 299 776 q 293 655 286 686 q 312 597 300 624 q 331 542 324 571 q 332 476 338 513 q 316 434 329 457 q 277 394 303 411 q 211 369 251 376 q 284 336 258 361 q 304 267 310 311 q 285 207 299 235 q 253 151 271 179 q 220 92 235 124 q 200 18 206 60 q 208 -60 193 -32 q 248 -102 222 -89 q 300 -118 274 -115 l 290 -189 z "},"}":{"ha":449,"x_min":3,"x_max":406,"o":"m 3 -189 l 13 -118 q 69 -102 40 -115 q 122 -60 99 -89 q 151 18 144 -32 q 151 92 157 60 q 135 151 146 124 q 119 207 125 179 q 118 267 113 235 q 156 336 124 311 q 239 369 189 361 q 180 394 201 376 q 151 434 158 411 q 147 476 144 457 q 167 542 151 513 q 202 597 183 571 q 237 655 221 624 q 258 726 253 686 q 252 801 265 776 q 211 835 239 825 q 149 850 183 844 l 158 924 q 315 892 260 918 q 388 823 369 865 q 399 726 406 781 q 373 651 393 685 q 331 590 353 618 q 290 537 308 563 q 268 485 272 511 q 278 435 265 457 q 317 402 292 414 q 368 389 342 390 l 364 350 q 303 338 331 349 q 256 308 275 326 q 235 263 238 289 q 240 206 229 232 q 267 151 251 179 q 294 88 283 124 q 297 6 304 53 q 258 -87 290 -44 q 164 -158 226 -131 q 3 -189 101 -186 z "},"[":{"ha":421,"x_min":-4,"x_max":425,"o":"m -4 -79 l 129 875 l 425 875 l 415 804 l 242 804 l 128 -8 l 301 -8 l 292 -79 l -4 -79 z "},"]":{"ha":421,"x_min":-4,"x_max":425,"o":"m -4 -79 l 4 -8 l 179 -8 l 293 804 l 118 804 l 129 875 l 425 875 l 292 -79 l -4 -79 z "},"˘":{"ha":300,"x_min":75,"x_max":376,"o":"m 206 760 q 134 773 161 760 q 94 807 107 786 q 78 851 82 828 q 78 893 75 874 l 150 893 q 168 841 149 858 q 217 824 188 824 q 272 840 247 824 q 303 893 296 857 l 376 893 q 351 829 371 860 q 297 779 332 799 q 206 760 261 760 z "},"̆":{"ha":0,"x_min":75,"x_max":376,"o":"m 206 760 q 134 773 161 760 q 94 807 107 786 q 78 851 82 828 q 78 893 75 874 l 150 893 q 168 841 149 858 q 217 824 188 824 q 272 840 247 824 q 303 893 296 857 l 376 893 q 351 829 371 860 q 297 779 332 799 q 206 760 261 760 z "},"¦":{"ha":317,"x_min":28,"x_max":289,"o":"m 28 -233 l 94 242 l 208 242 l 142 -233 l 28 -233 m 113 376 l 175 813 l 289 813 l 228 376 l 113 376 z "},"•":{"ha":528,"x_min":75,"x_max":454,"o":"m 265 199 q 169 224 213 199 q 101 293 126 250 q 75 389 75 336 q 101 484 75 442 q 169 552 126 526 q 265 578 213 578 q 360 552 318 578 q 428 484 403 526 q 454 389 454 442 q 428 293 454 336 q 360 224 403 250 q 265 199 318 199 z "},"c":{"ha":499,"x_min":17,"x_max":499,"o":"m 203 -15 q 114 -7 151 -15 q 53 24 76 1 q 24 90 31 47 q 26 201 17 132 l 72 526 q 142 663 88 625 q 303 700 197 700 q 453 663 408 700 q 483 526 499 625 l 471 431 l 340 431 l 356 540 q 350 608 363 588 q 293 629 338 629 q 231 608 250 629 q 206 540 211 588 l 150 150 q 156 78 143 99 q 211 57 169 57 q 274 78 256 57 q 300 150 293 99 l 317 269 l 447 269 l 439 201 q 397 63 426 110 q 319 1 368 17 q 203 -15 271 -15 z "},"ć":{"ha":499,"x_min":17,"x_max":499,"o":"m 203 -15 q 114 -7 151 -15 q 53 24 76 1 q 24 90 31 47 q 26 201 17 132 l 72 526 q 142 663 88 625 q 303 700 197 700 q 453 663 408 700 q 483 526 499 625 l 471 431 l 340 431 l 356 540 q 350 608 363 588 q 293 629 338 629 q 231 608 250 629 q 206 540 211 588 l 150 150 q 156 78 143 99 q 211 57 169 57 q 274 78 256 57 q 300 150 293 99 l 317 269 l 447 269 l 439 201 q 397 63 426 110 q 319 1 368 17 q 203 -15 271 -15 m 240 760 l 329 894 l 457 894 l 322 760 l 240 760 z "},"ˇ":{"ha":335,"x_min":78,"x_max":413,"o":"m 186 758 l 78 897 l 160 897 l 235 818 l 333 897 l 413 897 l 264 758 l 186 758 z "},"̌":{"ha":0,"x_min":78,"x_max":413,"o":"m 186 758 l 78 897 l 160 897 l 235 818 l 333 897 l 413 897 l 264 758 l 186 758 z "},"č":{"ha":499,"x_min":17,"x_max":499,"o":"m 203 -15 q 114 -7 151 -15 q 53 24 76 1 q 24 90 31 47 q 26 201 17 132 l 72 526 q 142 663 88 625 q 303 700 197 700 q 453 663 408 700 q 483 526 499 625 l 471 431 l 340 431 l 356 540 q 350 608 363 588 q 293 629 338 629 q 231 608 250 629 q 206 540 211 588 l 150 150 q 156 78 143 99 q 211 57 169 57 q 274 78 256 57 q 300 150 293 99 l 317 269 l 447 269 l 439 201 q 397 63 426 110 q 319 1 368 17 q 203 -15 271 -15 m 272 758 l 164 897 l 246 897 l 321 818 l 419 897 l 499 897 l 350 758 l 272 758 z "},"ç":{"ha":499,"x_min":17,"x_max":499,"o":"m 203 -15 q 114 -7 151 -15 q 53 24 76 1 q 24 90 31 47 q 26 201 17 132 l 72 526 q 142 663 88 625 q 303 700 197 700 q 453 663 408 700 q 483 526 499 625 l 471 431 l 340 431 l 356 540 q 350 608 363 588 q 293 629 338 629 q 231 608 250 629 q 206 540 211 588 l 150 150 q 156 78 143 99 q 211 57 169 57 q 274 78 256 57 q 300 150 293 99 l 317 269 l 447 269 l 439 201 q 397 63 426 110 q 319 1 368 17 q 203 -15 271 -15 m 167 -211 q 122 -202 142 -211 q 93 -187 103 -193 l 118 -144 q 140 -156 125 -150 q 168 -162 156 -162 q 206 -151 193 -162 q 221 -124 219 -140 q 190 -90 226 -90 q 172 -94 181 -90 q 157 -101 164 -97 l 124 -81 l 178 0 l 231 0 l 183 -67 l 176 -64 q 199 -54 186 -57 q 228 -51 213 -51 q 282 -74 265 -51 q 296 -124 299 -97 q 256 -186 290 -161 q 167 -211 222 -211 z "},"ċ":{"ha":499,"x_min":17,"x_max":499,"o":"m 203 -15 q 114 -7 151 -15 q 53 24 76 1 q 24 90 31 47 q 26 201 17 132 l 72 526 q 142 663 88 625 q 303 700 197 700 q 453 663 408 700 q 483 526 499 625 l 471 431 l 340 431 l 356 540 q 350 608 363 588 q 293 629 338 629 q 231 608 250 629 q 206 540 211 588 l 150 150 q 156 78 143 99 q 211 57 169 57 q 274 78 256 57 q 300 150 293 99 l 317 269 l 447 269 l 439 201 q 397 63 426 110 q 319 1 368 17 q 203 -15 271 -15 m 318 761 q 269 781 290 761 q 249 829 249 801 q 269 878 249 858 q 319 897 290 897 q 369 878 349 897 q 390 829 390 858 q 370 781 392 801 q 318 761 349 761 z "},"¸":{"ha":193,"x_min":-75,"x_max":132,"o":"m -1 -210 q -46 -201 -26 -210 q -75 -186 -65 -192 l -50 -143 q -28 -155 -43 -149 q 0 -161 -12 -161 q 38 -150 25 -161 q 53 -122 51 -139 q 22 -89 58 -89 q 4 -92 13 -89 q -11 -100 -4 -96 l -44 -79 l 10 1 l 63 1 l 15 -65 l 8 -62 q 31 -53 18 -56 q 60 -50 44 -50 q 114 -73 97 -50 q 128 -122 131 -96 q 88 -185 122 -160 q -1 -210 54 -210 z "},"̧":{"ha":0,"x_min":-85,"x_max":121,"o":"m -11 -210 q -56 -201 -36 -210 q -85 -186 -75 -192 l -60 -143 q -37 -155 -53 -149 q -10 -161 -22 -161 q 28 -150 15 -161 q 43 -122 42 -139 q 13 -89 49 -89 q -6 -92 3 -89 q -21 -100 -14 -96 l -54 -79 l 0 1 l 53 1 l 6 -65 l -1 -62 q 22 -53 8 -56 q 50 -50 35 -50 q 104 -73 88 -50 q 118 -122 121 -96 q 78 -185 113 -160 q -11 -210 44 -210 z "},"¢":{"ha":499,"x_min":24,"x_max":483,"o":"m 140 -90 l 163 68 q 83 88 117 72 q 37 142 50 103 q 33 254 24 181 l 85 626 q 117 715 93 682 q 179 763 142 747 q 263 781 217 778 l 279 900 l 364 900 l 346 778 q 420 757 389 772 q 467 710 451 742 q 475 626 483 679 l 457 493 l 342 493 l 361 632 q 358 683 367 667 q 331 706 349 700 q 292 713 314 713 q 252 706 271 713 q 220 683 233 700 q 201 632 207 667 l 143 218 q 147 165 139 182 q 173 141 156 147 q 211 135 190 135 q 253 141 235 135 q 285 165 272 147 q 303 218 299 182 l 321 340 l 435 340 l 422 254 q 389 149 414 188 q 328 93 364 110 q 247 72 292 76 l 225 -90 l 140 -90 z "},"ч":{"ha":503,"x_min":26,"x_max":490,"o":"m 271 0 l 306 244 q 251 180 290 204 q 163 156 211 156 q 69 178 99 156 q 33 242 39 200 q 35 340 26 283 l 85 688 l 215 688 l 165 339 q 171 269 160 293 q 224 244 182 244 q 276 260 256 244 q 304 293 296 276 l 360 688 l 490 688 l 393 0 l 271 0 z "},"ˆ":{"ha":335,"x_min":58,"x_max":393,"o":"m 58 758 l 207 897 l 283 897 l 393 758 l 314 758 l 238 839 l 140 758 l 58 758 z "},"̂":{"ha":0,"x_min":58,"x_max":393,"o":"m 58 758 l 207 897 l 283 897 l 393 758 l 314 758 l 238 839 l 140 758 l 58 758 z "},":":{"ha":206,"x_min":25,"x_max":146,"o":"m 107 390 q 86 399 94 390 q 79 421 78 408 q 92 442 82 433 q 115 451 103 451 q 137 442 128 451 q 143 421 146 433 q 131 399 142 408 q 107 390 119 390 m 54 -7 q 33 2 42 -7 q 26 24 25 11 q 40 45 29 36 q 63 54 50 54 q 84 45 75 54 q 90 24 93 36 q 78 2 89 11 q 54 -7 67 -7 z "},",":{"ha":289,"x_min":-6,"x_max":178,"o":"m -6 -190 q 42 -112 19 -149 q 65 -42 64 -75 q 60 -9 67 -19 q 44 13 53 1 q 36 47 36 24 q 58 96 36 75 q 111 117 79 117 q 160 99 142 117 q 178 51 178 81 q 158 -26 178 18 q 109 -114 138 -71 q 53 -190 81 -157 l -6 -190 z "},"̦":{"ha":0,"x_min":-89,"x_max":61,"o":"m -89 -244 q -49 -188 -62 -212 q -35 -151 -35 -164 q -40 -135 -33 -142 q -54 -119 -47 -129 q -60 -94 -61 -110 q -40 -62 -58 -78 q 3 -47 -22 -47 q 46 -62 31 -47 q 58 -100 61 -76 q 42 -144 57 -118 q 7 -197 28 -171 q -35 -244 -14 -224 l -89 -244 z "},"̒":{"ha":0,"x_min":63,"x_max":211,"o":"m 211 944 q 173 888 188 913 q 157 851 158 864 q 165 836 157 843 q 178 820 172 829 q 183 794 185 811 q 164 763 182 778 q 119 749 146 749 q 78 763 93 749 q 65 800 63 778 q 82 844 67 818 q 118 898 97 871 q 157 944 139 925 l 211 944 z "},"©":{"ha":833,"x_min":35,"x_max":844,"o":"m 386 42 q 197 94 278 42 q 75 235 115 147 q 50 432 35 324 q 101 584 61 514 q 203 708 142 654 q 339 791 264 761 q 494 821 414 821 q 683 769 603 821 q 804 628 764 717 q 829 433 844 540 q 778 282 818 353 q 677 156 738 211 q 542 72 617 101 q 386 42 467 42 m 392 94 q 527 121 463 94 q 644 194 592 147 q 731 303 696 242 q 774 433 765 364 q 754 601 789 525 q 650 723 719 678 q 488 768 581 768 q 353 742 418 768 q 236 669 289 715 q 149 563 183 624 q 104 432 114 501 q 113 303 96 364 q 170 194 131 242 q 267 121 210 147 q 392 94 324 94 m 390 210 q 328 215 354 210 q 288 235 301 221 q 271 278 274 250 q 279 351 268 306 l 326 561 q 382 651 342 626 q 497 675 422 675 q 599 651 571 675 q 613 561 628 626 l 599 499 l 510 499 l 526 571 q 524 615 533 601 q 485 628 515 628 q 439 615 453 628 q 418 571 425 601 l 360 315 q 361 270 353 283 q 401 257 369 257 q 447 270 432 257 q 468 315 461 283 l 488 396 l 576 396 l 567 351 q 528 260 551 292 q 472 219 506 229 q 390 210 438 210 z "},"¤":{"ha":693,"x_min":54,"x_max":639,"o":"m 124 132 l 60 196 l 181 315 q 155 364 164 339 q 146 417 146 389 q 179 521 146 474 l 54 646 l 115 708 l 244 581 q 343 607 292 607 q 444 581 396 607 l 571 706 l 633 643 l 510 519 q 542 417 542 472 q 511 318 542 364 l 639 190 l 576 128 l 446 258 q 395 237 421 244 q 343 229 369 229 q 244 254 289 229 l 124 132 m 343 319 q 413 348 385 319 q 442 417 442 376 q 413 488 442 458 q 343 517 385 517 q 274 488 301 517 q 246 417 246 460 q 274 348 246 376 q 343 319 301 319 z "},"d":{"ha":519,"x_min":18,"x_max":535,"o":"m 174 -10 q 94 1 126 -10 q 44 34 61 11 q 22 97 26 57 q 26 194 18 136 l 74 532 q 105 626 82 589 q 165 680 128 663 q 251 697 203 697 q 334 681 307 697 q 372 642 361 664 l 404 875 l 535 875 l 411 0 l 322 0 l 318 65 q 292 33 310 50 q 246 3 275 15 q 174 -10 217 -10 m 211 65 q 257 76 240 65 q 283 103 274 86 q 299 142 293 121 q 307 185 304 163 q 334 380 321 283 q 361 574 347 476 q 354 592 361 582 q 333 610 347 603 q 292 618 318 618 q 238 604 256 618 q 213 567 219 590 q 201 517 206 544 l 153 167 q 149 128 150 146 q 153 96 149 110 q 172 74 158 82 q 211 65 185 65 z "},"†":{"ha":522,"x_min":72,"x_max":496,"o":"m 133 -169 l 219 447 l 72 447 l 82 522 l 231 522 l 272 813 l 386 813 l 344 522 l 496 522 l 486 447 l 335 447 l 247 -169 l 133 -169 z "},"‡":{"ha":528,"x_min":35,"x_max":501,"o":"m 133 -169 l 185 196 l 35 196 l 46 279 l 196 279 l 221 460 l 71 460 l 83 543 l 233 543 l 276 846 l 392 846 l 349 543 l 501 543 l 490 460 l 336 460 l 311 279 l 465 279 l 453 196 l 300 196 l 247 -169 l 133 -169 z "},"ď":{"ha":604,"x_min":18,"x_max":699,"o":"m 174 -10 q 94 1 126 -10 q 44 34 61 11 q 22 97 26 57 q 26 194 18 136 l 74 532 q 105 626 82 589 q 165 680 128 663 q 251 697 203 697 q 334 681 307 697 q 372 642 361 664 l 404 875 l 535 875 l 411 0 l 322 0 l 318 65 q 292 33 310 50 q 246 3 275 15 q 174 -10 217 -10 m 211 65 q 257 76 240 65 q 283 103 274 86 q 299 142 293 121 q 307 185 304 163 q 334 380 321 283 q 361 574 347 476 q 354 592 361 582 q 333 610 347 603 q 292 618 318 618 q 238 604 256 618 q 213 567 219 590 q 201 517 206 544 l 153 167 q 149 128 150 146 q 153 96 149 110 q 172 74 158 82 q 211 65 185 65 m 560 706 l 617 900 l 699 900 l 607 706 l 560 706 z "},"đ":{"ha":513,"x_min":18,"x_max":575,"o":"m 254 753 l 261 806 l 575 806 l 568 753 l 254 753 m 174 -10 q 94 1 126 -10 q 44 34 61 11 q 22 97 26 57 q 26 194 18 136 l 74 532 q 105 626 82 589 q 165 680 128 663 q 251 697 203 697 q 334 681 307 697 q 372 642 361 664 l 404 875 l 535 875 l 411 0 l 322 0 l 318 65 q 292 33 310 50 q 246 3 275 15 q 174 -10 217 -10 m 211 65 q 257 76 240 65 q 283 103 274 86 q 299 142 293 121 q 307 185 304 163 q 334 380 321 283 q 361 574 347 476 q 354 592 361 582 q 333 610 347 603 q 292 618 318 618 q 238 604 256 618 q 213 567 219 590 q 201 517 206 544 l 153 167 q 149 128 150 146 q 153 96 149 110 q 172 74 158 82 q 211 65 185 65 z "},"д":{"ha":719,"x_min":-42,"x_max":664,"o":"m -42 -154 l -8 78 l 46 78 q 82 93 63 81 q 120 133 101 106 q 149 204 139 160 l 268 688 l 639 688 l 554 78 l 664 78 l 631 -154 l 521 -154 l 539 -24 l 86 -24 l 68 -154 l -42 -154 m 221 78 l 415 78 l 488 592 l 375 592 l 281 218 q 258 138 271 181 q 221 78 244 94 z "},"°":{"ha":454,"x_min":44,"x_max":406,"o":"m 203 483 q 79 533 114 483 q 54 651 44 582 q 110 772 64 722 q 253 821 157 821 q 351 798 318 821 q 395 737 385 775 q 400 654 406 699 q 340 531 389 579 q 203 483 292 483 m 213 544 q 290 574 260 544 q 328 653 321 604 q 313 728 335 696 q 242 761 292 761 q 165 730 196 761 q 126 651 133 699 q 144 574 119 604 q 213 544 169 544 z "},"¨":{"ha":271,"x_min":68,"x_max":339,"o":"m 126 769 q 85 786 101 769 q 68 826 68 803 q 85 865 68 850 q 126 881 101 881 q 167 865 151 881 q 183 826 183 850 q 167 786 183 803 q 126 769 151 769 m 281 769 q 240 786 257 769 q 222 826 222 803 q 240 865 222 850 q 281 881 257 881 q 322 865 306 881 q 339 826 339 850 q 322 786 339 803 q 281 769 306 769 z "},"̈":{"ha":0,"x_min":68,"x_max":339,"o":"m 126 769 q 85 786 101 769 q 68 826 68 803 q 85 865 68 850 q 126 881 101 881 q 167 865 151 881 q 183 826 183 850 q 167 786 183 803 q 126 769 151 769 m 281 769 q 240 786 257 769 q 222 826 222 803 q 240 865 222 850 q 281 881 257 881 q 322 865 306 881 q 339 826 339 850 q 322 786 339 803 q 281 769 306 769 z "},"÷":{"ha":528,"x_min":57,"x_max":472,"o":"m 57 357 l 69 446 l 472 446 l 461 357 l 57 357 m 224 108 q 178 126 194 108 q 165 171 163 143 q 191 217 169 199 q 240 235 213 235 q 286 217 269 235 q 300 171 303 199 q 274 126 296 143 q 224 108 251 108 m 285 556 q 240 574 257 556 q 228 619 224 593 q 253 666 232 647 q 303 685 275 685 q 348 666 331 685 q 361 619 365 647 q 335 574 358 593 q 285 556 313 556 z "},"∕":{"ha":436,"x_min":-133,"x_max":589,"o":"m -133 -189 l 493 988 l 589 988 l -39 -189 l -133 -189 z "},"ђ":{"ha":585,"x_min":58,"x_max":549,"o":"m 290 -128 q 252 -122 269 -128 q 222 -108 235 -117 q 231 -79 228 -94 q 239 -49 235 -64 q 254 -56 246 -53 q 274 -58 263 -58 q 333 -28 314 -58 q 360 57 351 1 l 410 417 q 408 462 413 443 q 388 491 403 481 q 343 501 374 501 q 294 490 313 501 q 267 461 276 479 q 254 425 258 443 q 247 393 250 407 l 190 0 l 58 0 l 157 699 l 65 699 l 76 771 l 167 771 l 182 875 l 314 875 l 299 771 l 426 771 l 418 699 l 290 699 l 263 514 q 315 563 281 542 q 401 583 349 583 q 486 567 453 583 q 534 515 519 551 q 540 414 549 478 l 494 88 q 463 -34 483 10 q 416 -98 443 -78 q 357 -123 389 -118 q 290 -128 325 -128 z "},"$":{"ha":486,"x_min":10,"x_max":486,"o":"m 149 -83 l 169 69 q 38 124 67 75 q 24 271 10 172 l 31 322 l 154 322 l 144 246 q 140 192 140 217 q 153 155 139 168 q 204 142 167 142 q 256 155 239 142 q 281 188 274 168 q 290 226 288 208 l 296 274 q 292 331 301 308 q 258 369 282 353 q 197 400 235 385 q 131 437 161 417 q 86 490 101 457 q 78 574 71 522 l 83 614 q 138 731 96 688 q 269 782 181 775 l 289 917 l 360 917 l 342 783 q 458 731 429 776 q 474 593 486 685 l 465 539 l 346 539 l 356 614 q 350 690 364 668 q 297 711 336 711 q 236 690 254 711 q 214 635 218 668 l 207 588 q 217 528 201 550 q 260 492 232 506 q 322 463 288 478 q 385 428 357 447 q 426 378 413 410 q 432 292 439 346 l 426 254 q 401 167 419 207 q 344 102 382 128 q 240 71 307 76 l 219 -83 l 149 -83 z "},"˙":{"ha":117,"x_min":69,"x_max":213,"o":"m 139 761 q 90 781 111 761 q 69 829 69 801 q 90 878 69 858 q 140 897 111 897 q 190 878 169 897 q 211 829 211 858 q 191 781 213 801 q 139 761 169 761 z "},"̇":{"ha":0,"x_min":69,"x_max":213,"o":"m 139 761 q 90 781 111 761 q 69 829 69 801 q 90 878 69 858 q 140 897 111 897 q 190 878 169 897 q 211 829 211 858 q 191 781 213 801 q 139 761 169 761 z "},"̣":{"ha":0,"x_min":-64,"x_max":53,"o":"m -6 -168 q -47 -151 -29 -168 q -64 -111 -64 -135 q -47 -72 -64 -87 q -6 -57 -29 -57 q 36 -72 19 -57 q 53 -111 53 -87 q 36 -151 53 -135 q -6 -168 19 -168 z "},"↓":{"ha":729,"x_min":54,"x_max":675,"o":"m 367 -1 l 54 361 l 118 425 l 313 222 l 315 1003 l 418 1001 l 417 225 l 613 425 l 675 361 l 367 -1 z "},"ѕ":{"ha":499,"x_min":11,"x_max":492,"o":"m 199 -14 q 90 1 129 -14 q 33 44 50 17 q 13 108 15 71 q 18 189 11 146 l 25 239 l 156 239 l 144 164 q 140 110 140 135 q 154 73 140 86 q 206 60 168 60 q 258 72 240 60 q 283 105 275 85 q 293 143 290 125 l 299 192 q 294 249 304 226 q 259 286 283 271 q 196 318 235 301 q 128 354 158 333 q 83 408 97 375 q 74 490 68 440 l 79 532 q 112 624 88 586 q 185 682 136 663 q 308 701 233 701 q 426 681 385 701 q 479 619 467 661 q 482 510 492 576 l 475 457 l 349 457 l 358 531 q 352 606 365 585 q 300 628 339 628 q 239 606 257 628 q 215 553 221 585 l 210 506 q 219 446 204 468 q 263 409 233 424 q 328 379 292 394 q 392 346 364 365 q 433 294 419 326 q 440 210 447 263 l 436 172 q 406 76 428 118 q 334 10 383 35 q 199 -14 285 -14 z "},"џ":{"ha":543,"x_min":11,"x_max":532,"o":"m 153 -147 l 174 0 l 11 0 l 108 688 l 239 688 l 156 94 l 315 94 l 400 688 l 532 688 l 435 0 l 271 0 l 250 -147 l 153 -147 z "},"e":{"ha":496,"x_min":14,"x_max":504,"o":"m 203 -15 q 91 1 135 -15 q 31 65 47 18 q 26 199 14 111 l 72 526 q 143 661 88 625 q 292 697 199 697 q 458 657 411 697 q 486 513 504 617 q 438 413 475 451 q 349 353 400 374 q 250 323 299 332 q 169 313 201 314 l 149 164 q 154 83 142 106 q 211 60 167 60 q 275 81 256 60 q 303 161 294 103 l 315 251 l 444 251 l 435 179 q 398 58 424 100 q 326 0 372 15 q 203 -15 279 -15 m 181 382 q 228 390 201 385 q 281 408 254 394 q 327 447 307 422 q 356 513 347 472 q 356 594 365 561 q 297 628 347 628 q 230 605 253 628 q 199 514 207 582 l 181 382 z "},"é":{"ha":496,"x_min":14,"x_max":504,"o":"m 203 -15 q 91 1 135 -15 q 31 65 47 18 q 26 199 14 111 l 72 526 q 143 661 88 625 q 292 697 199 697 q 458 657 411 697 q 486 513 504 617 q 438 413 475 451 q 349 353 400 374 q 250 323 299 332 q 169 313 201 314 l 149 164 q 154 83 142 106 q 211 60 167 60 q 275 81 256 60 q 303 161 294 103 l 315 251 l 444 251 l 435 179 q 398 58 424 100 q 326 0 372 15 q 203 -15 279 -15 m 181 382 q 228 390 201 385 q 281 408 254 394 q 327 447 307 422 q 356 513 347 472 q 356 594 365 561 q 297 628 347 628 q 230 605 253 628 q 199 514 207 582 l 181 382 m 239 760 l 328 894 l 456 894 l 321 760 l 239 760 z "},"ě":{"ha":496,"x_min":14,"x_max":504,"o":"m 203 -15 q 91 1 135 -15 q 31 65 47 18 q 26 199 14 111 l 72 526 q 143 661 88 625 q 292 697 199 697 q 458 657 411 697 q 486 513 504 617 q 438 413 475 451 q 349 353 400 374 q 250 323 299 332 q 169 313 201 314 l 149 164 q 154 83 142 106 q 211 60 167 60 q 275 81 256 60 q 303 161 294 103 l 315 251 l 444 251 l 435 179 q 398 58 424 100 q 326 0 372 15 q 203 -15 279 -15 m 181 382 q 228 390 201 385 q 281 408 254 394 q 327 447 307 422 q 356 513 347 472 q 356 594 365 561 q 297 628 347 628 q 230 605 253 628 q 199 514 207 582 l 181 382 m 271 758 l 163 897 l 244 897 l 319 818 l 418 897 l 497 897 l 349 758 l 271 758 z "},"ê":{"ha":496,"x_min":14,"x_max":504,"o":"m 203 -15 q 91 1 135 -15 q 31 65 47 18 q 26 199 14 111 l 72 526 q 143 661 88 625 q 292 697 199 697 q 458 657 411 697 q 486 513 504 617 q 438 413 475 451 q 349 353 400 374 q 250 323 299 332 q 169 313 201 314 l 149 164 q 154 83 142 106 q 211 60 167 60 q 275 81 256 60 q 303 161 294 103 l 315 251 l 444 251 l 435 179 q 398 58 424 100 q 326 0 372 15 q 203 -15 279 -15 m 181 382 q 228 390 201 385 q 281 408 254 394 q 327 447 307 422 q 356 513 347 472 q 356 594 365 561 q 297 628 347 628 q 230 605 253 628 q 199 514 207 582 l 181 382 m 139 758 l 288 897 l 364 897 l 474 758 l 394 758 l 318 839 l 221 758 l 139 758 z "},"ế":{"ha":496,"x_min":14,"x_max":688,"o":"m 203 -15 q 91 1 135 -15 q 31 65 47 18 q 26 199 14 111 l 72 526 q 143 661 88 625 q 292 697 199 697 q 458 657 411 697 q 486 513 504 617 q 438 413 475 451 q 349 353 400 374 q 250 323 299 332 q 169 313 201 314 l 149 164 q 154 83 142 106 q 211 60 167 60 q 275 81 256 60 q 303 161 294 103 l 315 251 l 444 251 l 435 179 q 398 58 424 100 q 326 0 372 15 q 203 -15 279 -15 m 181 382 q 228 390 201 385 q 281 408 254 394 q 327 447 307 422 q 356 513 347 472 q 356 594 365 561 q 297 628 347 628 q 230 605 253 628 q 199 514 207 582 l 181 382 m 139 758 l 288 897 l 364 897 l 474 758 l 394 758 l 318 839 l 221 758 l 139 758 m 471 840 l 560 975 l 688 975 l 553 840 l 471 840 z "},"ệ":{"ha":496,"x_min":14,"x_max":504,"o":"m 203 -15 q 91 1 135 -15 q 31 65 47 18 q 26 199 14 111 l 72 526 q 143 661 88 625 q 292 697 199 697 q 458 657 411 697 q 486 513 504 617 q 438 413 475 451 q 349 353 400 374 q 250 323 299 332 q 169 313 201 314 l 149 164 q 154 83 142 106 q 211 60 167 60 q 275 81 256 60 q 303 161 294 103 l 315 251 l 444 251 l 435 179 q 398 58 424 100 q 326 0 372 15 q 203 -15 279 -15 m 181 382 q 228 390 201 385 q 281 408 254 394 q 327 447 307 422 q 356 513 347 472 q 356 594 365 561 q 297 628 347 628 q 230 605 253 628 q 199 514 207 582 l 181 382 m 183 -168 q 142 -151 160 -168 q 125 -111 125 -135 q 142 -72 125 -87 q 183 -57 160 -57 q 225 -72 208 -57 q 242 -111 242 -87 q 225 -151 242 -135 q 183 -168 208 -168 m 139 758 l 288 897 l 364 897 l 474 758 l 394 758 l 318 839 l 221 758 l 139 758 z "},"ề":{"ha":496,"x_min":14,"x_max":596,"o":"m 203 -15 q 91 1 135 -15 q 31 65 47 18 q 26 199 14 111 l 72 526 q 143 661 88 625 q 292 697 199 697 q 458 657 411 697 q 486 513 504 617 q 438 413 475 451 q 349 353 400 374 q 250 323 299 332 q 169 313 201 314 l 149 164 q 154 83 142 106 q 211 60 167 60 q 275 81 256 60 q 303 161 294 103 l 315 251 l 444 251 l 435 179 q 398 58 424 100 q 326 0 372 15 q 203 -15 279 -15 m 181 382 q 228 390 201 385 q 281 408 254 394 q 327 447 307 422 q 356 513 347 472 q 356 594 365 561 q 297 628 347 628 q 230 605 253 628 q 199 514 207 582 l 181 382 m 139 758 l 288 897 l 364 897 l 474 758 l 394 758 l 318 839 l 221 758 l 139 758 m 514 840 l 407 975 l 535 975 l 596 840 l 514 840 z "},"ể":{"ha":496,"x_min":14,"x_max":646,"o":"m 203 -15 q 91 1 135 -15 q 31 65 47 18 q 26 199 14 111 l 72 526 q 143 661 88 625 q 292 697 199 697 q 458 657 411 697 q 486 513 504 617 q 438 413 475 451 q 349 353 400 374 q 250 323 299 332 q 169 313 201 314 l 149 164 q 154 83 142 106 q 211 60 167 60 q 275 81 256 60 q 303 161 294 103 l 315 251 l 444 251 l 435 179 q 398 58 424 100 q 326 0 372 15 q 203 -15 279 -15 m 181 382 q 228 390 201 385 q 281 408 254 394 q 327 447 307 422 q 356 513 347 472 q 356 594 365 561 q 297 628 347 628 q 230 605 253 628 q 199 514 207 582 l 181 382 m 139 758 l 288 897 l 364 897 l 474 758 l 394 758 l 318 839 l 221 758 l 139 758 m 497 828 l 500 858 q 518 887 503 879 q 547 902 533 894 q 563 928 561 910 l 565 939 q 562 963 567 953 q 540 974 557 974 q 507 943 515 974 l 447 953 q 483 1006 457 988 q 553 1024 508 1024 q 624 1001 603 1024 q 640 935 646 978 l 639 931 q 626 890 636 901 q 603 875 615 879 q 581 867 590 871 q 569 850 571 863 l 568 828 l 497 828 z "},"ễ":{"ha":496,"x_min":14,"x_max":504,"o":"m 203 -15 q 91 1 135 -15 q 31 65 47 18 q 26 199 14 111 l 72 526 q 143 661 88 625 q 292 697 199 697 q 458 657 411 697 q 486 513 504 617 q 438 413 475 451 q 349 353 400 374 q 250 323 299 332 q 169 313 201 314 l 149 164 q 154 83 142 106 q 211 60 167 60 q 275 81 256 60 q 303 161 294 103 l 315 251 l 444 251 l 435 179 q 398 58 424 100 q 326 0 372 15 q 203 -15 279 -15 m 181 382 q 228 390 201 385 q 281 408 254 394 q 327 447 307 422 q 356 513 347 472 q 356 594 365 561 q 297 628 347 628 q 230 605 253 628 q 199 514 207 582 l 181 382 m 139 758 l 288 897 l 364 897 l 474 758 l 394 758 l 318 839 l 221 758 l 139 758 m 389 929 q 354 936 369 929 q 322 956 339 943 q 296 972 310 964 q 265 979 282 979 q 235 967 247 979 q 217 931 222 954 l 174 931 q 209 1010 182 979 q 275 1042 236 1042 q 313 1034 296 1042 q 346 1015 329 1026 q 372 1001 360 1007 q 400 994 385 994 q 431 1006 419 994 q 450 1039 443 1018 l 494 1039 q 455 958 486 986 q 389 929 424 929 z "},"ë":{"ha":496,"x_min":14,"x_max":504,"o":"m 203 -15 q 91 1 135 -15 q 31 65 47 18 q 26 199 14 111 l 72 526 q 143 661 88 625 q 292 697 199 697 q 458 657 411 697 q 486 513 504 617 q 438 413 475 451 q 349 353 400 374 q 250 323 299 332 q 169 313 201 314 l 149 164 q 154 83 142 106 q 211 60 167 60 q 275 81 256 60 q 303 161 294 103 l 315 251 l 444 251 l 435 179 q 398 58 424 100 q 326 0 372 15 q 203 -15 279 -15 m 181 382 q 228 390 201 385 q 281 408 254 394 q 327 447 307 422 q 356 513 347 472 q 356 594 365 561 q 297 628 347 628 q 230 605 253 628 q 199 514 207 582 l 181 382 m 239 769 q 197 786 214 769 q 181 826 181 803 q 197 865 181 850 q 239 881 214 881 q 280 865 264 881 q 296 826 296 850 q 280 786 296 803 q 239 769 264 769 m 393 769 q 352 786 369 769 q 335 826 335 803 q 352 865 335 850 q 393 881 369 881 q 435 865 418 881 q 451 826 451 850 q 435 786 451 803 q 393 769 418 769 z "},"ė":{"ha":496,"x_min":14,"x_max":504,"o":"m 203 -15 q 91 1 135 -15 q 31 65 47 18 q 26 199 14 111 l 72 526 q 143 661 88 625 q 292 697 199 697 q 458 657 411 697 q 486 513 504 617 q 438 413 475 451 q 349 353 400 374 q 250 323 299 332 q 169 313 201 314 l 149 164 q 154 83 142 106 q 211 60 167 60 q 275 81 256 60 q 303 161 294 103 l 315 251 l 444 251 l 435 179 q 398 58 424 100 q 326 0 372 15 q 203 -15 279 -15 m 181 382 q 228 390 201 385 q 281 408 254 394 q 327 447 307 422 q 356 513 347 472 q 356 594 365 561 q 297 628 347 628 q 230 605 253 628 q 199 514 207 582 l 181 382 m 315 761 q 267 781 288 761 q 246 829 246 801 q 267 878 246 858 q 317 897 288 897 q 367 878 346 897 q 388 829 388 858 q 367 781 389 801 q 315 761 346 761 z "},"ẹ":{"ha":496,"x_min":14,"x_max":504,"o":"m 203 -15 q 91 1 135 -15 q 31 65 47 18 q 26 199 14 111 l 72 526 q 143 661 88 625 q 292 697 199 697 q 458 657 411 697 q 486 513 504 617 q 438 413 475 451 q 349 353 400 374 q 250 323 299 332 q 169 313 201 314 l 149 164 q 154 83 142 106 q 211 60 167 60 q 275 81 256 60 q 303 161 294 103 l 315 251 l 444 251 l 435 179 q 398 58 424 100 q 326 0 372 15 q 203 -15 279 -15 m 181 382 q 228 390 201 385 q 281 408 254 394 q 327 447 307 422 q 356 513 347 472 q 356 594 365 561 q 297 628 347 628 q 230 605 253 628 q 199 514 207 582 l 181 382 m 183 -168 q 142 -151 160 -168 q 125 -111 125 -135 q 142 -72 125 -87 q 183 -57 160 -57 q 225 -72 208 -57 q 242 -111 242 -87 q 225 -151 242 -135 q 183 -168 208 -168 z "},"ф":{"ha":818,"x_min":13,"x_max":794,"o":"m 274 -160 l 300 26 q 249 0 279 10 q 175 -10 218 -10 q 42 42 71 -10 q 26 189 13 94 l 64 461 q 92 561 72 519 q 154 625 113 603 q 269 647 196 647 q 343 636 314 647 q 381 607 372 625 l 413 821 l 542 821 l 511 608 q 558 637 525 626 q 632 647 592 647 q 740 625 704 647 q 785 561 776 603 q 786 461 794 519 l 749 189 q 691 42 735 94 q 544 -10 647 -10 q 475 0 503 -10 q 431 26 447 10 l 403 -160 l 274 -160 m 215 61 q 271 75 250 61 q 304 111 292 89 q 319 156 317 133 l 361 463 q 364 520 367 494 q 344 561 361 546 q 289 576 328 576 q 235 563 254 576 q 208 522 217 549 q 194 458 200 496 l 153 165 q 152 111 150 135 q 169 74 154 88 q 215 61 185 61 m 526 61 q 576 74 557 61 q 603 111 594 88 q 617 165 613 135 l 658 458 q 662 521 663 494 q 647 563 661 547 q 597 578 633 578 q 540 563 563 578 q 508 525 518 549 q 492 469 497 501 l 450 164 q 451 115 446 139 q 474 76 456 90 q 526 61 492 61 z "},"è":{"ha":496,"x_min":14,"x_max":504,"o":"m 203 -15 q 91 1 135 -15 q 31 65 47 18 q 26 199 14 111 l 72 526 q 143 661 88 625 q 292 697 199 697 q 458 657 411 697 q 486 513 504 617 q 438 413 475 451 q 349 353 400 374 q 250 323 299 332 q 169 313 201 314 l 149 164 q 154 83 142 106 q 211 60 167 60 q 275 81 256 60 q 303 161 294 103 l 315 251 l 444 251 l 435 179 q 398 58 424 100 q 326 0 372 15 q 203 -15 279 -15 m 181 382 q 228 390 201 385 q 281 408 254 394 q 327 447 307 422 q 356 513 347 472 q 356 594 365 561 q 297 628 347 628 q 230 605 253 628 q 199 514 207 582 l 181 382 m 283 760 l 176 894 l 304 894 l 365 760 l 283 760 z "},"ẻ":{"ha":496,"x_min":14,"x_max":504,"o":"m 203 -15 q 91 1 135 -15 q 31 65 47 18 q 26 199 14 111 l 72 526 q 143 661 88 625 q 292 697 199 697 q 458 657 411 697 q 486 513 504 617 q 438 413 475 451 q 349 353 400 374 q 250 323 299 332 q 169 313 201 314 l 149 164 q 154 83 142 106 q 211 60 167 60 q 275 81 256 60 q 303 161 294 103 l 315 251 l 444 251 l 435 179 q 398 58 424 100 q 326 0 372 15 q 203 -15 279 -15 m 181 382 q 228 390 201 385 q 281 408 254 394 q 327 447 307 422 q 356 513 347 472 q 356 594 365 561 q 297 628 347 628 q 230 605 253 628 q 199 514 207 582 l 181 382 m 265 747 l 268 778 q 286 806 271 799 q 315 822 301 814 q 331 847 329 829 l 333 858 q 330 883 335 872 q 308 893 325 893 q 275 863 283 893 l 215 872 q 251 925 225 907 q 321 943 276 943 q 392 920 371 943 q 408 854 414 897 l 407 850 q 394 810 404 821 q 371 794 383 799 q 349 786 358 790 q 338 769 339 782 l 336 747 l 265 747 z "},"л":{"ha":590,"x_min":-28,"x_max":579,"o":"m -28 0 l -18 69 q 17 83 0 69 q 48 119 35 96 q 68 175 61 143 l 185 688 l 579 688 l 482 0 l 349 0 l 432 593 l 303 593 l 196 139 q 184 95 192 119 q 162 49 176 71 q 122 14 147 28 q 53 0 96 0 l -28 0 z "},"…":{"ha":743,"x_min":25,"x_max":638,"o":"m 90 -11 q 43 9 61 -11 q 29 57 25 29 q 57 106 33 86 q 110 125 81 125 q 158 106 139 125 q 172 57 176 86 q 144 9 168 29 q 90 -11 119 -11 m 321 -12 q 274 8 292 -12 q 260 56 256 28 q 288 105 264 85 q 340 125 311 125 q 388 105 369 125 q 403 56 407 85 q 375 8 399 28 q 321 -12 351 -12 m 551 -12 q 504 8 522 -12 q 490 56 486 28 q 518 105 494 85 q 571 125 542 125 q 619 105 600 125 q 633 56 638 85 q 605 8 629 28 q 551 -12 581 -12 z "},"м":{"ha":682,"x_min":1,"x_max":681,"o":"m 1 0 l 99 688 l 258 688 l 317 167 l 524 688 l 681 688 l 583 0 l 476 0 l 547 503 l 339 0 l 247 0 l 181 503 l 110 0 l 1 0 z "},"ē":{"ha":496,"x_min":14,"x_max":504,"o":"m 203 -15 q 91 1 135 -15 q 31 65 47 18 q 26 199 14 111 l 72 526 q 143 661 88 625 q 292 697 199 697 q 458 657 411 697 q 486 513 504 617 q 438 413 475 451 q 349 353 400 374 q 250 323 299 332 q 169 313 201 314 l 149 164 q 154 83 142 106 q 211 60 167 60 q 275 81 256 60 q 303 161 294 103 l 315 251 l 444 251 l 435 179 q 398 58 424 100 q 326 0 372 15 q 203 -15 279 -15 m 181 382 q 228 390 201 385 q 281 408 254 394 q 327 447 307 422 q 356 513 347 472 q 356 594 365 561 q 297 628 347 628 q 230 605 253 628 q 199 514 207 582 l 181 382 m 167 782 l 176 849 l 451 849 l 442 782 l 167 782 z "},"—":{"ha":878,"x_min":29,"x_max":849,"o":"m 29 335 l 40 424 l 849 424 l 838 335 l 29 335 z "},"∅":{"ha":571,"x_min":-10,"x_max":629,"o":"m -10 81 l 556 785 l 588 785 l 21 81 l -10 81 m 201 -18 q 93 10 136 -17 q 38 96 50 38 q 53 250 26 154 l 149 592 q 263 772 182 714 q 443 831 343 831 q 584 772 539 831 q 596 592 629 714 l 500 251 q 427 94 472 154 q 324 8 382 35 q 201 -18 265 -18 m 224 63 q 297 94 263 63 q 349 185 332 125 l 472 626 q 473 719 490 688 q 417 750 456 750 q 343 719 378 750 q 290 626 308 688 l 167 185 q 167 94 150 125 q 224 63 185 63 z "},"н":{"ha":521,"x_min":1,"x_max":519,"o":"m 1 0 l 99 688 l 229 688 l 189 408 l 350 408 l 390 688 l 519 688 l 422 0 l 293 0 l 338 308 l 176 308 l 132 0 l 1 0 z "},"–":{"ha":560,"x_min":29,"x_max":531,"o":"m 29 335 l 40 424 l 531 424 l 518 335 l 29 335 z "},"ŋ":{"ha":525,"x_min":13,"x_max":504,"o":"m 200 -157 q 170 -156 185 -157 q 143 -151 156 -154 l 153 -83 q 163 -84 154 -83 q 181 -85 171 -85 q 193 -85 190 -85 q 263 -68 238 -85 q 294 -10 288 -51 l 365 506 q 369 543 368 525 q 366 575 371 561 q 347 597 361 589 q 304 606 332 606 q 263 597 279 606 q 237 577 247 589 q 221 553 226 565 l 143 0 l 13 0 l 108 688 l 218 688 l 219 608 q 281 674 240 651 q 365 697 321 697 q 447 684 417 697 q 489 647 476 671 q 503 589 501 622 q 499 515 504 556 l 431 33 q 385 -85 419 -43 q 303 -143 351 -128 q 200 -157 254 -158 z "},"ę":{"ha":496,"x_min":14,"x_max":504,"o":"m 203 -15 q 91 1 135 -15 q 31 65 47 18 q 26 199 14 111 l 72 526 q 143 661 88 625 q 292 697 199 697 q 458 657 411 697 q 486 513 504 617 q 438 413 475 451 q 349 353 400 374 q 250 323 299 332 q 169 313 201 314 l 149 164 q 154 83 142 106 q 211 60 167 60 q 275 81 256 60 q 303 161 294 103 l 315 251 l 444 251 l 435 179 q 398 58 424 100 q 326 0 372 15 q 203 -15 279 -15 m 181 382 q 228 390 201 385 q 281 408 254 394 q 327 447 307 422 q 356 513 347 472 q 356 594 365 561 q 297 628 347 628 q 230 605 253 628 q 199 514 207 582 l 181 382 m 201 -196 q 128 -170 154 -196 q 106 -110 101 -144 q 147 -39 113 -71 q 225 1 181 -7 l 281 0 q 220 -40 242 -14 q 194 -92 199 -67 q 207 -132 192 -118 q 240 -146 222 -146 q 260 -143 251 -146 q 272 -139 269 -140 l 285 -175 q 256 -188 275 -181 q 201 -196 236 -196 z "},"=":{"ha":600,"x_min":43,"x_max":558,"o":"m 83 488 l 96 578 l 558 578 l 546 488 l 83 488 m 43 200 l 56 292 l 517 292 l 504 200 l 43 200 z "},"р":{"ha":521,"x_min":-10,"x_max":508,"o":"m -10 -161 l 108 688 l 235 688 l 229 631 q 275 678 246 657 q 364 699 304 699 q 451 680 418 699 q 496 624 483 661 q 500 531 508 588 l 453 194 q 422 80 443 125 q 362 13 400 35 q 265 -8 324 -8 q 188 8 214 -8 q 150 49 161 25 l 121 -161 l -10 -161 m 229 68 q 283 81 265 68 q 308 117 300 94 q 318 167 315 140 l 368 515 q 370 554 369 536 q 367 586 371 572 q 348 608 363 600 q 306 615 333 615 q 263 606 279 615 q 236 582 246 597 q 222 549 226 567 q 217 517 218 532 l 165 161 q 164 113 163 135 q 180 79 165 90 q 229 68 194 68 z "},"э":{"ha":522,"x_min":22,"x_max":501,"o":"m 213 -14 q 115 -2 154 -14 q 54 35 75 10 q 28 102 33 60 q 31 207 22 144 l 36 242 l 167 242 l 156 160 q 153 107 151 131 q 171 70 156 83 q 222 57 186 57 q 278 71 260 57 q 303 108 296 85 q 315 158 311 132 l 336 314 l 133 314 l 144 399 l 349 399 l 367 526 q 370 565 369 547 q 365 597 371 583 q 345 619 360 611 q 303 628 331 628 q 247 615 267 628 q 219 579 228 603 q 207 525 211 556 l 199 469 l 68 469 l 75 514 q 108 615 83 575 q 183 677 133 656 q 313 699 233 699 q 410 686 372 699 q 469 650 449 674 q 496 592 490 626 q 496 515 501 558 l 453 206 q 415 78 442 126 q 340 8 389 29 q 213 -14 292 -14 z "},"с":{"ha":499,"x_min":17,"x_max":499,"o":"m 203 -15 q 114 -7 151 -15 q 53 24 76 1 q 24 90 31 47 q 26 201 17 132 l 72 526 q 142 663 88 625 q 303 700 197 700 q 453 663 408 700 q 483 526 499 625 l 471 431 l 340 431 l 356 540 q 350 608 363 588 q 293 629 338 629 q 231 608 250 629 q 206 540 211 588 l 150 150 q 156 78 143 99 q 211 57 169 57 q 274 78 256 57 q 300 150 293 99 l 317 269 l 447 269 l 439 201 q 397 63 426 110 q 319 1 368 17 q 203 -15 271 -15 z "},"ð":{"ha":510,"x_min":15,"x_max":522,"o":"m 200 -11 q 124 -5 160 -11 q 62 21 88 1 q 26 82 36 40 q 26 196 15 124 l 69 500 q 109 613 79 575 q 184 663 139 650 q 283 676 229 676 q 333 670 308 676 q 368 647 357 664 q 372 746 375 704 q 348 810 369 788 q 275 833 326 833 q 211 828 242 833 q 150 818 181 824 l 163 901 q 222 913 186 907 q 310 919 258 919 q 455 881 411 919 q 502 757 499 843 q 486 531 506 671 l 442 226 q 415 121 433 165 q 369 47 397 76 q 299 3 340 18 q 200 -11 257 -11 m 210 60 q 261 76 242 60 q 290 119 281 93 q 304 174 300 146 l 356 540 q 352 568 358 553 q 331 594 346 583 q 286 606 317 606 q 238 594 256 606 q 213 563 221 583 q 201 513 206 542 l 150 143 q 151 99 146 115 q 166 74 156 82 q 188 63 176 65 q 210 60 200 60 m 244 715 l 217 756 l 493 960 l 522 921 l 244 715 z "},"ẽ":{"ha":496,"x_min":14,"x_max":504,"o":"m 203 -15 q 91 1 135 -15 q 31 65 47 18 q 26 199 14 111 l 72 526 q 143 661 88 625 q 292 697 199 697 q 458 657 411 697 q 486 513 504 617 q 438 413 475 451 q 349 353 400 374 q 250 323 299 332 q 169 313 201 314 l 149 164 q 154 83 142 106 q 211 60 167 60 q 275 81 256 60 q 303 161 294 103 l 315 251 l 444 251 l 435 179 q 398 58 424 100 q 326 0 372 15 q 203 -15 279 -15 m 181 382 q 228 390 201 385 q 281 408 254 394 q 327 447 307 422 q 356 513 347 472 q 356 594 365 561 q 297 628 347 628 q 230 605 253 628 q 199 514 207 582 l 181 382 m 369 767 q 335 774 350 767 q 303 793 319 781 q 276 809 290 801 q 246 817 263 817 q 215 804 228 817 q 197 768 203 792 l 154 768 q 190 848 163 817 q 256 879 217 879 q 293 872 276 879 q 326 853 310 864 q 353 838 340 844 q 381 832 365 832 q 412 844 400 832 q 431 876 424 856 l 475 876 q 435 795 467 824 q 369 767 404 767 z "},"€":{"ha":644,"x_min":36,"x_max":635,"o":"m 310 -17 q 199 -1 247 -17 q 131 62 151 14 q 124 206 110 110 l 139 322 l 36 322 l 65 374 l 146 374 l 156 442 l 51 442 l 82 493 l 164 493 l 185 647 q 229 762 196 722 q 315 816 263 801 q 431 831 367 831 q 543 815 496 831 q 613 760 590 800 q 625 647 635 721 l 618 603 l 485 603 l 492 653 q 490 716 497 696 q 463 743 482 736 q 419 750 444 750 q 372 743 393 750 q 338 716 351 736 q 317 653 324 696 l 296 493 l 499 493 l 467 442 l 289 442 l 279 374 l 428 374 l 397 322 l 271 322 l 249 160 q 251 97 243 118 q 278 69 258 76 q 322 63 297 63 q 369 69 349 63 q 403 97 389 76 q 422 160 417 118 l 436 246 l 568 246 l 561 207 q 514 61 549 108 q 428 -1 479 14 q 310 -17 376 -17 z "},"!":{"ha":282,"x_min":11,"x_max":272,"o":"m 74 265 l 85 511 l 131 875 l 272 875 l 215 514 l 156 265 l 74 265 m 81 -10 q 30 11 49 -10 q 15 63 11 32 q 44 111 19 90 q 101 132 68 132 q 152 111 132 132 q 168 63 172 90 q 138 11 164 32 q 81 -10 113 -10 z "},"¡":{"ha":282,"x_min":40,"x_max":247,"o":"m 108 415 l 190 415 l 200 167 l 182 -194 l 40 -194 l 71 169 l 108 415 m 171 689 q 225 669 203 689 q 246 618 247 649 q 223 569 246 590 q 168 549 200 549 q 115 569 136 549 q 93 618 93 590 q 117 669 94 649 q 171 689 140 689 z "},"f":{"ha":346,"x_min":22,"x_max":414,"o":"m 22 0 l 104 585 l 60 585 l 71 661 l 115 661 l 125 733 q 157 825 133 793 q 215 868 181 857 q 286 879 250 879 q 338 878 311 879 q 386 874 365 876 q 414 872 407 872 l 407 807 q 380 810 407 807 q 321 813 353 813 q 274 786 289 813 q 256 732 260 760 l 244 661 l 385 661 l 375 585 l 233 585 l 151 0 l 22 0 z "},"ﬁ":{"ha":588,"x_min":22,"x_max":606,"o":"m 22 0 l 104 585 l 60 585 l 71 661 l 115 661 l 125 733 q 157 825 133 793 q 215 868 181 857 q 286 879 250 879 q 338 878 311 879 q 386 874 365 876 q 414 872 407 872 l 407 807 q 380 810 407 807 q 321 813 353 813 q 274 786 289 813 q 256 732 260 760 l 244 661 l 385 661 l 375 585 l 233 585 l 151 0 l 22 0 m 349 0 l 446 688 l 576 688 l 479 0 l 349 0 m 533 761 q 485 781 506 761 q 464 829 464 801 q 485 878 464 858 q 535 897 506 897 q 585 878 564 897 q 606 829 606 858 q 585 781 607 801 q 533 761 564 761 z "},"ﬂ":{"ha":596,"x_min":22,"x_max":611,"o":"m 22 0 l 104 585 l 60 585 l 71 661 l 115 661 l 125 733 q 157 825 133 793 q 215 868 181 857 q 286 879 250 879 q 338 878 311 879 q 386 874 365 876 q 414 872 407 872 l 407 807 q 380 810 407 807 q 321 813 353 813 q 274 786 289 813 q 256 732 260 760 l 244 661 l 385 661 l 375 585 l 233 585 l 151 0 l 22 0 m 358 0 l 482 879 l 611 879 l 488 0 l 358 0 z "},"ƒ":{"ha":475,"x_min":-199,"x_max":533,"o":"m -87 -201 q -129 -200 -106 -201 q -172 -197 -153 -199 q -199 -194 -192 -196 l -179 -117 l -101 -124 q -42 -113 -65 -125 q -5 -73 -19 -101 q 22 6 10 -44 l 163 543 l 85 543 l 103 615 l 181 615 l 213 725 q 278 839 236 804 q 376 874 321 874 q 413 873 390 874 q 459 872 435 872 q 503 869 483 871 q 533 867 524 868 l 514 790 q 476 796 504 793 q 417 799 449 799 q 360 769 376 799 q 333 706 343 740 l 307 615 l 453 615 l 435 543 l 290 543 l 142 -32 q 63 -159 119 -117 q -87 -201 7 -201 z "},"⁴":{"ha":351,"x_min":22,"x_max":347,"o":"m 188 328 l 201 425 l 22 425 l 32 494 l 257 821 l 340 821 l 293 483 l 347 483 l 339 425 l 285 425 l 271 328 l 188 328 m 100 483 l 210 483 l 236 676 l 100 483 z "},"⁄":{"ha":419,"x_min":-168,"x_max":478,"o":"m -168 0 l 393 817 l 478 817 l -85 0 l -168 0 z "},"₣":{"ha":518,"x_min":7,"x_max":532,"o":"m 46 0 l 71 175 l 7 175 l 15 236 l 81 236 l 163 821 l 532 821 l 518 726 l 288 726 l 251 478 l 442 478 l 428 374 l 238 374 l 218 236 l 332 236 l 324 175 l 210 175 l 183 0 l 46 0 z "},"g":{"ha":513,"x_min":22,"x_max":507,"o":"m 178 -165 q 135 -163 160 -165 q 86 -159 110 -161 q 45 -155 63 -157 q 24 -151 28 -153 l 33 -81 q 85 -87 51 -83 q 143 -90 118 -90 q 181 -87 160 -90 q 224 -74 203 -85 q 263 -39 246 -62 q 285 26 279 -15 l 297 124 q 270 83 288 103 q 225 49 253 63 q 153 36 197 36 q 101 41 126 36 q 56 65 75 46 q 30 124 38 83 q 32 233 22 164 l 74 536 q 112 641 85 607 q 176 685 139 675 q 247 696 213 696 q 302 692 276 696 q 346 674 328 688 q 369 633 364 661 l 392 686 l 507 686 l 422 85 q 399 -11 415 35 q 353 -91 382 -57 q 282 -145 325 -125 q 178 -165 239 -165 m 218 115 q 269 131 250 115 q 298 174 288 147 q 313 231 308 201 l 360 572 q 350 592 357 582 q 328 609 343 601 q 288 617 314 617 q 230 597 250 617 q 203 526 210 578 l 158 200 q 159 154 154 171 q 174 129 164 138 q 197 118 185 121 q 218 115 208 115 z "},"ğ":{"ha":513,"x_min":22,"x_max":507,"o":"m 178 -165 q 135 -163 160 -165 q 86 -159 110 -161 q 45 -155 63 -157 q 24 -151 28 -153 l 33 -81 q 85 -87 51 -83 q 143 -90 118 -90 q 181 -87 160 -90 q 224 -74 203 -85 q 263 -39 246 -62 q 285 26 279 -15 l 297 124 q 270 83 288 103 q 225 49 253 63 q 153 36 197 36 q 101 41 126 36 q 56 65 75 46 q 30 124 38 83 q 32 233 22 164 l 74 536 q 112 641 85 607 q 176 685 139 675 q 247 696 213 696 q 302 692 276 696 q 346 674 328 688 q 369 633 364 661 l 392 686 l 507 686 l 422 85 q 399 -11 415 35 q 353 -91 382 -57 q 282 -145 325 -125 q 178 -165 239 -165 m 218 115 q 269 131 250 115 q 298 174 288 147 q 313 231 308 201 l 360 572 q 350 592 357 582 q 328 609 343 601 q 288 617 314 617 q 230 597 250 617 q 203 526 210 578 l 158 200 q 159 154 154 171 q 174 129 164 138 q 197 118 185 121 q 218 115 208 115 m 315 760 q 244 773 271 760 q 204 807 217 786 q 188 851 192 828 q 188 893 185 874 l 260 893 q 278 841 258 858 q 326 824 297 824 q 381 840 357 824 q 413 893 406 857 l 486 893 q 461 829 481 860 q 406 779 442 799 q 315 760 371 760 z "},"ģ":{"ha":513,"x_min":22,"x_max":507,"o":"m 414 944 q 375 888 389 913 q 360 851 361 864 q 366 836 358 843 q 381 820 374 829 q 385 794 388 811 q 366 763 383 778 q 322 749 349 749 q 281 763 296 749 q 267 800 265 778 q 284 844 269 818 q 319 898 299 871 q 360 944 340 925 l 414 944 m 178 -165 q 135 -163 160 -165 q 86 -159 110 -161 q 45 -155 63 -157 q 24 -151 28 -153 l 33 -81 q 85 -87 51 -83 q 143 -90 118 -90 q 181 -87 160 -90 q 224 -74 203 -85 q 263 -39 246 -62 q 285 26 279 -15 l 297 124 q 270 83 288 103 q 225 49 253 63 q 153 36 197 36 q 101 41 126 36 q 56 65 75 46 q 30 124 38 83 q 32 233 22 164 l 74 536 q 112 641 85 607 q 176 685 139 675 q 247 696 213 696 q 302 692 276 696 q 346 674 328 688 q 369 633 364 661 l 392 686 l 507 686 l 422 85 q 399 -11 415 35 q 353 -91 382 -57 q 282 -145 325 -125 q 178 -165 239 -165 m 218 115 q 269 131 250 115 q 298 174 288 147 q 313 231 308 201 l 360 572 q 350 592 357 582 q 328 609 343 601 q 288 617 314 617 q 230 597 250 617 q 203 526 210 578 l 158 200 q 159 154 154 171 q 174 129 164 138 q 197 118 185 121 q 218 115 208 115 z "},"ġ":{"ha":513,"x_min":22,"x_max":507,"o":"m 178 -165 q 135 -163 160 -165 q 86 -159 110 -161 q 45 -155 63 -157 q 24 -151 28 -153 l 33 -81 q 85 -87 51 -83 q 143 -90 118 -90 q 181 -87 160 -90 q 224 -74 203 -85 q 263 -39 246 -62 q 285 26 279 -15 l 297 124 q 270 83 288 103 q 225 49 253 63 q 153 36 197 36 q 101 41 126 36 q 56 65 75 46 q 30 124 38 83 q 32 233 22 164 l 74 536 q 112 641 85 607 q 176 685 139 675 q 247 696 213 696 q 302 692 276 696 q 346 674 328 688 q 369 633 364 661 l 392 686 l 507 686 l 422 85 q 399 -11 415 35 q 353 -91 382 -57 q 282 -145 325 -125 q 178 -165 239 -165 m 218 115 q 269 131 250 115 q 298 174 288 147 q 313 231 308 201 l 360 572 q 350 592 357 582 q 328 609 343 601 q 288 617 314 617 q 230 597 250 617 q 203 526 210 578 l 158 200 q 159 154 154 171 q 174 129 164 138 q 197 118 185 121 q 218 115 208 115 m 326 761 q 278 781 299 761 q 257 829 257 801 q 278 878 257 858 q 328 897 299 897 q 378 878 357 897 q 399 829 399 858 q 378 781 400 801 q 326 761 357 761 z "},"г":{"ha":406,"x_min":11,"x_max":444,"o":"m 11 0 l 108 688 l 444 688 l 431 593 l 233 593 l 150 0 l 11 0 z "},"ß":{"ha":594,"x_min":-132,"x_max":606,"o":"m -56 -204 q -96 -202 -71 -204 q -132 -199 -121 -200 q -131 -185 -132 -196 q -127 -160 -129 -174 q -124 -136 -125 -147 q -122 -122 -122 -125 l -103 -125 q -86 -127 -96 -126 q -62 -128 -76 -128 q 10 -99 -11 -128 q 36 -29 31 -69 l 125 596 l 72 596 l 86 688 l 139 688 l 143 725 q 172 811 151 778 q 244 860 193 844 q 389 876 294 876 q 552 847 499 876 q 594 740 606 817 l 576 608 q 533 514 568 550 q 461 475 499 478 l 460 469 q 513 451 488 467 q 552 408 538 436 q 560 339 567 381 l 536 168 q 494 60 526 96 q 413 12 463 24 q 297 0 363 0 l 214 0 l 224 69 l 289 69 q 343 81 322 69 q 378 124 364 92 q 400 219 392 156 l 417 332 q 413 389 421 367 q 385 421 406 411 q 328 431 364 431 l 286 431 l 296 503 l 360 503 q 422 532 404 503 q 449 611 440 561 l 461 703 q 453 785 469 760 q 381 811 436 811 q 317 797 339 811 q 285 760 294 783 q 272 711 276 738 l 171 -8 q 140 -106 163 -67 q 87 -165 118 -144 q 19 -195 56 -186 q -56 -204 -18 -204 z "},"ѓ":{"ha":406,"x_min":11,"x_max":444,"o":"m 11 0 l 108 688 l 444 688 l 431 593 l 233 593 l 150 0 l 11 0 m 218 760 l 307 894 l 435 894 l 300 760 l 218 760 z "},"`":{"ha":208,"x_min":78,"x_max":267,"o":"m 185 760 l 78 894 l 206 894 l 267 760 l 185 760 z "},"̀":{"ha":0,"x_min":78,"x_max":267,"o":"m 185 760 l 78 894 l 206 894 l 267 760 l 185 760 z "},">":{"ha":457,"x_min":24,"x_max":403,"o":"m 24 189 l 40 311 l 285 457 l 82 604 l 97 722 l 403 494 l 390 417 l 24 189 z "},"≥":{"ha":492,"x_min":32,"x_max":456,"o":"m 57 214 l 68 258 l 413 453 l 178 650 l 189 693 l 456 472 l 444 435 l 57 214 m 32 -1 l 40 28 l 356 28 l 349 -1 l 32 -1 z "},"«":{"ha":701,"x_min":53,"x_max":685,"o":"m 483 147 l 342 403 l 564 669 l 685 669 l 463 403 l 603 147 l 483 147 m 196 147 l 53 403 l 276 669 l 396 669 l 175 403 l 315 147 l 196 147 z "},"»":{"ha":701,"x_min":25,"x_max":646,"o":"m 313 147 l 525 403 l 379 669 l 499 669 l 646 403 l 432 147 l 313 147 m 25 147 l 238 403 l 92 669 l 211 669 l 358 403 l 144 147 l 25 147 z "},"‹":{"ha":413,"x_min":53,"x_max":396,"o":"m 196 147 l 53 403 l 276 669 l 396 669 l 175 403 l 315 147 l 196 147 z "},"›":{"ha":413,"x_min":24,"x_max":358,"o":"m 24 147 l 238 403 l 92 669 l 211 669 l 358 403 l 143 147 l 24 147 z "},"h":{"ha":525,"x_min":13,"x_max":504,"o":"m 13 0 l 135 875 l 257 875 l 221 618 q 278 677 240 657 q 365 697 315 697 q 447 684 417 697 q 489 646 476 671 q 503 588 501 621 q 499 515 504 556 l 426 0 l 296 0 l 365 494 q 369 528 368 511 q 364 560 369 546 q 344 585 358 575 q 301 594 331 594 q 258 586 276 594 q 231 567 240 578 q 221 546 222 556 l 143 0 l 13 0 z "},"х":{"ha":457,"x_min":-44,"x_max":497,"o":"m -44 0 q -5 110 -32 53 q 54 222 22 168 q 116 314 86 275 q 164 367 146 353 q 124 420 143 383 q 92 505 106 457 q 74 601 79 553 q 72 688 68 650 l 178 688 q 185 600 176 649 q 212 512 194 551 q 250 456 229 472 q 283 487 264 463 q 322 544 301 511 q 358 615 342 578 q 381 688 374 653 l 497 688 q 461 592 486 643 q 406 492 436 540 q 347 410 375 444 q 304 367 319 376 q 340 321 321 357 q 375 232 358 285 q 402 119 392 179 q 411 0 413 58 l 279 0 q 275 70 279 32 q 263 144 271 108 q 242 206 254 179 q 215 242 231 232 q 172 198 199 232 q 119 113 146 164 q 74 0 93 61 l -44 0 z "},"ъ":{"ha":553,"x_min":43,"x_max":515,"o":"m 43 0 l 129 608 l 46 608 l 58 688 l 272 688 l 242 472 l 369 472 q 453 456 419 472 q 501 404 488 440 q 507 304 515 368 l 494 211 q 467 105 485 146 q 424 41 450 64 q 364 9 399 18 q 285 0 329 0 l 43 0 m 183 69 l 267 69 q 318 83 300 69 q 345 119 336 96 q 358 174 354 143 l 374 283 q 378 338 379 314 q 362 376 376 363 q 311 390 347 390 l 231 390 l 183 69 z "},"ħ":{"ha":517,"x_min":13,"x_max":504,"o":"m 26 747 l 39 814 l 315 814 l 303 747 l 26 747 m 13 0 l 135 875 l 257 875 l 221 618 q 278 677 240 657 q 365 697 315 697 q 447 684 417 697 q 489 646 476 671 q 503 588 501 621 q 499 515 504 556 l 426 0 l 296 0 l 365 494 q 369 528 368 511 q 364 560 369 546 q 344 585 358 575 q 301 594 331 594 q 258 586 276 594 q 231 567 240 578 q 221 546 222 556 l 143 0 l 13 0 z "},"̉":{"ha":0,"x_min":72,"x_max":271,"o":"m 122 747 l 125 778 q 143 806 128 799 q 172 822 158 814 q 188 847 186 829 l 190 858 q 187 883 192 872 q 165 893 182 893 q 132 863 140 893 l 72 872 q 108 925 82 907 q 178 943 133 943 q 249 920 228 943 q 265 854 271 897 l 264 850 q 251 810 261 821 q 228 794 240 799 q 206 786 215 790 q 194 769 196 782 l 193 747 l 122 747 z "},"̛":{"ha":0,"x_min":43,"x_max":233,"o":"m 43 622 l 49 682 l 69 682 q 143 746 133 682 l 146 769 l 233 769 l 231 749 q 174 652 221 682 q 43 622 126 622 z "},"˝":{"ha":265,"x_min":60,"x_max":342,"o":"m 60 760 l 104 894 l 208 894 l 113 760 l 60 760 m 178 760 l 238 894 l 342 894 l 238 760 l 178 760 z "},"̋":{"ha":0,"x_min":60,"x_max":342,"o":"m 60 760 l 104 894 l 208 894 l 113 760 l 60 760 m 178 760 l 238 894 l 342 894 l 238 760 l 178 760 z "},"-":{"ha":394,"x_min":49,"x_max":346,"o":"m 49 335 l 61 424 l 346 424 l 335 335 l 49 335 z "},"i":{"ha":250,"x_min":11,"x_max":268,"o":"m 11 0 l 108 688 l 239 688 l 142 0 l 11 0 m 196 761 q 147 781 168 761 q 126 829 126 801 q 147 878 126 858 q 197 897 168 897 q 247 878 226 897 q 268 829 268 858 q 248 781 269 801 q 196 761 226 761 z "},"і":{"ha":250,"x_min":11,"x_max":268,"o":"m 11 0 l 108 688 l 239 688 l 142 0 l 11 0 m 196 761 q 147 781 168 761 q 126 829 126 801 q 147 878 126 858 q 197 897 168 897 q 247 878 226 897 q 268 829 268 858 q 248 781 269 801 q 196 761 226 761 z "},"я":{"ha":554,"x_min":-12,"x_max":551,"o":"m -12 0 l 103 231 q 149 297 126 276 q 201 321 172 318 q 111 362 139 326 q 94 475 83 397 l 101 524 q 161 648 113 608 q 288 688 210 688 l 551 688 l 454 0 l 317 0 l 360 307 l 296 288 q 246 226 268 264 q 201 140 224 188 l 136 0 l -12 0 m 297 361 l 368 361 l 403 614 l 311 614 q 259 585 281 614 q 232 515 238 557 l 226 482 q 238 387 218 413 q 297 361 257 361 z "},"í":{"ha":250,"x_min":11,"x_max":336,"o":"m 11 0 l 108 688 l 239 688 l 142 0 l 11 0 m 118 760 l 207 894 l 335 894 l 200 760 l 118 760 z "},"ǐ":{"ha":250,"x_min":11,"x_max":376,"o":"m 11 0 l 108 688 l 239 688 l 142 0 l 11 0 m 150 758 l 42 897 l 124 897 l 199 818 l 297 897 l 376 897 l 228 758 l 150 758 z "},"î":{"ha":250,"x_min":11,"x_max":354,"o":"m 11 0 l 108 688 l 239 688 l 142 0 l 11 0 m 18 758 l 167 897 l 243 897 l 353 758 l 274 758 l 197 839 l 100 758 l 18 758 z "},"ï":{"ha":250,"x_min":11,"x_max":329,"o":"m 11 0 l 108 688 l 239 688 l 142 0 l 11 0 m 118 769 q 76 786 93 769 q 60 826 60 803 q 76 865 60 850 q 118 881 93 881 q 159 865 143 881 q 175 826 175 850 q 159 786 175 803 q 118 769 143 769 m 272 769 q 231 786 249 769 q 214 826 214 803 q 231 865 214 850 q 272 881 249 881 q 314 865 297 881 q 331 826 331 850 q 314 786 331 803 q 272 769 297 769 z "},"ị":{"ha":250,"x_min":6,"x_max":268,"o":"m 11 0 l 108 688 l 239 688 l 142 0 l 11 0 m 196 761 q 147 781 168 761 q 126 829 126 801 q 147 878 126 858 q 197 897 168 897 q 247 878 226 897 q 268 829 268 858 q 248 781 269 801 q 196 761 226 761 m 63 -168 q 22 -151 39 -168 q 4 -111 4 -135 q 22 -72 4 -87 q 63 -57 39 -57 q 104 -72 88 -57 q 121 -111 121 -87 q 104 -151 121 -135 q 63 -168 88 -168 z "},"ı":{"ha":250,"x_min":11,"x_max":239,"o":"m 11 0 l 108 688 l 239 688 l 142 0 l 11 0 z "},"е":{"ha":496,"x_min":14,"x_max":504,"o":"m 203 -15 q 91 1 135 -15 q 31 65 47 18 q 26 199 14 111 l 72 526 q 143 661 88 625 q 292 697 199 697 q 458 657 411 697 q 486 513 504 617 q 438 413 475 451 q 349 353 400 374 q 250 323 299 332 q 169 313 201 314 l 149 164 q 154 83 142 106 q 211 60 167 60 q 275 81 256 60 q 303 161 294 103 l 315 251 l 444 251 l 435 179 q 398 58 424 100 q 326 0 372 15 q 203 -15 279 -15 m 181 382 q 228 390 201 385 q 281 408 254 394 q 327 447 307 422 q 356 513 347 472 q 356 594 365 561 q 297 628 347 628 q 230 605 253 628 q 199 514 207 582 l 181 382 z "},"ѐ":{"ha":496,"x_min":14,"x_max":504,"o":"m 203 -15 q 91 1 135 -15 q 31 65 47 18 q 26 199 14 111 l 72 526 q 143 661 88 625 q 292 697 199 697 q 458 657 411 697 q 486 513 504 617 q 438 413 475 451 q 349 353 400 374 q 250 323 299 332 q 169 313 201 314 l 149 164 q 154 83 142 106 q 211 60 167 60 q 275 81 256 60 q 303 161 294 103 l 315 251 l 444 251 l 435 179 q 398 58 424 100 q 326 0 372 15 q 203 -15 279 -15 m 181 382 q 228 390 201 385 q 281 408 254 394 q 327 447 307 422 q 356 513 347 472 q 356 594 365 561 q 297 628 347 628 q 230 605 253 628 q 199 514 207 582 l 181 382 m 283 760 l 176 894 l 304 894 l 365 760 l 283 760 z "},"ì":{"ha":250,"x_min":11,"x_max":244,"o":"m 11 0 l 108 688 l 239 688 l 142 0 l 11 0 m 163 760 l 56 894 l 183 894 l 244 760 l 163 760 z "},"ỉ":{"ha":250,"x_min":11,"x_max":293,"o":"m 11 0 l 108 688 l 239 688 l 142 0 l 11 0 m 144 747 l 147 778 q 165 806 150 799 q 194 822 181 814 q 210 847 208 829 l 213 858 q 209 883 214 872 q 188 893 204 893 q 154 863 163 893 l 94 872 q 130 925 104 907 q 200 943 156 943 q 272 920 250 943 q 288 854 293 897 l 286 850 q 273 810 283 821 q 250 794 263 799 q 228 786 238 790 q 217 769 218 782 l 215 747 l 144 747 z "},"и":{"ha":538,"x_min":11,"x_max":526,"o":"m 11 0 l 108 688 l 225 688 l 161 235 l 410 688 l 526 688 l 429 0 l 314 0 l 381 482 q 251 241 315 361 q 118 0 186 121 l 11 0 z "},"ѝ":{"ha":538,"x_min":11,"x_max":526,"o":"m 11 0 l 108 688 l 225 688 l 161 235 l 410 688 l 526 688 l 429 0 l 314 0 l 381 482 q 251 241 315 361 q 118 0 186 121 l 11 0 m 304 760 l 197 894 l 325 894 l 386 760 l 304 760 z "},"й":{"ha":538,"x_min":11,"x_max":526,"o":"m 11 0 l 108 688 l 225 688 l 161 235 l 410 688 l 526 688 l 429 0 l 314 0 l 381 482 q 251 241 315 361 q 118 0 186 121 l 11 0 m 325 760 q 253 773 281 760 q 214 807 226 786 q 198 851 201 828 q 197 893 194 874 l 269 893 q 288 841 268 858 q 336 824 307 824 q 391 840 367 824 q 422 893 415 857 l 496 893 q 471 829 490 860 q 416 779 451 799 q 325 760 381 760 z "},"ī":{"ha":250,"x_min":11,"x_max":329,"o":"m 11 0 l 108 688 l 239 688 l 142 0 l 11 0 m 46 782 l 56 849 l 331 849 l 321 782 l 46 782 z "},"∞":{"ha":976,"x_min":39,"x_max":936,"o":"m 200 136 q 76 187 113 136 q 53 339 39 238 q 117 490 68 436 q 257 543 165 543 q 349 524 310 543 q 423 470 389 504 q 494 392 457 436 q 589 470 544 436 q 678 524 633 504 q 776 543 724 543 q 902 490 868 543 q 922 339 936 436 q 860 190 910 243 q 719 136 811 136 q 627 156 667 136 q 553 211 588 176 q 481 290 518 246 q 386 208 431 243 q 297 155 342 174 q 200 136 251 136 m 214 217 q 315 250 268 217 q 428 340 363 283 q 373 398 400 371 q 316 442 346 425 q 249 458 286 458 q 167 425 196 458 q 129 338 138 392 q 142 251 122 285 q 214 217 161 217 m 726 219 q 808 251 778 219 q 846 342 839 283 q 834 428 854 394 q 761 463 814 463 q 714 456 735 463 q 670 434 693 449 q 619 396 647 419 q 547 339 590 372 q 614 271 586 297 q 668 232 642 244 q 726 219 694 219 z "},"∫":{"ha":547,"x_min":-226,"x_max":610,"o":"m -128 -410 q -176 -406 -151 -408 q -226 -399 -201 -404 l -200 -314 l -108 -322 q -52 -296 -72 -321 q -24 -243 -32 -271 l 283 731 q 335 822 303 790 q 413 865 368 854 q 510 875 458 875 q 564 872 538 875 q 610 864 590 868 l 583 779 l 490 789 q 435 761 454 786 q 407 707 415 736 l 99 -267 q 47 -357 81 -325 q -31 -399 13 -389 q -128 -410 -75 -410 z "},"ё":{"ha":496,"x_min":14,"x_max":504,"o":"m 203 -15 q 91 1 135 -15 q 31 65 47 18 q 26 199 14 111 l 72 526 q 143 661 88 625 q 292 697 199 697 q 458 657 411 697 q 486 513 504 617 q 438 413 475 451 q 349 353 400 374 q 250 323 299 332 q 169 313 201 314 l 149 164 q 154 83 142 106 q 211 60 167 60 q 275 81 256 60 q 303 161 294 103 l 315 251 l 444 251 l 435 179 q 398 58 424 100 q 326 0 372 15 q 203 -15 279 -15 m 181 382 q 228 390 201 385 q 281 408 254 394 q 327 447 307 422 q 356 513 347 472 q 356 594 365 561 q 297 628 347 628 q 230 605 253 628 q 199 514 207 582 l 181 382 m 239 769 q 197 786 214 769 q 181 826 181 803 q 197 865 181 850 q 239 881 214 881 q 280 865 264 881 q 296 826 296 850 q 280 786 296 803 q 239 769 264 769 m 393 769 q 352 786 369 769 q 335 826 335 803 q 352 865 335 850 q 393 881 369 881 q 435 865 418 881 q 451 826 451 850 q 435 786 451 803 q 393 769 418 769 z "},"į":{"ha":250,"x_min":-37,"x_max":268,"o":"m 11 0 l 108 688 l 239 688 l 142 0 l 11 0 m 196 761 q 147 781 168 761 q 126 829 126 801 q 147 878 126 858 q 197 897 168 897 q 247 878 226 897 q 268 829 268 858 q 248 781 269 801 q 196 761 226 761 m 63 -196 q -11 -170 15 -196 q -33 -110 -37 -144 q 8 -39 -26 -71 q 86 1 42 -7 l 142 0 q 81 -40 103 -14 q 56 -92 60 -67 q 68 -132 53 -118 q 101 -146 83 -146 q 122 -143 113 -146 q 133 -139 131 -140 l 146 -175 q 117 -188 136 -181 q 63 -196 97 -196 z "},"ĩ":{"ha":250,"x_min":11,"x_max":356,"o":"m 11 0 l 108 688 l 239 688 l 142 0 l 11 0 m 249 767 q 214 774 229 767 q 182 793 199 781 q 156 809 169 801 q 125 817 142 817 q 94 804 107 817 q 76 768 82 792 l 33 768 q 69 848 42 817 q 135 879 96 879 q 172 872 156 879 q 206 853 189 864 q 232 838 219 844 q 260 832 244 832 q 291 844 279 832 q 310 876 303 856 l 354 876 q 315 795 346 824 q 249 767 283 767 z "},"ю":{"ha":814,"x_min":1,"x_max":794,"o":"m 508 -14 q 413 -1 450 -14 q 354 36 375 11 q 328 103 333 61 q 332 204 324 144 l 376 518 q 409 615 385 575 q 482 677 433 656 q 608 699 531 699 q 704 686 667 699 q 763 651 742 674 q 789 594 783 628 q 789 518 794 560 l 744 204 q 707 77 733 125 q 632 8 681 29 q 508 -14 583 -14 m 1 0 l 99 688 l 229 688 l 189 408 l 401 408 l 389 308 l 176 308 l 132 0 l 1 0 m 517 57 q 569 70 551 57 q 595 107 586 83 q 608 157 604 131 l 660 529 q 662 579 664 557 q 646 615 660 601 q 599 628 632 628 q 547 615 565 628 q 521 579 529 601 q 508 529 513 557 l 456 157 q 453 107 451 131 q 469 70 454 83 q 517 57 483 57 z "},"j":{"ha":232,"x_min":-157,"x_max":257,"o":"m -111 -156 q -137 -153 -121 -154 q -157 -151 -153 -153 l -147 -81 q -124 -81 -139 -82 q -99 -81 -110 -81 q -28 -60 -54 -79 q 4 0 -1 -40 l 100 688 l 231 688 l 139 36 q 90 -90 126 -47 q 0 -145 53 -132 q -111 -156 -53 -158 m 185 761 q 136 781 157 761 q 115 829 115 801 q 136 878 115 858 q 186 897 157 897 q 236 878 215 897 q 257 829 257 858 q 237 781 258 801 q 185 761 215 761 z "},"ȷ":{"ha":232,"x_min":-157,"x_max":231,"o":"m -111 -156 q -137 -153 -121 -154 q -157 -151 -153 -153 l -147 -81 q -124 -81 -139 -82 q -99 -81 -110 -81 q -28 -60 -54 -79 q 4 0 -1 -40 l 100 688 l 231 688 l 139 36 q 90 -90 126 -47 q 0 -145 53 -132 q -111 -156 -53 -158 z "},"ј":{"ha":232,"x_min":-157,"x_max":257,"o":"m -111 -156 q -137 -153 -121 -154 q -157 -151 -153 -153 l -147 -81 q -124 -81 -139 -82 q -99 -81 -110 -81 q -28 -60 -54 -79 q 4 0 -1 -40 l 100 688 l 231 688 l 139 36 q 90 -90 126 -47 q 0 -145 53 -132 q -111 -156 -53 -158 m 185 761 q 136 781 157 761 q 115 829 115 801 q 136 878 115 858 q 186 897 157 897 q 236 878 215 897 q 257 829 257 858 q 237 781 258 801 q 185 761 215 761 z "},"k":{"ha":504,"x_min":13,"x_max":538,"o":"m 13 0 l 136 879 l 265 879 l 142 0 l 13 0 m 300 0 l 214 399 l 408 688 l 538 688 l 339 397 l 440 0 l 300 0 z "},"к":{"ha":519,"x_min":11,"x_max":550,"o":"m 11 0 l 108 688 l 240 688 l 203 425 q 312 559 251 501 q 435 647 372 617 q 550 674 497 678 l 539 588 q 472 560 503 579 q 417 517 442 542 q 384 483 399 501 q 356 446 369 465 l 453 0 l 303 0 l 222 303 q 196 267 208 286 q 176 236 183 247 l 143 0 l 11 0 z "},"ķ":{"ha":504,"x_min":13,"x_max":538,"o":"m 13 0 l 136 879 l 265 879 l 142 0 l 13 0 m 300 0 l 214 399 l 408 688 l 538 688 l 339 397 l 440 0 l 300 0 m 118 -244 q 158 -188 144 -212 q 172 -151 172 -164 q 167 -135 174 -142 q 153 -119 160 -129 q 147 -94 146 -110 q 167 -62 149 -78 q 210 -47 185 -47 q 253 -62 238 -47 q 265 -100 268 -76 q 249 -144 264 -118 q 214 -197 235 -171 q 172 -244 193 -224 l 118 -244 z "},"ќ":{"ha":519,"x_min":11,"x_max":550,"o":"m 11 0 l 108 688 l 240 688 l 203 425 q 312 559 251 501 q 435 647 372 617 q 550 674 497 678 l 539 588 q 472 560 503 579 q 417 517 442 542 q 384 483 399 501 q 356 446 369 465 l 453 0 l 303 0 l 222 303 q 196 267 208 286 q 176 236 183 247 l 143 0 l 11 0 m 281 760 l 369 894 l 497 894 l 363 760 l 281 760 z "},"l":{"ha":251,"x_min":13,"x_max":265,"o":"m 13 0 l 136 879 l 265 879 l 142 0 l 13 0 z "},"ĺ":{"ha":251,"x_min":13,"x_max":367,"o":"m 13 0 l 136 879 l 265 879 l 142 0 l 13 0 m 115 935 l 242 1060 l 365 1060 l 192 935 l 115 935 z "},"ľ":{"ha":332,"x_min":13,"x_max":424,"o":"m 13 0 l 136 879 l 265 879 l 142 0 l 13 0 m 286 710 l 343 904 l 425 904 l 333 710 l 286 710 z "},"ļ":{"ha":251,"x_min":-24,"x_max":265,"o":"m 13 0 l 136 879 l 265 879 l 142 0 l 13 0 m -24 -244 q 17 -188 3 -212 q 31 -151 31 -164 q 25 -135 32 -142 q 11 -119 18 -129 q 6 -94 4 -110 q 25 -62 7 -78 q 68 -47 43 -47 q 111 -62 96 -47 q 124 -100 126 -76 q 108 -144 122 -118 q 72 -197 93 -171 q 31 -244 51 -224 l -24 -244 z "},"←":{"ha":1114,"x_min":54,"x_max":1057,"o":"m 417 58 l 54 367 l 417 679 l 481 615 l 276 422 l 1057 418 l 1057 314 l 279 317 l 479 122 l 417 58 z "},"↔":{"ha":1385,"x_min":53,"x_max":1329,"o":"m 418 85 l 53 393 l 418 704 l 482 640 l 279 447 l 1104 447 l 901 640 l 965 704 l 1329 393 l 965 85 l 901 147 l 1101 340 l 282 340 l 482 147 l 418 85 z "},"<":{"ha":457,"x_min":56,"x_max":433,"o":"m 358 189 l 56 417 l 67 494 l 433 722 l 417 600 l 171 454 l 375 308 l 358 189 z "},"≤":{"ha":446,"x_min":24,"x_max":443,"o":"m 368 189 l 65 417 l 75 494 l 443 722 l 426 604 l 181 457 l 385 311 l 368 189 m 350 -4 l 24 -4 l 33 85 l 360 85 l 350 -4 z "},"љ":{"ha":860,"x_min":-28,"x_max":824,"o":"m -28 0 l -18 69 q 17 83 0 69 q 48 119 35 96 q 68 175 61 143 l 185 688 l 579 688 l 549 472 l 676 472 q 763 456 729 472 q 810 402 796 439 q 814 304 824 365 l 803 226 q 778 117 794 161 q 736 48 761 74 q 676 11 711 22 q 592 0 640 0 l 349 0 l 432 593 l 303 593 l 196 139 q 184 95 192 119 q 162 49 176 71 q 122 14 147 28 q 53 0 96 0 l -28 0 m 492 69 l 574 69 q 626 83 608 69 q 653 119 644 96 q 665 174 661 143 l 681 283 q 685 338 686 314 q 669 376 683 363 q 618 390 654 390 l 538 390 l 492 69 z "},"¬":{"ha":775,"x_min":69,"x_max":744,"o":"m 608 207 l 644 468 l 69 468 l 83 564 l 744 564 l 694 207 l 608 207 z "},"ſ":{"ha":367,"x_min":-119,"x_max":478,"o":"m -8 -200 q -66 -199 -36 -201 q -119 -193 -96 -197 l -111 -124 l -69 -125 q -42 -124 -56 -126 q -15 -119 -29 -122 q 22 -94 8 -114 q 39 -54 35 -75 l 121 532 l 69 532 l 81 611 l 132 611 l 150 733 q 185 825 158 793 q 255 868 213 857 q 347 879 297 879 q 416 874 383 879 q 478 861 449 868 l 456 785 q 402 797 428 793 q 344 800 376 800 q 297 772 313 800 q 278 714 282 743 l 176 -7 q 141 -115 167 -74 q 77 -177 115 -157 q -8 -200 39 -197 z "},"◊":{"ha":667,"x_min":54,"x_max":613,"o":"m 288 -47 l 54 406 l 288 857 l 379 857 l 613 406 l 379 -47 l 288 -47 m 333 76 l 494 408 l 335 733 l 172 406 l 333 76 z "},"ł":{"ha":397,"x_min":8,"x_max":349,"o":"m 71 0 l 104 235 l 8 194 l 17 257 l 113 296 l 194 879 l 324 879 l 250 354 l 349 396 l 340 336 l 242 293 l 200 0 l 71 0 z "},"m":{"ha":797,"x_min":13,"x_max":785,"o":"m 13 0 l 108 688 l 219 688 l 219 608 q 280 673 239 649 q 364 697 321 697 q 461 675 431 697 q 497 608 492 653 q 557 672 518 647 q 643 697 596 697 q 760 653 736 697 q 772 515 785 608 l 700 0 l 569 0 l 640 515 q 641 571 646 551 q 622 597 636 590 q 582 604 607 604 q 528 586 553 604 q 497 540 504 568 l 421 0 l 290 0 l 364 518 q 363 572 368 553 q 342 598 357 592 q 304 604 326 604 q 253 589 274 604 q 221 553 232 574 l 143 0 l 13 0 z "},"¯":{"ha":276,"x_min":63,"x_max":346,"o":"m 63 782 l 72 849 l 347 849 l 338 782 l 63 782 z "},"̄":{"ha":0,"x_min":63,"x_max":347,"o":"m 63 782 l 72 849 l 347 849 l 338 782 l 63 782 z "},"µ":{"ha":521,"x_min":-7,"x_max":528,"o":"m -7 -179 l 115 688 l 246 688 l 168 135 q 192 96 174 110 q 239 82 210 82 q 278 89 261 82 q 308 115 296 96 q 325 172 319 135 l 397 688 l 528 688 l 456 172 q 428 70 447 111 q 374 10 410 29 q 274 -10 338 -10 q 196 13 231 -10 q 151 79 161 36 l 104 -179 l -7 -179 z "},"−":{"ha":703,"x_min":78,"x_max":563,"o":"m 78 310 l 92 401 l 563 401 l 549 310 l 78 310 z "},"×":{"ha":526,"x_min":39,"x_max":488,"o":"m 378 154 l 254 297 l 96 161 l 39 226 l 197 364 l 74 506 l 150 572 l 271 429 l 432 569 l 488 503 l 329 364 l 451 219 l 378 154 z "},"n":{"ha":525,"x_min":13,"x_max":504,"o":"m 13 0 l 108 688 l 218 688 l 219 608 q 281 674 240 651 q 365 697 321 697 q 447 684 417 697 q 489 646 476 671 q 503 588 501 621 q 497 515 504 556 l 426 0 l 296 0 l 367 506 q 370 542 369 525 q 367 574 371 560 q 348 596 363 588 q 304 604 333 604 q 264 596 281 604 q 237 576 247 588 q 221 553 226 564 l 143 0 l 13 0 z "},"ń":{"ha":525,"x_min":13,"x_max":504,"o":"m 13 0 l 108 688 l 218 688 l 219 608 q 281 674 240 651 q 365 697 321 697 q 447 684 417 697 q 489 646 476 671 q 503 588 501 621 q 497 515 504 556 l 426 0 l 296 0 l 367 506 q 370 542 369 525 q 367 574 371 560 q 348 596 363 588 q 304 604 333 604 q 264 596 281 604 q 237 576 247 588 q 221 553 226 564 l 143 0 l 13 0 m 261 760 l 350 894 l 478 894 l 343 760 l 261 760 z "},"ň":{"ha":525,"x_min":13,"x_max":518,"o":"m 13 0 l 108 688 l 218 688 l 219 608 q 281 674 240 651 q 365 697 321 697 q 447 684 417 697 q 489 646 476 671 q 503 588 501 621 q 497 515 504 556 l 426 0 l 296 0 l 367 506 q 370 542 369 525 q 367 574 371 560 q 348 596 363 588 q 304 604 333 604 q 264 596 281 604 q 237 576 247 588 q 221 553 226 564 l 143 0 l 13 0 m 292 758 l 183 897 l 265 897 l 340 818 l 439 897 l 518 897 l 369 758 l 292 758 z "},"ņ":{"ha":525,"x_min":13,"x_max":504,"o":"m 13 0 l 108 688 l 218 688 l 219 608 q 281 674 240 651 q 365 697 321 697 q 447 684 417 697 q 489 646 476 671 q 503 588 501 621 q 497 515 504 556 l 426 0 l 296 0 l 367 506 q 370 542 369 525 q 367 574 371 560 q 348 596 363 588 q 304 604 333 604 q 264 596 281 604 q 237 576 247 588 q 221 553 226 564 l 143 0 l 13 0 m 119 -244 q 160 -188 146 -212 q 174 -151 174 -164 q 168 -135 175 -142 q 154 -119 161 -129 q 149 -94 147 -110 q 168 -62 150 -78 q 211 -47 186 -47 q 254 -62 239 -47 q 267 -100 269 -76 q 251 -144 265 -118 q 215 -197 236 -171 q 174 -244 194 -224 l 119 -244 z "},"њ":{"ha":800,"x_min":1,"x_max":764,"o":"m 1 0 l 99 688 l 229 688 l 189 408 l 350 408 l 390 688 l 519 688 l 489 472 l 617 472 q 703 456 669 472 q 751 402 738 439 q 754 304 764 365 l 744 226 q 719 117 735 161 q 677 48 703 74 q 616 11 651 22 q 532 0 581 0 l 293 0 l 338 308 l 176 308 l 132 0 l 1 0 m 432 69 l 514 69 q 567 83 549 69 q 593 119 585 96 q 607 174 601 143 l 621 283 q 625 338 626 314 q 610 376 624 363 q 560 390 596 390 l 478 390 l 432 69 z "},"↗":{"ha":807,"x_min":22,"x_max":769,"o":"m 96 93 l 22 168 l 574 717 l 294 714 l 294 801 l 769 839 l 733 364 l 643 364 l 650 643 l 96 93 z "},"↖":{"ha":836,"x_min":63,"x_max":808,"o":"m 735 74 l 186 625 l 190 346 l 100 346 l 63 821 l 539 785 l 539 694 l 258 701 l 808 146 l 735 74 z "},"≠":{"ha":574,"x_min":6,"x_max":571,"o":"m 6 -19 l 154 200 l 64 200 l 76 292 l 215 292 l 347 488 l 104 488 l 118 578 l 410 578 l 507 724 l 571 724 l 472 578 l 549 578 l 536 488 l 410 488 l 278 292 l 508 292 l 496 200 l 217 200 l 68 -19 l 6 -19 z "},"ñ":{"ha":525,"x_min":13,"x_max":504,"o":"m 13 0 l 108 688 l 218 688 l 219 608 q 281 674 240 651 q 365 697 321 697 q 447 684 417 697 q 489 646 476 671 q 503 588 501 621 q 497 515 504 556 l 426 0 l 296 0 l 367 506 q 370 542 369 525 q 367 574 371 560 q 348 596 363 588 q 304 604 333 604 q 264 596 281 604 q 237 576 247 588 q 221 553 226 564 l 143 0 l 13 0 m 390 767 q 356 774 371 767 q 324 793 340 781 q 297 809 311 801 q 267 817 283 817 q 236 804 249 817 q 218 768 224 792 l 175 768 q 210 848 183 817 q 276 879 238 879 q 314 872 297 879 q 347 853 331 864 q 374 838 361 844 q 401 832 386 832 q 433 844 421 832 q 451 876 444 856 l 496 876 q 456 795 488 824 q 390 767 425 767 z "},"#":{"ha":985,"x_min":50,"x_max":935,"o":"m 176 0 l 256 249 l 50 249 l 76 329 l 281 329 l 342 522 l 135 524 l 160 603 l 368 603 l 428 797 l 511 797 l 450 603 l 651 603 l 711 797 l 796 797 l 735 603 l 935 603 l 908 522 l 708 522 l 649 329 l 850 329 l 825 249 l 624 249 l 544 0 l 461 0 l 540 249 l 339 249 l 260 0 l 176 0 m 364 329 l 565 329 l 625 522 l 424 522 l 364 329 z "},"o":{"ha":506,"x_min":19,"x_max":489,"o":"m 204 -11 q 108 1 146 -11 q 50 39 71 14 q 24 106 29 64 q 28 207 19 147 l 69 510 q 104 613 79 571 q 178 676 129 654 q 304 699 226 699 q 400 686 363 699 q 458 649 438 674 q 483 590 478 625 q 482 510 489 556 l 440 207 q 402 80 429 128 q 327 10 375 32 q 204 -11 279 -11 m 214 69 q 267 83 249 69 q 293 118 285 96 q 304 167 301 140 l 354 521 q 356 571 358 549 q 340 606 354 593 q 292 619 326 619 q 240 606 258 619 q 215 571 222 593 q 203 521 207 549 l 153 167 q 151 118 150 140 q 167 83 153 96 q 214 69 181 69 z "},"о":{"ha":506,"x_min":19,"x_max":489,"o":"m 204 -11 q 108 1 146 -11 q 50 39 71 14 q 24 106 29 64 q 28 207 19 147 l 69 510 q 104 613 79 571 q 178 676 129 654 q 304 699 226 699 q 400 686 363 699 q 458 649 438 674 q 483 590 478 625 q 482 510 489 556 l 440 207 q 402 80 429 128 q 327 10 375 32 q 204 -11 279 -11 m 214 69 q 267 83 249 69 q 293 118 285 96 q 304 167 301 140 l 354 521 q 356 571 358 549 q 340 606 354 593 q 292 619 326 619 q 240 606 258 619 q 215 571 222 593 q 203 521 207 549 l 153 167 q 151 118 150 140 q 167 83 153 96 q 214 69 181 69 z "},"ó":{"ha":506,"x_min":19,"x_max":489,"o":"m 204 -11 q 108 1 146 -11 q 50 39 71 14 q 24 106 29 64 q 28 207 19 147 l 69 510 q 104 613 79 571 q 178 676 129 654 q 304 699 226 699 q 400 686 363 699 q 458 649 438 674 q 483 590 478 625 q 482 510 489 556 l 440 207 q 402 80 429 128 q 327 10 375 32 q 204 -11 279 -11 m 214 69 q 267 83 249 69 q 293 118 285 96 q 304 167 301 140 l 354 521 q 356 571 358 549 q 340 606 354 593 q 292 619 326 619 q 240 606 258 619 q 215 571 222 593 q 203 521 207 549 l 153 167 q 151 118 150 140 q 167 83 153 96 q 214 69 181 69 m 244 760 l 333 894 l 461 894 l 326 760 l 244 760 z "},"ǒ":{"ha":506,"x_min":19,"x_max":501,"o":"m 204 -11 q 108 1 146 -11 q 50 39 71 14 q 24 106 29 64 q 28 207 19 147 l 69 510 q 104 613 79 571 q 178 676 129 654 q 304 699 226 699 q 400 686 363 699 q 458 649 438 674 q 483 590 478 625 q 482 510 489 556 l 440 207 q 402 80 429 128 q 327 10 375 32 q 204 -11 279 -11 m 214 69 q 267 83 249 69 q 293 118 285 96 q 304 167 301 140 l 354 521 q 356 571 358 549 q 340 606 354 593 q 292 619 326 619 q 240 606 258 619 q 215 571 222 593 q 203 521 207 549 l 153 167 q 151 118 150 140 q 167 83 153 96 q 214 69 181 69 m 275 758 l 167 897 l 249 897 l 324 818 l 422 897 l 501 897 l 353 758 l 275 758 z "},"ô":{"ha":506,"x_min":19,"x_max":489,"o":"m 204 -11 q 108 1 146 -11 q 50 39 71 14 q 24 106 29 64 q 28 207 19 147 l 69 510 q 104 613 79 571 q 178 676 129 654 q 304 699 226 699 q 400 686 363 699 q 458 649 438 674 q 483 590 478 625 q 482 510 489 556 l 440 207 q 402 80 429 128 q 327 10 375 32 q 204 -11 279 -11 m 214 69 q 267 83 249 69 q 293 118 285 96 q 304 167 301 140 l 354 521 q 356 571 358 549 q 340 606 354 593 q 292 619 326 619 q 240 606 258 619 q 215 571 222 593 q 203 521 207 549 l 153 167 q 151 118 150 140 q 167 83 153 96 q 214 69 181 69 m 144 758 l 293 897 l 369 897 l 479 758 l 400 758 l 324 839 l 226 758 l 144 758 z "},"ố":{"ha":506,"x_min":19,"x_max":693,"o":"m 204 -11 q 108 1 146 -11 q 50 39 71 14 q 24 106 29 64 q 28 207 19 147 l 69 510 q 104 613 79 571 q 178 676 129 654 q 304 699 226 699 q 400 686 363 699 q 458 649 438 674 q 483 590 478 625 q 482 510 489 556 l 440 207 q 402 80 429 128 q 327 10 375 32 q 204 -11 279 -11 m 214 69 q 267 83 249 69 q 293 118 285 96 q 304 167 301 140 l 354 521 q 356 571 358 549 q 340 606 354 593 q 292 619 326 619 q 240 606 258 619 q 215 571 222 593 q 203 521 207 549 l 153 167 q 151 118 150 140 q 167 83 153 96 q 214 69 181 69 m 144 758 l 293 897 l 369 897 l 479 758 l 400 758 l 324 839 l 226 758 l 144 758 m 476 840 l 565 975 l 693 975 l 558 840 l 476 840 z "},"ộ":{"ha":506,"x_min":19,"x_max":489,"o":"m 204 -11 q 108 1 146 -11 q 50 39 71 14 q 24 106 29 64 q 28 207 19 147 l 69 510 q 104 613 79 571 q 178 676 129 654 q 304 699 226 699 q 400 686 363 699 q 458 649 438 674 q 483 590 478 625 q 482 510 489 556 l 440 207 q 402 80 429 128 q 327 10 375 32 q 204 -11 279 -11 m 214 69 q 267 83 249 69 q 293 118 285 96 q 304 167 301 140 l 354 521 q 356 571 358 549 q 340 606 354 593 q 292 619 326 619 q 240 606 258 619 q 215 571 222 593 q 203 521 207 549 l 153 167 q 151 118 150 140 q 167 83 153 96 q 214 69 181 69 m 189 -168 q 148 -151 165 -168 q 131 -111 131 -135 q 148 -72 131 -87 q 189 -57 165 -57 q 231 -72 214 -57 q 247 -111 247 -87 q 231 -151 247 -135 q 189 -168 214 -168 m 144 758 l 293 897 l 369 897 l 479 758 l 400 758 l 324 839 l 226 758 l 144 758 z "},"ồ":{"ha":506,"x_min":19,"x_max":601,"o":"m 204 -11 q 108 1 146 -11 q 50 39 71 14 q 24 106 29 64 q 28 207 19 147 l 69 510 q 104 613 79 571 q 178 676 129 654 q 304 699 226 699 q 400 686 363 699 q 458 649 438 674 q 483 590 478 625 q 482 510 489 556 l 440 207 q 402 80 429 128 q 327 10 375 32 q 204 -11 279 -11 m 214 69 q 267 83 249 69 q 293 118 285 96 q 304 167 301 140 l 354 521 q 356 571 358 549 q 340 606 354 593 q 292 619 326 619 q 240 606 258 619 q 215 571 222 593 q 203 521 207 549 l 153 167 q 151 118 150 140 q 167 83 153 96 q 214 69 181 69 m 144 758 l 293 897 l 369 897 l 479 758 l 400 758 l 324 839 l 226 758 l 144 758 m 519 840 l 413 975 l 540 975 l 601 840 l 519 840 z "},"ổ":{"ha":506,"x_min":19,"x_max":650,"o":"m 204 -11 q 108 1 146 -11 q 50 39 71 14 q 24 106 29 64 q 28 207 19 147 l 69 510 q 104 613 79 571 q 178 676 129 654 q 304 699 226 699 q 400 686 363 699 q 458 649 438 674 q 483 590 478 625 q 482 510 489 556 l 440 207 q 402 80 429 128 q 327 10 375 32 q 204 -11 279 -11 m 214 69 q 267 83 249 69 q 293 118 285 96 q 304 167 301 140 l 354 521 q 356 571 358 549 q 340 606 354 593 q 292 619 326 619 q 240 606 258 619 q 215 571 222 593 q 203 521 207 549 l 153 167 q 151 118 150 140 q 167 83 153 96 q 214 69 181 69 m 144 758 l 293 897 l 369 897 l 479 758 l 400 758 l 324 839 l 226 758 l 144 758 m 501 828 l 504 858 q 522 887 507 879 q 551 902 538 894 q 567 928 565 910 l 569 939 q 566 963 571 953 q 544 974 561 974 q 511 943 519 974 l 451 953 q 487 1006 461 988 q 557 1024 513 1024 q 628 1001 607 1024 q 644 935 650 978 l 643 931 q 630 890 640 901 q 607 875 619 879 q 585 867 594 871 q 574 850 575 863 l 572 828 l 501 828 z "},"ỗ":{"ha":506,"x_min":19,"x_max":500,"o":"m 204 -11 q 108 1 146 -11 q 50 39 71 14 q 24 106 29 64 q 28 207 19 147 l 69 510 q 104 613 79 571 q 178 676 129 654 q 304 699 226 699 q 400 686 363 699 q 458 649 438 674 q 483 590 478 625 q 482 510 489 556 l 440 207 q 402 80 429 128 q 327 10 375 32 q 204 -11 279 -11 m 214 69 q 267 83 249 69 q 293 118 285 96 q 304 167 301 140 l 354 521 q 356 571 358 549 q 340 606 354 593 q 292 619 326 619 q 240 606 258 619 q 215 571 222 593 q 203 521 207 549 l 153 167 q 151 118 150 140 q 167 83 153 96 q 214 69 181 69 m 144 758 l 293 897 l 369 897 l 479 758 l 400 758 l 324 839 l 226 758 l 144 758 m 393 929 q 358 936 374 929 q 326 956 343 943 q 300 972 314 964 q 269 979 286 979 q 239 967 251 979 q 221 931 226 954 l 178 931 q 213 1010 186 979 q 279 1042 240 1042 q 317 1034 300 1042 q 350 1015 333 1026 q 376 1001 364 1007 q 404 994 389 994 q 435 1006 424 994 q 454 1039 447 1018 l 499 1039 q 459 958 490 986 q 393 929 428 929 z "}}}
